Literata-M3Italic.ufo
<glyph name="exclam" format="2">
	<unicode hex="0021"/>
	<advance width="340"/>
	<outline>
		<contour>
			<point x="157" y="510" type="curve" smooth="yes"/>
			<point x="151" y="181" type="line"/>
			<point x="188" y="181" type="line"/>
			<point x="204" y="502"/>
			<point x="219" y="601"/>
			<point x="250" y="697" type="curve"/>
			<point x="238" y="709"/>
			<point x="225" y="715"/>
			<point x="209" y="715" type="curve" smooth="yes"/>
			<point x="179" y="715"/>
			<point x="162" y="691"/>
			<point x="161" y="648" type="curve" smooth="yes"/>
			<point x="160" y="605"/>
			<point x="158" y="565"/>
		</contour>
		<contour>
			<point x="122" y="37" type="curve" smooth="yes"/>
			<point x="122" y="8"/>
			<point x="141" y="-10"/>
			<point x="165" y="-10" type="curve" smooth="yes"/>
			<point x="193" y="-10"/>
			<point x="210" y="14"/>
			<point x="210" y="40" type="curve" smooth="yes"/>
			<point x="210" y="69"/>
			<point x="194" y="87"/>
			<point x="166" y="87" type="curve" smooth="yes"/>
			<point x="140" y="87"/>
			<point x="122" y="65"/>
		</contour>
	</outline>
</glyph>
<glyph name="numbersign" format="2">
	<unicode hex="0023"/>
	<advance width="672"/>
	<outline>
		<contour>
			<point x="155" y="0" type="line"/>
			<point x="184" y="0" type="line"/>
			<point x="214" y="157" type="line"/>
			<point x="424" y="157" type="line"/>
			<point x="394" y="0" type="line"/>
			<point x="423" y="0" type="line"/>
			<point x="453" y="157" type="line"/>
			<point x="598" y="157" type="line"/>
			<point x="604" y="183" type="line"/>
			<point x="458" y="183" type="line"/>
			<point x="496" y="384" type="line"/>
			<point x="635" y="384" type="line"/>
			<point x="641" y="411" type="line"/>
			<point x="501" y="411" type="line"/>
			<point x="527" y="550" type="line"/>
			<point x="498" y="550" type="line"/>
			<point x="472" y="411" type="line"/>
			<point x="262" y="411" type="line"/>
			<point x="288" y="550" type="line"/>
			<point x="259" y="550" type="line"/>
			<point x="233" y="411" type="line"/>
			<point x="101" y="411" type="line"/>
			<point x="94" y="384" type="line"/>
			<point x="228" y="384" type="line"/>
			<point x="190" y="183" type="line"/>
			<point x="60" y="183" type="line"/>
			<point x="53" y="157" type="line"/>
			<point x="185" y="157" type="line"/>
		</contour>
		<contour>
			<point x="257" y="384" type="line"/>
			<point x="467" y="384" type="line"/>
			<point x="429" y="183" type="line"/>
			<point x="219" y="183" type="line"/>
		</contour>
	</outline>
</glyph>
<glyph name="dollar" format="2">
	<unicode hex="0024"/>
	<advance width="499"/>
	<outline>
		<contour>
			<point x="233" y="-85" type="line"/>
			<point x="274" y="-85" type="line"/>
			<point x="277" y="-11" type="line"/>
			<point x="404" y="4"/>
			<point x="462" y="88"/>
			<point x="462" y="192" type="curve" smooth="yes"/>
			<point x="462" y="288"/>
			<point x="396" y="333"/>
			<point x="317" y="370" type="curve" smooth="yes"/>
			<point x="309" y="374"/>
			<point x="300" y="378"/>
			<point x="291" y="382" type="curve"/>
			<point x="301" y="673" type="line"/>
			<point x="381" y="672"/>
			<point x="405" y="638"/>
			<point x="387" y="605" type="curve" smooth="yes"/>
			<point x="374" y="580" type="line"/>
			<point x="385" y="567"/>
			<point x="400" y="557"/>
			<point x="423" y="557" type="curve" smooth="yes"/>
			<point x="450" y="557"/>
			<point x="466" y="574"/>
			<point x="466" y="606" type="curve" smooth="yes"/>
			<point x="466" y="661"/>
			<point x="399" y="713"/>
			<point x="303" y="715" type="curve"/>
			<point x="305" y="782" type="line"/>
			<point x="264" y="782" type="line"/>
			<point x="262" y="713" type="line"/>
			<point x="135" y="700"/>
			<point x="84" y="615"/>
			<point x="84" y="535" type="curve" smooth="yes"/>
			<point x="84" y="462"/>
			<point x="114" y="411"/>
			<point x="249" y="350" type="curve"/>
			<point x="237" y="26" type="line"/>
			<point x="143" y="28"/>
			<point x="113" y="67"/>
			<point x="135" y="113" type="curve" smooth="yes"/>
			<point x="149" y="142" type="line"/>
			<point x="133" y="155"/>
			<point x="119" y="161"/>
			<point x="102" y="161" type="curve" smooth="yes"/>
			<point x="78" y="161"/>
			<point x="55" y="142"/>
			<point x="55" y="107" type="curve" smooth="yes"/>
			<point x="55" y="42"/>
			<point x="120" y="-14"/>
			<point x="236" y="-14" type="curve"/>
		</contour>
		<contour>
			<point x="278" y="28" type="curve"/>
			<point x="289" y="331" type="line"/>
			<point x="368" y="291"/>
			<point x="413" y="253"/>
			<point x="413" y="184" type="curve" smooth="yes"/>
			<point x="413" y="94"/>
			<point x="356" y="40"/>
		</contour>
		<contour>
			<point x="250" y="401" type="line"/>
			<point x="153" y="449"/>
			<point x="133" y="488"/>
			<point x="133" y="543" type="curve" smooth="yes"/>
			<point x="133" y="593"/>
			<point x="163" y="658"/>
			<point x="260" y="671" type="curve"/>
		</contour>
	</outline>
</glyph>
<glyph name="percent" format="2">
	<unicode hex="0025"/>
	<advance width="826"/>
	<outline>
		<contour>
			<point x="597" y="597" type="line"/>
			<point x="234" y="-14" type="line"/>
			<point x="279" y="-14" type="line"/>
			<point x="641" y="597" type="line"/>
		</contour>
		<contour>
			<point x="77" y="430" type="curve" smooth="yes"/>
			<point x="77" y="340"/>
			<point x="135" y="275"/>
			<point x="232" y="275" type="curve" smooth="yes"/>
			<point x="319" y="275"/>
			<point x="390" y="334"/>
			<point x="390" y="446" type="curve" smooth="yes"/>
			<point x="390" y="546"/>
			<point x="319" y="598"/>
			<point x="237" y="598" type="curve" smooth="yes"/>
			<point x="156" y="598"/>
			<point x="77" y="554"/>
		</contour>
		<contour>
			<point x="123" y="440" type="curve" smooth="yes"/>
			<point x="123" y="520"/>
			<point x="164" y="561"/>
			<point x="230" y="561" type="curve" smooth="yes"/>
			<point x="300" y="561"/>
			<point x="344" y="520"/>
			<point x="344" y="435" type="curve" smooth="yes"/>
			<point x="344" y="356"/>
			<point x="308" y="312"/>
			<point x="237" y="312" type="curve" smooth="yes"/>
			<point x="166" y="312"/>
			<point x="123" y="356"/>
		</contour>
		<contour>
			<point x="483" y="141" type="curve" smooth="yes"/>
			<point x="483" y="51"/>
			<point x="541" y="-14"/>
			<point x="638" y="-14" type="curve" smooth="yes"/>
			<point x="725" y="-14"/>
			<point x="796" y="45"/>
			<point x="796" y="157" type="curve" smooth="yes"/>
			<point x="796" y="257"/>
			<point x="725" y="309"/>
			<point x="643" y="309" type="curve" smooth="yes"/>
			<point x="562" y="309"/>
			<point x="483" y="265"/>
		</contour>
		<contour>
			<point x="529" y="151" type="curve" smooth="yes"/>
			<point x="529" y="231"/>
			<point x="570" y="272"/>
			<point x="636" y="272" type="curve" smooth="yes"/>
			<point x="706" y="272"/>
			<point x="750" y="231"/>
			<point x="750" y="146" type="curve" smooth="yes"/>
			<point x="750" y="67"/>
			<point x="714" y="23"/>
			<point x="643" y="23" type="curve" smooth="yes"/>
			<point x="572" y="23"/>
			<point x="529" y="67"/>
		</contour>
	</outline>
</glyph>
<glyph name="ampersand" format="2">
	<unicode hex="0026"/>
	<advance width="724"/>
	<outline>
		<contour>
			<point x="301" y="-14" type="curve" smooth="yes"/>
			<point x="460" y="-14"/>
			<point x="549" y="70"/>
			<point x="564" y="194" type="curve" smooth="yes"/>
			<point x="570" y="248"/>
			<point x="552" y="293"/>
			<point x="531" y="328" type="curve" smooth="yes"/>
			<point x="522" y="343" type="line"/>
			<point x="547" y="338"/>
			<point x="571" y="333"/>
			<point x="598" y="333" type="curve" smooth="yes"/>
			<point x="666" y="333"/>
			<point x="704" y="370"/>
			<point x="704" y="409" type="curve" smooth="yes"/>
			<point x="704" y="441"/>
			<point x="684" y="462"/>
			<point x="656" y="462" type="curve" smooth="yes"/>
			<point x="640" y="462"/>
			<point x="626" y="457"/>
			<point x="613" y="448" type="curve"/>
			<point x="624" y="420" type="line" smooth="yes"/>
			<point x="636" y="389"/>
			<point x="619" y="354"/>
			<point x="563" y="364" type="curve" smooth="yes"/>
			<point x="508" y="374" type="line"/>
			<point x="487" y="346" type="line"/>
			<point x="506" y="310"/>
			<point x="518" y="272"/>
			<point x="518" y="225" type="curve" smooth="yes"/>
			<point x="518" y="112"/>
			<point x="436" y="27"/>
			<point x="313" y="27" type="curve" smooth="yes"/>
			<point x="198" y="27"/>
			<point x="141" y="76"/>
			<point x="141" y="175" type="curve" smooth="yes"/>
			<point x="141" y="264"/>
			<point x="232" y="331"/>
			<point x="392" y="347" type="curve"/>
			<point x="386" y="389" type="line"/>
			<point x="367" y="385"/>
			<point x="343" y="383"/>
			<point x="323" y="383" type="curve" smooth="yes"/>
			<point x="220" y="383"/>
			<point x="159" y="417"/>
			<point x="159" y="506" type="curve" smooth="yes"/>
			<point x="159" y="604"/>
			<point x="244" y="669"/>
			<point x="360" y="669" type="curve" smooth="yes"/>
			<point x="446" y="669"/>
			<point x="473" y="631"/>
			<point x="449" y="586" type="curve" smooth="yes"/>
			<point x="438" y="565" type="line"/>
			<point x="454" y="549"/>
			<point x="470" y="540"/>
			<point x="494" y="540" type="curve" smooth="yes"/>
			<point x="520" y="540"/>
			<point x="542" y="559"/>
			<point x="542" y="595" type="curve" smooth="yes"/>
			<point x="542" y="660"/>
			<point x="466" y="715"/>
			<point x="372" y="715" type="curve" smooth="yes"/>
			<point x="220" y="715"/>
			<point x="105" y="628"/>
			<point x="105" y="501" type="curve" smooth="yes"/>
			<point x="105" y="420"/>
			<point x="152" y="365"/>
			<point x="257" y="360" type="curve"/>
			<point x="257" y="352" type="line"/>
			<point x="147" y="322"/>
			<point x="87" y="241"/>
			<point x="87" y="159" type="curve" smooth="yes"/>
			<point x="87" y="51"/>
			<point x="168" y="-14"/>
		</contour>
	</outline>
</glyph>
<glyph name="quotesingle" format="2">
	<unicode hex="0027"/>
	<advance width="233"/>
	<outline>
		<contour>
			<point x="141" y="547" type="line"/>
			<point x="178" y="706" type="line" smooth="yes"/>
			<point x="181" y="719"/>
			<point x="184" y="731"/>
			<point x="184" y="746" type="curve" smooth="yes"/>
			<point x="184" y="765"/>
			<point x="176" y="780"/>
			<point x="151" y="780" type="curve" smooth="yes"/>
			<point x="123" y="780"/>
			<point x="110" y="761"/>
			<point x="110" y="724" type="curve" smooth="yes"/>
			<point x="110" y="711"/>
			<point x="111" y="700"/>
			<point x="112" y="687" type="curve" smooth="yes"/>
			<point x="121" y="547" type="line"/>
		</contour>
	</outline>
</glyph>
<glyph name="parenleft" format="2">
	<unicode hex="0028"/>
	<advance width="293"/>
	<outline>
		<contour>
			<point x="88" y="274" type="curve" smooth="yes"/>
			<point x="88" y="84"/>
			<point x="168" y="-94"/>
			<point x="234" y="-205" type="curve"/>
			<point x="257" y="-192" type="line"/>
			<point x="179" y="-33"/>
			<point x="135" y="124"/>
			<point x="135" y="291" type="curve" smooth="yes"/>
			<point x="135" y="478"/>
			<point x="191" y="623"/>
			<point x="290" y="793" type="curve"/>
			<point x="267" y="806" type="line"/>
			<point x="143" y="634"/>
			<point x="88" y="457"/>
		</contour>
	</outline>
</glyph>
<glyph name="asterisk" format="2">
	<unicode hex="002A"/>
	<advance width="473"/>
	<outline>
		<contour>
			<point x="248" y="610" type="line"/>
			<point x="141" y="706" type="line"/>
			<point x="109" y="702"/>
			<point x="101" y="686"/>
			<point x="101" y="668" type="curve" smooth="yes"/>
			<point x="101" y="653"/>
			<point x="111" y="643"/>
			<point x="137" y="634" type="curve" smooth="yes"/>
			<point x="239" y="599" type="line"/>
			<point x="93" y="548" type="line"/>
			<point x="92" y="543"/>
			<point x="91" y="537"/>
			<point x="91" y="529" type="curve" smooth="yes"/>
			<point x="91" y="486"/>
			<point x="136" y="490"/>
			<point x="155" y="506" type="curve" smooth="yes"/>
			<point x="242" y="582" type="line"/>
			<point x="216" y="439" type="line"/>
			<point x="225" y="425"/>
			<point x="235" y="417"/>
			<point x="252" y="417" type="curve" smooth="yes"/>
			<point x="276" y="417"/>
			<point x="287" y="432"/>
			<point x="282" y="463" type="curve" smooth="yes"/>
			<point x="263" y="582" type="line"/>
			<point x="373" y="482" type="line"/>
			<point x="406" y="483"/>
			<point x="411" y="504"/>
			<point x="411" y="518" type="curve" smooth="yes"/>
			<point x="411" y="534"/>
			<point x="397" y="545"/>
			<point x="383" y="551" type="curve" smooth="yes"/>
			<point x="274" y="596" type="line"/>
			<point x="413" y="648" type="line"/>
			<point x="417" y="657"/>
			<point x="418" y="663"/>
			<point x="418" y="669" type="curve" smooth="yes"/>
			<point x="418" y="701"/>
			<point x="388" y="711"/>
			<point x="364" y="691" type="curve" smooth="yes"/>
			<point x="266" y="608" type="line"/>
			<point x="295" y="767" type="line"/>
			<point x="286" y="776"/>
			<point x="277" y="782"/>
			<point x="262" y="782" type="curve" smooth="yes"/>
			<point x="238" y="782"/>
			<point x="227" y="766"/>
			<point x="232" y="727" type="curve" smooth="yes"/>
		</contour>
	</outline>
</glyph>
<glyph name="plus" format="2">
	<unicode hex="002B"/>
	<advance width="582"/>
	<outline>
		<contour>
			<point x="269" y="99" type="line"/>
			<point x="310" y="99" type="line"/>
			<point x="317" y="287" type="line"/>
			<point x="494" y="287" type="line"/>
			<point x="496" y="327" type="line"/>
			<point x="319" y="327" type="line"/>
			<point x="326" y="507" type="line"/>
			<point x="284" y="507" type="line"/>
			<point x="277" y="327" type="line"/>
			<point x="101" y="327" type="line"/>
			<point x="99" y="287" type="line"/>
			<point x="275" y="287" type="line"/>
		</contour>
	</outline>
</glyph>
<glyph name="comma" format="2">
	<unicode hex="002C"/>
	<advance width="262"/>
	<outline>
		<contour>
			<point x="80" y="-131" type="line"/>
			<point x="148" y="-85"/>
			<point x="184" y="-28"/>
			<point x="184" y="31" type="curve" smooth="yes"/>
			<point x="184" y="65"/>
			<point x="167" y="91"/>
			<point x="132" y="91" type="curve" smooth="yes"/>
			<point x="89" y="91"/>
			<point x="77" y="48"/>
			<point x="91" y="15" type="curve"/>
			<point x="107" y="9" type="line" smooth="yes"/>
			<point x="122" y="3"/>
			<point x="129" y="-3"/>
			<point x="129" y="-17" type="curve" smooth="yes"/>
			<point x="129" y="-51"/>
			<point x="97" y="-82"/>
			<point x="62" y="-108" type="curve"/>
		</contour>
	</outline>
	<guideline x="30" y="-131" angle="0"/>
	<guideline x="12" y="91" angle="0"/>
</glyph>
<glyph name="hyphen" format="2">
	<unicode hex="002D"/>
	<advance width="353"/>
	<outline>
		<contour>
			<point x="54" y="326" type="line"/>
			<point x="52" y="260" type="line"/>
			<point x="319" y="260" type="line"/>
			<point x="321" y="326" type="line"/>
		</contour>
	</outline>
</glyph>
<glyph name="four" format="2">
	<unicode hex="0034"/>
	<advance width="543"/>
	<outline>
		<contour>
			<point x="417" y="225" type="line"/>
			<point x="436" y="701" type="line"/>
			<point x="425" y="710" type="line"/>
			<point x="374" y="694" type="line"/>
			<point x="28" y="207" type="line"/>
			<point x="34" y="187" type="line"/>
			<point x="371" y="187" type="line"/>
			<point x="364" y="46" type="line"/>
			<point x="228" y="29" type="line"/>
			<point x="224" y="0" type="line"/>
			<point x="494" y="0" type="line"/>
			<point x="498" y="34" type="line"/>
			<point x="410" y="45" type="line"/>
			<point x="416" y="187" type="line"/>
			<point x="525" y="187" type="line"/>
			<point x="527" y="225" type="line"/>
		</contour>
		<contour>
			<point x="372" y="225" type="line"/>
			<point x="87" y="225" type="line"/>
			<point x="388" y="646" type="line"/>
		</contour>
	</outline>
</glyph>
<glyph name="five" format="2">
	<unicode hex="0035"/>
	<advance width="502"/>
	<outline>
		<contour>
			<point x="411" y="253" type="curve" smooth="yes"/>
			<point x="411" y="120"/>
			<point x="321" y="27"/>
			<point x="194" y="27" type="curve" smooth="yes"/>
			<point x="131" y="27"/>
			<point x="91" y="55"/>
			<point x="114" y="93" type="curve" smooth="yes"/>
			<point x="130" y="120" type="line"/>
			<point x="118" y="135"/>
			<point x="103" y="146"/>
			<point x="86" y="146" type="curve" smooth="yes"/>
			<point x="55" y="146"/>
			<point x="33" y="124"/>
			<point x="33" y="89" type="curve" smooth="yes"/>
			<point x="33" y="27"/>
			<point x="95" y="-14"/>
			<point x="189" y="-14" type="curve" smooth="yes"/>
			<point x="348" y="-14"/>
			<point x="462" y="103"/>
			<point x="462" y="261" type="curve" smooth="yes"/>
			<point x="462" y="382"/>
			<point x="388" y="450"/>
			<point x="276" y="450" type="curve" smooth="yes"/>
			<point x="223" y="450"/>
			<point x="172" y="433"/>
			<point x="138" y="410" type="curve"/>
			<point x="163" y="653" type="line"/>
			<point x="431" y="653" type="line"/>
			<point x="438" y="700" type="line"/>
			<point x="140" y="700" type="line"/>
			<point x="124" y="686" type="line"/>
			<point x="96" y="390" type="line"/>
			<point x="122" y="368" type="line"/>
			<point x="172" y="392"/>
			<point x="217" y="407"/>
			<point x="259" y="407" type="curve" smooth="yes"/>
			<point x="360" y="407"/>
			<point x="411" y="358"/>
		</contour>
	</outline>
</glyph>
<glyph name="seven" format="2">
	<unicode hex="0037"/>
	<advance width="508"/>
	<outline>
		<contour>
			<point x="173" y="0" type="line"/>
			<point x="223" y="0" type="line"/>
			<point x="509" y="671" type="line"/>
			<point x="504" y="700" type="line"/>
			<point x="75" y="700" type="line"/>
			<point x="54" y="547" type="line"/>
			<point x="89" y="544" type="line"/>
			<point x="104" y="587" type="line" smooth="yes"/>
			<point x="124" y="644"/>
			<point x="135" y="655"/>
			<point x="207" y="655" type="curve" smooth="yes"/>
			<point x="460" y="655" type="line"/>
			<point x="167" y="10" type="line"/>
		</contour>
	</outline>
</glyph>
<glyph name="less" format="2">
	<unicode hex="003C"/>
	<advance width="582"/>
	<outline>
		<contour>
			<point x="442" y="37" type="line"/>
			<point x="463" y="71" type="line"/>
			<point x="113" y="282" type="line"/>
			<point x="479" y="495" type="line"/>
			<point x="460" y="532" type="line"/>
			<point x="74" y="305" type="line"/>
			<point x="72" y="263" type="line"/>
		</contour>
	</outline>
</glyph>
<glyph name="equal" format="2">
	<unicode hex="003D"/>
	<advance width="582"/>
	<outline>
		<contour>
			<point x="94" y="194" type="line"/>
			<point x="502" y="194" type="line"/>
			<point x="504" y="234" type="line"/>
			<point x="96" y="234" type="line"/>
		</contour>
		<contour>
			<point x="100" y="373" type="line"/>
			<point x="510" y="373" type="line"/>
			<point x="511" y="413" type="line"/>
			<point x="102" y="413" type="line"/>
		</contour>
	</outline>
</glyph>
<glyph name="question" format="2">
	<unicode hex="003F"/>
	<advance width="483"/>
	<outline>
		<contour>
			<point x="183" y="372" type="curve"/>
			<point x="221" y="181" type="line"/>
			<point x="262" y="181" type="line"/>
			<point x="230" y="342" type="line"/>
			<point x="378" y="374"/>
			<point x="443" y="452"/>
			<point x="443" y="553" type="curve" smooth="yes"/>
			<point x="443" y="657"/>
			<point x="380" y="715"/>
			<point x="263" y="715" type="curve" smooth="yes"/>
			<point x="153" y="715"/>
			<point x="67" y="653"/>
			<point x="67" y="585" type="curve" smooth="yes"/>
			<point x="67" y="554"/>
			<point x="81" y="541"/>
			<point x="107" y="541" type="curve" smooth="yes"/>
			<point x="133" y="541"/>
			<point x="148" y="555"/>
			<point x="152" y="572" type="curve"/>
			<point x="141" y="589" type="line" smooth="yes"/>
			<point x="112" y="633"/>
			<point x="165" y="675"/>
			<point x="252" y="675" type="curve" smooth="yes"/>
			<point x="345" y="675"/>
			<point x="392" y="630"/>
			<point x="392" y="552" type="curve" smooth="yes"/>
			<point x="392" y="451"/>
			<point x="324" y="400"/>
		</contour>
		<contour>
			<point x="196" y="37" type="curve" smooth="yes"/>
			<point x="196" y="8"/>
			<point x="215" y="-10"/>
			<point x="239" y="-10" type="curve" smooth="yes"/>
			<point x="267" y="-10"/>
			<point x="284" y="14"/>
			<point x="284" y="40" type="curve" smooth="yes"/>
			<point x="284" y="69"/>
			<point x="268" y="87"/>
			<point x="240" y="87" type="curve" smooth="yes"/>
			<point x="214" y="87"/>
			<point x="196" y="65"/>
		</contour>
	</outline>
</glyph>
<glyph name="at" format="2">
	<unicode hex="0040"/>
	<advance width="834"/>
	<outline>
		<contour>
			<point x="408" y="-171" type="curve" smooth="yes"/>
			<point x="503" y="-171"/>
			<point x="582" y="-147"/>
			<point x="640" y="-93" type="curve"/>
			<point x="615" y="-64" type="line"/>
			<point x="568" y="-102"/>
			<point x="516" y="-130"/>
			<point x="417" y="-130" type="curve" smooth="yes"/>
			<point x="264" y="-130"/>
			<point x="108" y="-42"/>
			<point x="108" y="187" type="curve" smooth="yes"/>
			<point x="108" y="394"/>
			<point x="246" y="517"/>
			<point x="439" y="517" type="curve" smooth="yes"/>
			<point x="648" y="517"/>
			<point x="737" y="413"/>
			<point x="737" y="235" type="curve" smooth="yes"/>
			<point x="737" y="103"/>
			<point x="676" y="32"/>
			<point x="606" y="32" type="curve" smooth="yes"/>
			<point x="564" y="32"/>
			<point x="557" y="60"/>
			<point x="559" y="111" type="curve" smooth="yes"/>
			<point x="572" y="381" type="line"/>
			<point x="569" y="384" type="line"/>
			<point x="530" y="364" type="line"/>
			<point x="503" y="375"/>
			<point x="466" y="385"/>
			<point x="424" y="385" type="curve" smooth="yes"/>
			<point x="326" y="385"/>
			<point x="239" y="315"/>
			<point x="239" y="147" type="curve" smooth="yes"/>
			<point x="239" y="63"/>
			<point x="275" y="-6"/>
			<point x="357" y="-6" type="curve" smooth="yes"/>
			<point x="436" y="-6"/>
			<point x="463" y="62"/>
			<point x="492" y="151" type="curve" smooth="yes"/>
			<point x="522" y="244" type="line"/>
			<point x="525" y="244" type="line"/>
			<point x="515" y="88" type="line" smooth="yes"/>
			<point x="512" y="46"/>
			<point x="530" y="-6"/>
			<point x="600" y="-6" type="curve" smooth="yes"/>
			<point x="695" y="-6"/>
			<point x="780" y="68"/>
			<point x="780" y="244" type="curve" smooth="yes"/>
			<point x="780" y="453"/>
			<point x="650" y="558"/>
			<point x="439" y="558" type="curve" smooth="yes"/>
			<point x="208" y="558"/>
			<point x="65" y="396"/>
			<point x="65" y="197" type="curve" smooth="yes"/>
			<point x="65" y="-67"/>
			<point x="229" y="-171"/>
		</contour>
		<contour>
			<point x="366" y="33" type="curve" smooth="yes"/>
			<point x="314" y="33"/>
			<point x="287" y="71"/>
			<point x="287" y="156" type="curve" smooth="yes"/>
			<point x="287" y="263"/>
			<point x="334" y="350"/>
			<point x="432" y="350" type="curve" smooth="yes"/>
			<point x="464" y="350"/>
			<point x="492" y="342"/>
			<point x="518" y="333" type="curve"/>
			<point x="491" y="241" type="line" smooth="yes"/>
			<point x="449" y="99"/>
			<point x="422" y="33"/>
		</contour>
	</outline>
</glyph>
<glyph name="A" format="2">
	<unicode hex="0041"/>
	<advance width="668"/>
	<outline>
		<contour>
			<point x="382" y="701" type="line"/>
			<point x="336" y="699" type="line"/>
			<point x="100" y="44" type="line"/>
			<point x="21" y="32" type="line"/>
			<point x="16" y="0" type="line"/>
			<point x="233" y="0" type="line"/>
			<point x="237" y="32" type="line"/>
			<point x="145" y="44" type="line"/>
			<point x="215" y="239" type="line"/>
			<point x="469" y="239" type="line"/>
			<point x="524" y="44" type="line"/>
			<point x="439" y="32" type="line"/>
			<point x="434" y="0" type="line"/>
			<point x="656" y="0" type="line"/>
			<point x="660" y="32" type="line"/>
			<point x="576" y="44" type="line"/>
		</contour>
		<contour>
			<point x="229" y="278" type="line"/>
			<point x="354" y="636" type="line"/>
			<point x="355" y="636" type="line"/>
			<point x="457" y="278" type="line"/>
		</contour>
	</outline>
	<anchor name="bottom" x="332" y="-30"/>
	<anchor name="top" x="361" y="730"/>
</glyph>
<glyph name="F" format="2">
	<unicode hex="0046"/>
	<advance width="539"/>
	<outline>
		<contour>
			<point x="54" y="32" type="line"/>
			<point x="50" y="0" type="line"/>
			<point x="311" y="0" type="line"/>
			<point x="314" y="33" type="line"/>
			<point x="186" y="45" type="line"/>
			<point x="198" y="332" type="line"/>
			<point x="460" y="332" type="line"/>
			<point x="463" y="372" type="line"/>
			<point x="199" y="372" type="line"/>
			<point x="210" y="661" type="line"/>
			<point x="384" y="661" type="line" smooth="yes"/>
			<point x="438" y="661"/>
			<point x="462" y="655"/>
			<point x="479" y="591" type="curve" smooth="yes"/>
			<point x="492" y="542" type="line"/>
			<point x="527" y="547" type="line"/>
			<point x="513" y="700" type="line"/>
			<point x="79" y="700" type="line"/>
			<point x="75" y="668" type="line"/>
			<point x="163" y="655" type="line"/>
			<point x="139" y="46" type="line"/>
		</contour>
	</outline>
</glyph>
<glyph name="H" format="2">
	<unicode hex="0048"/>
	<advance width="717"/>
	<outline>
		<contour>
			<point x="543" y="341" type="line"/>
			<point x="532" y="46" type="line"/>
			<point x="448" y="33" type="line"/>
			<point x="444" y="0" type="line"/>
			<point x="673" y="0" type="line"/>
			<point x="677" y="33" type="line"/>
			<point x="581" y="46" type="line"/>
			<point x="606" y="655" type="line"/>
			<point x="691" y="668" type="line"/>
			<point x="694" y="700" type="line"/>
			<point x="474" y="700" type="line"/>
			<point x="470" y="668" type="line"/>
			<point x="557" y="655" type="line"/>
			<point x="544" y="380" type="line"/>
			<point x="199" y="380" type="line"/>
			<point x="211" y="655" type="line"/>
			<point x="297" y="668" type="line"/>
			<point x="300" y="700" type="line"/>
			<point x="79" y="700" type="line"/>
			<point x="75" y="668" type="line"/>
			<point x="162" y="655" type="line"/>
			<point x="138" y="46" type="line"/>
			<point x="54" y="32" type="line"/>
			<point x="50" y="0" type="line"/>
			<point x="279" y="0" type="line"/>
			<point x="283" y="33" type="line"/>
			<point x="187" y="46" type="line"/>
			<point x="198" y="341" type="line"/>
		</contour>
	</outline>
	<anchor name="bottom" x="359" y="-30"/>
	<anchor name="top" x="383" y="730"/>
</glyph>
<glyph name="J" format="2">
	<unicode hex="004A"/>
	<advance width="311"/>
	<outline>
		<contour>
			<point x="156" y="655" type="line"/>
			<point x="132" y="41" type="line" smooth="yes"/>
			<point x="128" y="-55"/>
			<point x="92" y="-128"/>
			<point x="19" y="-194" type="curve"/>
			<point x="32" y="-224" type="line"/>
			<point x="142" y="-137"/>
			<point x="174" y="-74"/>
			<point x="179" y="45" type="curve" smooth="yes"/>
			<point x="203" y="655" type="line"/>
			<point x="290" y="668" type="line"/>
			<point x="293" y="700" type="line"/>
			<point x="58" y="700" type="line"/>
			<point x="53" y="668" type="line"/>
		</contour>
	</outline>
	<anchor name="top" x="170" y="730"/>
</glyph>
<glyph name="L" format="2">
	<unicode hex="004C"/>
	<advance width="537"/>
	<outline>
		<contour>
			<point x="54" y="32" type="line"/>
			<point x="50" y="0" type="line"/>
			<point x="488" y="0" type="line"/>
			<point x="510" y="157" type="line"/>
			<point x="474" y="157" type="line"/>
			<point x="462" y="114" type="line" smooth="yes"/>
			<point x="441" y="39"/>
			<point x="415" y="39"/>
			<point x="363" y="39" type="curve" smooth="yes"/>
			<point x="186" y="39" type="line"/>
			<point x="210" y="655" type="line"/>
			<point x="317" y="668" type="line"/>
			<point x="321" y="700" type="line"/>
			<point x="79" y="700" type="line"/>
			<point x="75" y="668" type="line"/>
			<point x="163" y="655" type="line"/>
			<point x="139" y="46" type="line"/>
		</contour>
	</outline>
	<anchor name="bottom" x="289" y="-29"/>
	<anchor name="top" x="187" y="730"/>
</glyph>
<glyph name="M" format="2">
	<unicode hex="004D"/>
	<advance width="898"/>
	<outline>
		<contour>
			<point x="714" y="629" type="line"/>
			<point x="736" y="46" type="line"/>
			<point x="652" y="33" type="line"/>
			<point x="648" y="0" type="line"/>
			<point x="876" y="0" type="line"/>
			<point x="880" y="33" type="line"/>
			<point x="784" y="46" type="line"/>
			<point x="761" y="655" type="line"/>
			<point x="850" y="668" type="line"/>
			<point x="853" y="700" type="line"/>
			<point x="691" y="700" type="line"/>
			<point x="461" y="39" type="line"/>
			<point x="253" y="700" type="line"/>
			<point x="100" y="700" type="line"/>
			<point x="95" y="668" type="line"/>
			<point x="181" y="655" type="line"/>
			<point x="135" y="46" type="line"/>
			<point x="50" y="32" type="line"/>
			<point x="46" y="0" type="line"/>
			<point x="273" y="0" type="line"/>
			<point x="277" y="33" type="line"/>
			<point x="181" y="46" type="line"/>
			<point x="225" y="629" type="line"/>
			<point x="428" y="-11" type="line"/>
			<point x="496" y="6" type="line"/>
		</contour>
	</outline>
	<anchor name="bottom" x="459" y="-30"/>
</glyph>
<glyph name="U" format="2">
	<unicode hex="0055"/>
	<advance width="714"/>
	<outline>
		<contour>
			<point x="580" y="46" type="line"/>
			<point x="605" y="656" type="line"/>
			<point x="681" y="662" type="line"/>
			<point x="687" y="700" type="line"/>
			<point x="486" y="700" type="line"/>
			<point x="482" y="668" type="line"/>
			<point x="560" y="655" type="line"/>
			<point x="554" y="552" type="line" smooth="yes"/>
			<point x="535" y="229"/>
			<point x="441" y="31"/>
			<point x="293" y="31" type="curve" smooth="yes"/>
			<point x="205" y="31"/>
			<point x="167" y="94"/>
			<point x="173" y="230" type="curve" smooth="yes"/>
			<point x="192" y="655" type="line"/>
			<point x="278" y="668" type="line"/>
			<point x="281" y="700" type="line"/>
			<point x="70" y="700" type="line"/>
			<point x="66" y="668" type="line"/>
			<point x="143" y="655" type="line"/>
			<point x="126" y="214" type="line" smooth="yes"/>
			<point x="120" y="61"/>
			<point x="183" y="-14"/>
			<point x="288" y="-14" type="curve" smooth="yes"/>
			<point x="418" y="-14"/>
			<point x="519" y="105"/>
			<point x="557" y="348" type="curve"/>
			<point x="564" y="348" type="line"/>
			<point x="526" y="12" type="line"/>
			<point x="533" y="0" type="line"/>
			<point x="662" y="0" type="line"/>
			<point x="665" y="34" type="line"/>
		</contour>
	</outline>
	<anchor name="bottom" x="356" y="-30"/>
	<anchor name="top" x="377" y="730"/>
</glyph>
<glyph name="asciicircum" format="2">
	<unicode hex="005E"/>
	<advance width="554"/>
	<outline>
		<contour>
			<point x="519" y="376" type="line"/>
			<point x="308" y="712" type="line"/>
			<point x="287" y="712" type="line"/>
			<point x="61" y="376" type="line"/>
			<point x="85" y="361" type="line"/>
			<point x="299" y="668" type="line"/>
			<point x="495" y="361" type="line"/>
		</contour>
	</outline>
</glyph>
<glyph name="a" format="2">
	<unicode hex="0061"/>
	<advance width="556"/>
	<outline>
		<contour>
			<point x="439" y="74" type="curve" smooth="yes"/>
			<point x="452" y="506" type="line"/>
			<point x="436" y="513" type="line"/>
			<point x="403" y="493" type="line"/>
			<point x="362" y="508"/>
			<point x="325" y="516"/>
			<point x="280" y="516" type="curve" smooth="yes"/>
			<point x="161" y="516"/>
			<point x="55" y="401"/>
			<point x="55" y="201" type="curve" smooth="yes"/>
			<point x="55" y="81"/>
			<point x="97" y="-14"/>
			<point x="202" y="-14" type="curve" smooth="yes"/>
			<point x="286" y="-14"/>
			<point x="340" y="52"/>
			<point x="371" y="185" type="curve" smooth="yes"/>
			<point x="407" y="341" type="line"/>
			<point x="414" y="340" type="line"/>
			<point x="392" y="71" type="line" smooth="yes"/>
			<point x="387" y="14"/>
			<point x="409" y="-14"/>
			<point x="449" y="-14" type="curve" smooth="yes"/>
			<point x="486" y="-14"/>
			<point x="520" y="6"/>
			<point x="548" y="28" type="curve"/>
			<point x="530" y="55" type="line"/>
			<point x="507" y="39"/>
			<point x="487" y="29"/>
			<point x="464" y="29" type="curve" smooth="yes"/>
			<point x="443" y="29"/>
			<point x="438" y="39"/>
		</contour>
		<contour>
			<point x="205" y="32" type="curve" smooth="yes"/>
			<point x="142" y="32"/>
			<point x="104" y="84"/>
			<point x="104" y="207" type="curve" smooth="yes"/>
			<point x="104" y="371"/>
			<point x="185" y="474"/>
			<point x="285" y="474" type="curve" smooth="yes"/>
			<point x="329" y="474"/>
			<point x="378" y="460"/>
			<point x="405" y="446" type="curve"/>
			<point x="353" y="258" type="line" smooth="yes"/>
			<point x="302" y="74"/>
			<point x="277" y="32"/>
		</contour>
	</outline>
	<anchor name="bottom" x="276" y="-30"/>
	<anchor name="top" x="292" y="550"/>
</glyph>
<glyph name="b" format="2">
	<unicode hex="0062"/>
	<advance width="532"/>
	<outline>
		<contour>
			<point x="252" y="-14" type="curve" smooth="yes"/>
			<point x="367" y="-14"/>
			<point x="478" y="82"/>
			<point x="478" y="305" type="curve" smooth="yes"/>
			<point x="478" y="426"/>
			<point x="443" y="517"/>
			<point x="337" y="517" type="curve" smooth="yes"/>
			<point x="258" y="517"/>
			<point x="202" y="465"/>
			<point x="166" y="323" type="curve" smooth="yes"/>
			<point x="128" y="172" type="line"/>
			<point x="123" y="173" type="line"/>
			<point x="149" y="409" type="line"/>
			<point x="163" y="756" type="line"/>
			<point x="147" y="767" type="line"/>
			<point x="30" y="767" type="line"/>
			<point x="27" y="734" type="line"/>
			<point x="112" y="721" type="line"/>
			<point x="84" y="31" type="line"/>
			<point x="130" y="5"/>
			<point x="198" y="-14"/>
		</contour>
		<contour>
			<point x="332" y="471" type="curve" smooth="yes"/>
			<point x="410" y="471"/>
			<point x="429" y="395"/>
			<point x="429" y="300" type="curve" smooth="yes"/>
			<point x="429" y="129"/>
			<point x="358" y="30"/>
			<point x="251" y="30" type="curve" smooth="yes"/>
			<point x="197" y="30"/>
			<point x="153" y="48"/>
			<point x="131" y="58" type="curve"/>
			<point x="163" y="181" type="line" smooth="yes"/>
			<point x="219" y="397"/>
			<point x="256" y="471"/>
		</contour>
	</outline>
</glyph>
<glyph name="c" format="2">
	<unicode hex="0063"/>
	<advance width="461"/>
	<outline>
		<contour>
			<point x="273" y="517" type="curve" smooth="yes"/>
			<point x="149" y="517"/>
			<point x="55" y="402"/>
			<point x="55" y="225" type="curve" smooth="yes"/>
			<point x="55" y="95"/>
			<point x="110" y="-14"/>
			<point x="233" y="-14" type="curve" smooth="yes"/>
			<point x="306" y="-14"/>
			<point x="361" y="23"/>
			<point x="415" y="81" type="curve"/>
			<point x="391" y="109" type="line"/>
			<point x="338" y="50"/>
			<point x="289" y="29"/>
			<point x="242" y="29" type="curve" smooth="yes"/>
			<point x="156" y="29"/>
			<point x="104" y="93"/>
			<point x="104" y="228" type="curve" smooth="yes"/>
			<point x="104" y="387"/>
			<point x="176" y="479"/>
			<point x="273" y="479" type="curve" smooth="yes"/>
			<point x="336" y="479"/>
			<point x="368" y="450"/>
			<point x="341" y="412" type="curve" smooth="yes"/>
			<point x="332" y="399" type="line"/>
			<point x="340" y="383"/>
			<point x="354" y="373"/>
			<point x="374" y="373" type="curve" smooth="yes"/>
			<point x="399" y="373"/>
			<point x="415" y="389"/>
			<point x="415" y="420" type="curve" smooth="yes"/>
			<point x="415" y="472"/>
			<point x="366" y="517"/>
		</contour>
	</outline>
	<anchor name="bottom" x="240" y="-30"/>
	<anchor name="top" x="259" y="550"/>
</glyph>
<glyph name="e" format="2">
	<unicode hex="0065"/>
	<advance width="454"/>
	<outline>
		<contour>
			<point x="277" y="517" type="curve" smooth="yes"/>
			<point x="144" y="517"/>
			<point x="55" y="384"/>
			<point x="55" y="225" type="curve" smooth="yes"/>
			<point x="55" y="94"/>
			<point x="109" y="-14"/>
			<point x="236" y="-14" type="curve" smooth="yes"/>
			<point x="312" y="-14"/>
			<point x="366" y="24"/>
			<point x="410" y="69" type="curve"/>
			<point x="385" y="96" type="line"/>
			<point x="331" y="45"/>
			<point x="292" y="29"/>
			<point x="243" y="29" type="curve" smooth="yes"/>
			<point x="146" y="29"/>
			<point x="109" y="117"/>
			<point x="105" y="202" type="curve"/>
			<point x="240" y="234" type="line" smooth="yes"/>
			<point x="314" y="252"/>
			<point x="403" y="286"/>
			<point x="403" y="393" type="curve" smooth="yes"/>
			<point x="403" y="462"/>
			<point x="364" y="517"/>
		</contour>
		<contour>
			<point x="354" y="389" type="curve" smooth="yes"/>
			<point x="354" y="328"/>
			<point x="312" y="293"/>
			<point x="245" y="277" type="curve" smooth="yes"/>
			<point x="104" y="243" type="line"/>
			<point x="109" y="378"/>
			<point x="175" y="478"/>
			<point x="276" y="478" type="curve" smooth="yes"/>
			<point x="340" y="478"/>
			<point x="354" y="433"/>
		</contour>
	</outline>
	<anchor name="bottom" x="244" y="-30"/>
	<anchor name="top" x="258" y="550"/>
</glyph>
<glyph name="f" format="2">
	<unicode hex="0066"/>
	<advance width="361"/>
	<outline>
		<contour>
			<point x="306" y="743" type="curve" smooth="yes"/>
			<point x="350" y="743"/>
			<point x="360" y="725"/>
			<point x="350" y="699" type="curve" smooth="yes"/>
			<point x="344" y="683" type="line"/>
			<point x="355" y="670"/>
			<point x="371" y="663"/>
			<point x="390" y="663" type="curve" smooth="yes"/>
			<point x="412" y="663"/>
			<point x="427" y="682"/>
			<point x="427" y="707" type="curve" smooth="yes"/>
			<point x="427" y="747"/>
			<point x="386" y="782"/>
			<point x="308" y="782" type="curve" smooth="yes"/>
			<point x="182" y="782"/>
			<point x="136" y="701"/>
			<point x="128" y="559" type="curve" smooth="yes"/>
			<point x="125" y="503" type="line"/>
			<point x="37" y="495" type="line"/>
			<point x="31" y="460" type="line"/>
			<point x="124" y="460" type="line"/>
			<point x="109" y="23" type="line" smooth="yes"/>
			<point x="107" y="-29"/>
			<point x="102" y="-69"/>
			<point x="98" y="-95" type="curve" smooth="yes"/>
			<point x="88" y="-161"/>
			<point x="61" y="-168"/>
			<point x="24" y="-154" type="curve" smooth="yes"/>
			<point x="-5" y="-143" type="line"/>
			<point x="-18" y="-154"/>
			<point x="-26" y="-168"/>
			<point x="-26" y="-185" type="curve" smooth="yes"/>
			<point x="-26" y="-208"/>
			<point x="-12" y="-229"/>
			<point x="22" y="-229" type="curve" smooth="yes"/>
			<point x="50" y="-229"/>
			<point x="90" y="-204"/>
			<point x="110" y="-167" type="curve" smooth="yes"/>
			<point x="134" y="-122"/>
			<point x="151" y="-66"/>
			<point x="159" y="108" type="curve" smooth="yes"/>
			<point x="176" y="460" type="line"/>
			<point x="339" y="460" type="line"/>
			<point x="342" y="503" type="line"/>
			<point x="175" y="503" type="line"/>
			<point x="180" y="602" type="line" smooth="yes"/>
			<point x="184" y="688"/>
			<point x="223" y="743"/>
		</contour>
	</outline>
</glyph>
<glyph name="g" format="2">
	<unicode hex="0067"/>
	<advance width="533"/>
	<outline>
		<contour>
			<point x="412" y="340" type="line"/>
			<point x="386" y="63" type="line" smooth="yes"/>
			<point x="368" y="-131"/>
			<point x="288" y="-190"/>
			<point x="206" y="-190" type="curve" smooth="yes"/>
			<point x="138" y="-190"/>
			<point x="120" y="-172"/>
			<point x="132" y="-133" type="curve" smooth="yes"/>
			<point x="138" y="-113" type="line"/>
			<point x="128" y="-102"/>
			<point x="116" y="-93"/>
			<point x="98" y="-93" type="curve" smooth="yes"/>
			<point x="72" y="-93"/>
			<point x="56" y="-110"/>
			<point x="56" y="-142" type="curve" smooth="yes"/>
			<point x="56" y="-191"/>
			<point x="101" y="-230"/>
			<point x="201" y="-230" type="curve" smooth="yes"/>
			<point x="318" y="-230"/>
			<point x="421" y="-136"/>
			<point x="432" y="96" type="curve" smooth="yes"/>
			<point x="452" y="506" type="line"/>
			<point x="436" y="513" type="line"/>
			<point x="402" y="493" type="line"/>
			<point x="362" y="508"/>
			<point x="325" y="516"/>
			<point x="281" y="516" type="curve" smooth="yes"/>
			<point x="161" y="516"/>
			<point x="55" y="401"/>
			<point x="55" y="201" type="curve" smooth="yes"/>
			<point x="55" y="86"/>
			<point x="97" y="-9"/>
			<point x="202" y="-9" type="curve" smooth="yes"/>
			<point x="287" y="-9"/>
			<point x="343" y="57"/>
			<point x="380" y="222" type="curve" smooth="yes"/>
			<point x="407" y="341" type="line"/>
		</contour>
		<contour>
			<point x="205" y="37" type="curve" smooth="yes"/>
			<point x="142" y="37"/>
			<point x="104" y="89"/>
			<point x="104" y="207" type="curve" smooth="yes"/>
			<point x="104" y="370"/>
			<point x="185" y="474"/>
			<point x="285" y="474" type="curve" smooth="yes"/>
			<point x="329" y="474"/>
			<point x="376" y="460"/>
			<point x="403" y="446" type="curve"/>
			<point x="354" y="265" type="line" smooth="yes"/>
			<point x="309" y="99"/>
			<point x="283" y="37"/>
		</contour>
	</outline>
	<anchor name="top" x="274" y="550"/>
</glyph>
<glyph name="j" format="2">
	<unicode hex="006A"/>
	<advance width="280"/>
	<outline>
		<contour>
			<point x="170" y="93" type="curve" smooth="yes"/>
			<point x="186" y="409" type="line"/>
			<point x="191" y="485"/>
			<point x="183" y="517"/>
			<point x="130" y="517" type="curve" smooth="yes"/>
			<point x="103" y="517"/>
			<point x="54" y="502"/>
			<point x="29" y="488" type="curve"/>
			<point x="41" y="454" type="line"/>
			<point x="69" y="466"/>
			<point x="92" y="473"/>
			<point x="111" y="473" type="curve" smooth="yes"/>
			<point x="132" y="473"/>
			<point x="138" y="458"/>
			<point x="136" y="421" type="curve" smooth="yes"/>
			<point x="114" y="19" type="line" smooth="yes"/>
			<point x="114" y="14"/>
			<point x="110" y="-59"/>
			<point x="105" y="-90" type="curve" smooth="yes"/>
			<point x="95" y="-167"/>
			<point x="59" y="-175"/>
			<point x="31" y="-160" type="curve" smooth="yes"/>
			<point x="1" y="-144" type="line"/>
			<point x="-11" y="-157"/>
			<point x="-20" y="-171"/>
			<point x="-20" y="-189" type="curve" smooth="yes"/>
			<point x="-20" y="-212"/>
			<point x="-4" y="-229"/>
			<point x="28" y="-229" type="curve" smooth="yes"/>
			<point x="61" y="-229"/>
			<point x="85" y="-214"/>
			<point x="109" y="-178" type="curve" smooth="yes"/>
			<point x="139" y="-134"/>
			<point x="162" y="-73"/>
		</contour>
		<contour>
			<point x="106" y="683" type="curve" smooth="yes"/>
			<point x="106" y="656"/>
			<point x="123" y="637"/>
			<point x="147" y="637" type="curve" smooth="yes"/>
			<point x="175" y="637"/>
			<point x="190" y="661"/>
			<point x="190" y="687" type="curve" smooth="yes"/>
			<point x="190" y="716"/>
			<point x="176" y="734"/>
			<point x="148" y="734" type="curve" smooth="yes"/>
			<point x="123" y="734"/>
			<point x="106" y="712"/>
		</contour>
	</outline>
</glyph>
<glyph name="k" format="2">
	<unicode hex="006B"/>
	<advance width="515"/>
	<outline>
		<contour>
			<point x="117" y="721" type="line"/>
			<point x="86" y="0" type="line"/>
			<point x="134" y="0" type="line"/>
			<point x="145" y="240" type="line"/>
			<point x="170" y="247"/>
			<point x="196" y="255"/>
			<point x="223" y="265" type="curve"/>
			<point x="330" y="65" type="line" smooth="yes"/>
			<point x="361" y="7"/>
			<point x="385" y="-14"/>
			<point x="425" y="-14" type="curve" smooth="yes"/>
			<point x="468" y="-14"/>
			<point x="498" y="8"/>
			<point x="517" y="26" type="curve"/>
			<point x="499" y="53" type="line"/>
			<point x="476" y="37"/>
			<point x="460" y="30"/>
			<point x="441" y="30" type="curve" smooth="yes"/>
			<point x="409" y="30"/>
			<point x="390" y="55"/>
			<point x="372" y="89" type="curve" smooth="yes"/>
			<point x="268" y="286" type="line"/>
			<point x="278" y="290"/>
			<point x="310" y="306"/>
			<point x="344" y="327" type="curve" smooth="yes"/>
			<point x="408" y="366"/>
			<point x="437" y="413"/>
			<point x="437" y="459" type="curve" smooth="yes"/>
			<point x="437" y="497"/>
			<point x="416" y="516"/>
			<point x="386" y="516" type="curve" smooth="yes"/>
			<point x="362" y="516"/>
			<point x="346" y="499"/>
			<point x="340" y="470" type="curve"/>
			<point x="360" y="459" type="line" smooth="yes"/>
			<point x="399" y="438"/>
			<point x="387" y="400"/>
			<point x="323" y="357" type="curve" smooth="yes"/>
			<point x="276" y="325"/>
			<point x="206" y="297"/>
			<point x="147" y="282" type="curve"/>
			<point x="168" y="756" type="line"/>
			<point x="152" y="767" type="line"/>
			<point x="35" y="767" type="line"/>
			<point x="32" y="734" type="line"/>
		</contour>
	</outline>
	<anchor name="bottom" x="247" y="-30"/>
	<anchor name="top" x="106" y="780"/>
</glyph>
<glyph name="l" format="2">
	<unicode hex="006C"/>
	<advance width="267"/>
	<outline>
		<contour>
			<point x="117" y="721" type="line"/>
			<point x="92" y="79" type="line" smooth="yes"/>
			<point x="90" y="19"/>
			<point x="103" y="-14"/>
			<point x="150" y="-14" type="curve" smooth="yes"/>
			<point x="188" y="-14"/>
			<point x="225" y="7"/>
			<point x="249" y="28" type="curve"/>
			<point x="231" y="56" type="line"/>
			<point x="206" y="39"/>
			<point x="187" y="30"/>
			<point x="166" y="30" type="curve" smooth="yes"/>
			<point x="147" y="30"/>
			<point x="138" y="38"/>
			<point x="139" y="68" type="curve" smooth="yes"/>
			<point x="168" y="756" type="line"/>
			<point x="152" y="767" type="line"/>
			<point x="35" y="767" type="line"/>
			<point x="32" y="734" type="line"/>
		</contour>
	</outline>
	<anchor name="bottom" x="145" y="-30"/>
	<anchor name="top" x="106" y="780"/>
</glyph>
<glyph name="m" format="2">
	<unicode hex="006D"/>
	<advance width="844"/>
	<outline>
		<contour>
			<point x="409" y="370" type="curve" smooth="yes"/>
			<point x="382" y="0" type="line"/>
			<point x="423" y="0" type="line"/>
			<point x="541" y="337" type="line" smooth="yes"/>
			<point x="582" y="454"/>
			<point x="597" y="474"/>
			<point x="642" y="474" type="curve" smooth="yes"/>
			<point x="686" y="474"/>
			<point x="702" y="447"/>
			<point x="695" y="369" type="curve" smooth="yes"/>
			<point x="666" y="61" type="line" smooth="yes"/>
			<point x="661" y="9"/>
			<point x="684" y="-14"/>
			<point x="724" y="-14" type="curve" smooth="yes"/>
			<point x="761" y="-14"/>
			<point x="804" y="9"/>
			<point x="827" y="30" type="curve"/>
			<point x="808" y="58" type="line"/>
			<point x="780" y="38"/>
			<point x="760" y="30"/>
			<point x="740" y="30" type="curve" smooth="yes"/>
			<point x="713" y="30"/>
			<point x="713" y="42"/>
			<point x="715" y="67" type="curve" smooth="yes"/>
			<point x="743" y="365" type="line" smooth="yes"/>
			<point x="752" y="458"/>
			<point x="732" y="517"/>
			<point x="648" y="517" type="curve" smooth="yes"/>
			<point x="574" y="517"/>
			<point x="541" y="476"/>
			<point x="506" y="359" type="curve" smooth="yes"/>
			<point x="432" y="113" type="line"/>
			<point x="424" y="115" type="line"/>
			<point x="451" y="343" type="line" smooth="yes"/>
			<point x="465" y="464"/>
			<point x="428" y="516"/>
			<point x="354" y="516" type="curve" smooth="yes"/>
			<point x="280" y="516"/>
			<point x="246" y="475"/>
			<point x="217" y="368" type="curve" smooth="yes"/>
			<point x="147" y="113" type="line"/>
			<point x="141" y="115" type="line"/>
			<point x="168" y="415" type="line" smooth="yes"/>
			<point x="174" y="483"/>
			<point x="163" y="517"/>
			<point x="112" y="517" type="curve" smooth="yes"/>
			<point x="84" y="517"/>
			<point x="33" y="500"/>
			<point x="12" y="488" type="curve"/>
			<point x="24" y="455" type="line"/>
			<point x="55" y="467"/>
			<point x="77" y="474"/>
			<point x="92" y="474" type="curve" smooth="yes"/>
			<point x="115" y="474"/>
			<point x="120" y="458"/>
			<point x="119" y="431" type="curve" smooth="yes"/>
			<point x="102" y="0" type="line"/>
			<point x="142" y="0" type="line"/>
			<point x="252" y="342" type="line" smooth="yes"/>
			<point x="282" y="436"/>
			<point x="299" y="473"/>
			<point x="349" y="473" type="curve" smooth="yes"/>
			<point x="393" y="473"/>
			<point x="414" y="442"/>
		</contour>
	</outline>
	<anchor name="bottom" x="407" y="-30"/>
</glyph>
<glyph name="n" format="2">
	<unicode hex="006E"/>
	<advance width="581"/>
	<outline>
		<contour>
			<point x="564" y="30" type="curve"/>
			<point x="545" y="58" type="line"/>
			<point x="517" y="38"/>
			<point x="497" y="30"/>
			<point x="477" y="30" type="curve" smooth="yes"/>
			<point x="451" y="30"/>
			<point x="450" y="42"/>
			<point x="452" y="67" type="curve" smooth="yes"/>
			<point x="480" y="364" type="line" smooth="yes"/>
			<point x="489" y="458"/>
			<point x="472" y="517"/>
			<point x="388" y="517" type="curve" smooth="yes"/>
			<point x="316" y="517"/>
			<point x="278" y="474"/>
			<point x="238" y="360" type="curve" smooth="yes"/>
			<point x="151" y="113" type="line"/>
			<point x="145" y="114" type="line"/>
			<point x="168" y="415" type="line" smooth="yes"/>
			<point x="173" y="483"/>
			<point x="163" y="517"/>
			<point x="112" y="517" type="curve" smooth="yes"/>
			<point x="84" y="517"/>
			<point x="33" y="500"/>
			<point x="12" y="488" type="curve"/>
			<point x="24" y="455" type="line"/>
			<point x="55" y="467"/>
			<point x="77" y="474"/>
			<point x="92" y="474" type="curve" smooth="yes"/>
			<point x="115" y="474"/>
			<point x="120" y="458"/>
			<point x="119" y="431" type="curve" smooth="yes"/>
			<point x="102" y="0" type="line"/>
			<point x="142" y="0" type="line"/>
			<point x="272" y="336" type="line" smooth="yes"/>
			<point x="318" y="454"/>
			<point x="334" y="474"/>
			<point x="383" y="474" type="curve" smooth="yes"/>
			<point x="425" y="474"/>
			<point x="439" y="447"/>
			<point x="432" y="369" type="curve" smooth="yes"/>
			<point x="403" y="61" type="line" smooth="yes"/>
			<point x="398" y="9"/>
			<point x="422" y="-14"/>
			<point x="461" y="-14" type="curve" smooth="yes"/>
			<point x="498" y="-14"/>
			<point x="541" y="9"/>
		</contour>
	</outline>
	<anchor name="bottom" x="281" y="-30"/>
	<anchor name="top" x="296" y="550"/>
</glyph>
<glyph name="o" format="2">
	<unicode hex="006F"/>
	<advance width="519"/>
	<outline>
		<contour>
			<point x="241" y="-14" type="curve" smooth="yes"/>
			<point x="401" y="-14"/>
			<point x="464" y="122"/>
			<point x="464" y="274" type="curve" smooth="yes"/>
			<point x="464" y="429"/>
			<point x="383" y="517"/>
			<point x="277" y="517" type="curve" smooth="yes"/>
			<point x="117" y="517"/>
			<point x="56" y="390"/>
			<point x="56" y="235" type="curve" smooth="yes"/>
			<point x="56" y="84"/>
			<point x="123" y="-14"/>
		</contour>
		<contour>
			<point x="247" y="25" type="curve" smooth="yes"/>
			<point x="153" y="25"/>
			<point x="105" y="106"/>
			<point x="105" y="229" type="curve" smooth="yes"/>
			<point x="105" y="365"/>
			<point x="141" y="479"/>
			<point x="266" y="479" type="curve" smooth="yes"/>
			<point x="375" y="479"/>
			<point x="415" y="394"/>
			<point x="415" y="275" type="curve" smooth="yes"/>
			<point x="415" y="145"/>
			<point x="374" y="25"/>
		</contour>
	</outline>
	<anchor name="bottom" x="244" y="-30"/>
	<anchor name="top" x="265" y="550"/>
</glyph>
<glyph name="s" format="2">
	<unicode hex="0073"/>
	<advance width="411"/>
	<outline>
		<contour>
			<point x="198" y="22" type="curve" smooth="yes"/>
			<point x="130" y="22"/>
			<point x="111" y="39"/>
			<point x="113" y="73" type="curve" smooth="yes"/>
			<point x="115" y="108" type="line"/>
			<point x="106" y="113"/>
			<point x="93" y="117"/>
			<point x="81" y="117" type="curve" smooth="yes"/>
			<point x="58" y="117"/>
			<point x="40" y="106"/>
			<point x="40" y="78" type="curve" smooth="yes"/>
			<point x="40" y="25"/>
			<point x="102" y="-14"/>
			<point x="189" y="-14" type="curve" smooth="yes"/>
			<point x="300" y="-14"/>
			<point x="360" y="57"/>
			<point x="360" y="144" type="curve" smooth="yes"/>
			<point x="360" y="227"/>
			<point x="289" y="257"/>
			<point x="221" y="285" type="curve" smooth="yes"/>
			<point x="155" y="312"/>
			<point x="120" y="335"/>
			<point x="120" y="387" type="curve" smooth="yes"/>
			<point x="120" y="434"/>
			<point x="147" y="481"/>
			<point x="234" y="481" type="curve" smooth="yes"/>
			<point x="284" y="481"/>
			<point x="302" y="461"/>
			<point x="297" y="436" type="curve" smooth="yes"/>
			<point x="290" y="403" type="line"/>
			<point x="299" y="396"/>
			<point x="311" y="392"/>
			<point x="325" y="392" type="curve" smooth="yes"/>
			<point x="349" y="392"/>
			<point x="364" y="404"/>
			<point x="364" y="430" type="curve" smooth="yes"/>
			<point x="364" y="475"/>
			<point x="315" y="517"/>
			<point x="238" y="517" type="curve" smooth="yes"/>
			<point x="114" y="517"/>
			<point x="75" y="442"/>
			<point x="75" y="381" type="curve" smooth="yes"/>
			<point x="75" y="303"/>
			<point x="138" y="273"/>
			<point x="200" y="247" type="curve" smooth="yes"/>
			<point x="275" y="216"/>
			<point x="316" y="198"/>
			<point x="316" y="140" type="curve" smooth="yes"/>
			<point x="316" y="60"/>
			<point x="262" y="22"/>
		</contour>
	</outline>
	<anchor name="bottom" x="196" y="-30"/>
	<anchor name="top" x="226" y="550"/>
</glyph>
<glyph name="u" format="2">
	<unicode hex="0075"/>
	<advance width="575"/>
	<outline>
		<contour>
			<point x="11" y="473" type="curve"/>
			<point x="30" y="445" type="line"/>
			<point x="58" y="465"/>
			<point x="78" y="473"/>
			<point x="98" y="473" type="curve" smooth="yes"/>
			<point x="124" y="473"/>
			<point x="125" y="461"/>
			<point x="123" y="436" type="curve" smooth="yes"/>
			<point x="95" y="139" type="line" smooth="yes"/>
			<point x="86" y="45"/>
			<point x="103" y="-14"/>
			<point x="187" y="-14" type="curve" smooth="yes"/>
			<point x="259" y="-14"/>
			<point x="297" y="29"/>
			<point x="337" y="143" type="curve" smooth="yes"/>
			<point x="424" y="390" type="line"/>
			<point x="430" y="389" type="line"/>
			<point x="407" y="88" type="line" smooth="yes"/>
			<point x="402" y="20"/>
			<point x="412" y="-14"/>
			<point x="463" y="-14" type="curve" smooth="yes"/>
			<point x="491" y="-14"/>
			<point x="542" y="3"/>
			<point x="563" y="15" type="curve"/>
			<point x="551" y="48" type="line"/>
			<point x="520" y="36"/>
			<point x="498" y="29"/>
			<point x="483" y="29" type="curve" smooth="yes"/>
			<point x="460" y="29"/>
			<point x="455" y="45"/>
			<point x="456" y="72" type="curve" smooth="yes"/>
			<point x="473" y="503" type="line"/>
			<point x="433" y="503" type="line"/>
			<point x="303" y="167" type="line" smooth="yes"/>
			<point x="257" y="49"/>
			<point x="240" y="29"/>
			<point x="192" y="29" type="curve" smooth="yes"/>
			<point x="150" y="29"/>
			<point x="136" y="56"/>
			<point x="143" y="134" type="curve" smooth="yes"/>
			<point x="172" y="442" type="line" smooth="yes"/>
			<point x="177" y="494"/>
			<point x="154" y="517"/>
			<point x="115" y="517" type="curve" smooth="yes"/>
			<point x="77" y="517"/>
			<point x="34" y="494"/>
		</contour>
	</outline>
	<anchor name="bottom" x="282" y="-30"/>
	<anchor name="top" x="275" y="550"/>
</glyph>
<glyph name="v" format="2">
	<unicode hex="0076"/>
	<advance width="537"/>
	<outline>
		<contour>
			<point x="408" y="517" type="curve" smooth="yes"/>
			<point x="372" y="517"/>
			<point x="361" y="486"/>
			<point x="359" y="453" type="curve"/>
			<point x="389" y="443" type="line" smooth="yes"/>
			<point x="428" y="430"/>
			<point x="431" y="415"/>
			<point x="427" y="346" type="curve" smooth="yes"/>
			<point x="420" y="220"/>
			<point x="357" y="28"/>
			<point x="229" y="28" type="curve" smooth="yes"/>
			<point x="163" y="28"/>
			<point x="154" y="76"/>
			<point x="157" y="147" type="curve" smooth="yes"/>
			<point x="170" y="441" type="line" smooth="yes"/>
			<point x="172" y="483"/>
			<point x="154" y="516"/>
			<point x="108" y="516" type="curve" smooth="yes"/>
			<point x="80" y="516"/>
			<point x="36" y="500"/>
			<point x="13" y="487" type="curve"/>
			<point x="26" y="454" type="line"/>
			<point x="55" y="464" type="line" smooth="yes"/>
			<point x="103" y="481"/>
			<point x="122" y="471"/>
			<point x="121" y="429" type="curve" smooth="yes"/>
			<point x="108" y="149" type="line" smooth="yes"/>
			<point x="102" y="18"/>
			<point x="154" y="-14"/>
			<point x="225" y="-14" type="curve" smooth="yes"/>
			<point x="418" y="-14"/>
			<point x="477" y="260"/>
			<point x="477" y="393" type="curve" smooth="yes"/>
			<point x="477" y="466"/>
			<point x="456" y="517"/>
		</contour>
	</outline>
	<anchor name="top" x="274" y="550"/>
</glyph>
<glyph name="w" format="2">
	<unicode hex="0077"/>
	<advance width="798"/>
	<outline>
		<contour>
			<point x="436" y="503" type="curve"/>
			<point x="384" y="493" type="line"/>
			<point x="393" y="448"/>
			<point x="396" y="407"/>
			<point x="396" y="366" type="curve" smooth="yes"/>
			<point x="396" y="169"/>
			<point x="348" y="28"/>
			<point x="229" y="28" type="curve" smooth="yes"/>
			<point x="163" y="28"/>
			<point x="154" y="76"/>
			<point x="157" y="147" type="curve" smooth="yes"/>
			<point x="170" y="441" type="line" smooth="yes"/>
			<point x="172" y="483"/>
			<point x="154" y="516"/>
			<point x="108" y="516" type="curve" smooth="yes"/>
			<point x="80" y="516"/>
			<point x="36" y="500"/>
			<point x="13" y="487" type="curve"/>
			<point x="26" y="454" type="line"/>
			<point x="55" y="464" type="line" smooth="yes"/>
			<point x="103" y="481"/>
			<point x="122" y="471"/>
			<point x="121" y="429" type="curve" smooth="yes"/>
			<point x="108" y="149" type="line" smooth="yes"/>
			<point x="102" y="18"/>
			<point x="154" y="-14"/>
			<point x="225" y="-14" type="curve" smooth="yes"/>
			<point x="307" y="-14"/>
			<point x="358" y="42"/>
			<point x="389" y="102" type="curve"/>
			<point x="388" y="28"/>
			<point x="425" y="-14"/>
			<point x="490" y="-14" type="curve" smooth="yes"/>
			<point x="680" y="-14"/>
			<point x="738" y="260"/>
			<point x="738" y="393" type="curve" smooth="yes"/>
			<point x="738" y="490"/>
			<point x="711" y="517"/>
			<point x="669" y="517" type="curve" smooth="yes"/>
			<point x="633" y="517"/>
			<point x="622" y="486"/>
			<point x="620" y="453" type="curve"/>
			<point x="650" y="443" type="line" smooth="yes"/>
			<point x="689" y="430"/>
			<point x="692" y="416"/>
			<point x="688" y="346" type="curve" smooth="yes"/>
			<point x="681" y="220"/>
			<point x="618" y="26"/>
			<point x="498" y="26" type="curve" smooth="yes"/>
			<point x="435" y="26"/>
			<point x="418" y="69"/>
			<point x="428" y="152" type="curve" smooth="yes"/>
			<point x="435" y="209"/>
			<point x="447" y="305"/>
			<point x="447" y="380" type="curve" smooth="yes"/>
			<point x="447" y="427"/>
			<point x="444" y="465"/>
		</contour>
	</outline>
	<anchor name="top" x="400" y="550"/>
</glyph>
<glyph name="y" format="2">
	<unicode hex="0079"/>
	<advance width="519"/>
	<outline>
		<contour>
			<point x="269" y="-94" type="curve" smooth="yes"/>
			<point x="407" y="226" type="line" smooth="yes"/>
			<point x="461" y="352"/>
			<point x="479" y="399"/>
			<point x="479" y="441" type="curve" smooth="yes"/>
			<point x="479" y="483"/>
			<point x="460" y="517"/>
			<point x="418" y="517" type="curve" smooth="yes"/>
			<point x="382" y="517"/>
			<point x="368" y="488"/>
			<point x="371" y="453" type="curve"/>
			<point x="402" y="441" type="line" smooth="yes"/>
			<point x="442" y="426"/>
			<point x="426" y="387"/>
			<point x="407" y="341" type="curve" smooth="yes"/>
			<point x="284" y="44" type="line"/>
			<point x="269" y="44" type="line" smooth="yes"/>
			<point x="240" y="44"/>
			<point x="227" y="44"/>
			<point x="196" y="101" type="curve" smooth="yes"/>
			<point x="170" y="149"/>
			<point x="162" y="216"/>
			<point x="162" y="348" type="curve" smooth="yes"/>
			<point x="162" y="392"/>
			<point x="164" y="415"/>
			<point x="165" y="442" type="curve" smooth="yes"/>
			<point x="167" y="484"/>
			<point x="150" y="517"/>
			<point x="103" y="517" type="curve" smooth="yes"/>
			<point x="75" y="517"/>
			<point x="31" y="501"/>
			<point x="8" y="488" type="curve"/>
			<point x="21" y="455" type="line"/>
			<point x="41" y="462"/>
			<point x="64" y="472"/>
			<point x="87" y="472" type="curve" smooth="yes"/>
			<point x="108" y="472"/>
			<point x="117" y="460"/>
			<point x="116" y="430" type="curve" smooth="yes"/>
			<point x="115" y="409"/>
			<point x="113" y="378"/>
			<point x="113" y="346" type="curve" smooth="yes"/>
			<point x="113" y="222"/>
			<point x="124" y="127"/>
			<point x="163" y="63" type="curve" smooth="yes"/>
			<point x="193" y="13"/>
			<point x="227" y="0"/>
			<point x="256" y="0" type="curve" smooth="yes"/>
			<point x="266" y="0" type="line"/>
			<point x="243" y="-53" type="line" smooth="yes"/>
			<point x="202" y="-148"/>
			<point x="178" y="-180"/>
			<point x="136" y="-180" type="curve" smooth="yes"/>
			<point x="119" y="-180"/>
			<point x="109" y="-172"/>
			<point x="90" y="-139" type="curve" smooth="yes"/>
			<point x="75" y="-113" type="line"/>
			<point x="43" y="-121"/>
			<point x="29" y="-141"/>
			<point x="29" y="-166" type="curve" smooth="yes"/>
			<point x="29" y="-201"/>
			<point x="59" y="-229"/>
			<point x="112" y="-229" type="curve" smooth="yes"/>
			<point x="187" y="-229"/>
			<point x="232" y="-180"/>
		</contour>
	</outline>
	<anchor name="bottom" x="377" y="-30"/>
	<anchor name="top" x="262" y="550"/>
</glyph>
<glyph name="asciitilde" format="2">
	<unicode hex="007E"/>
	<advance width="570"/>
	<outline>
		<contour>
			<point x="462" y="241" type="curve" smooth="yes"/>
			<point x="500" y="241"/>
			<point x="521" y="253"/>
			<point x="543" y="302" type="curve"/>
			<point x="515" y="314" type="line"/>
			<point x="503" y="292"/>
			<point x="492" y="278"/>
			<point x="468" y="278" type="curve" smooth="yes"/>
			<point x="397" y="278"/>
			<point x="255" y="323"/>
			<point x="191" y="323" type="curve" smooth="yes"/>
			<point x="153" y="323"/>
			<point x="132" y="311"/>
			<point x="110" y="262" type="curve"/>
			<point x="138" y="250" type="line"/>
			<point x="150" y="272"/>
			<point x="161" y="286"/>
			<point x="185" y="286" type="curve" smooth="yes"/>
			<point x="258" y="286"/>
			<point x="394" y="241"/>
		</contour>
	</outline>
</glyph>
<glyph name="cent" format="2">
	<unicode hex="00A2"/>
	<advance width="461"/>
	<outline>
		<contour>
			<point x="163" y="-23" type="line"/>
			<point x="203" y="-23" type="line"/>
			<point x="215" y="45" type="line"/>
			<point x="222" y="44"/>
			<point x="228" y="44"/>
			<point x="235" y="44" type="curve" smooth="yes"/>
			<point x="308" y="44"/>
			<point x="363" y="81"/>
			<point x="417" y="139" type="curve"/>
			<point x="393" y="167" type="line"/>
			<point x="340" y="108"/>
			<point x="291" y="87"/>
			<point x="244" y="87" type="curve" smooth="yes"/>
			<point x="237" y="87"/>
			<point x="230" y="87"/>
			<point x="223" y="88" type="curve"/>
			<point x="302" y="535" type="line"/>
			<point x="347" y="528"/>
			<point x="366" y="502"/>
			<point x="343" y="470" type="curve" smooth="yes"/>
			<point x="334" y="457" type="line"/>
			<point x="342" y="441"/>
			<point x="356" y="431"/>
			<point x="376" y="431" type="curve" smooth="yes"/>
			<point x="401" y="431"/>
			<point x="417" y="447"/>
			<point x="417" y="478" type="curve" smooth="yes"/>
			<point x="417" y="523"/>
			<point x="380" y="563"/>
			<point x="309" y="573" type="curve"/>
			<point x="321" y="641" type="line"/>
			<point x="281" y="641" type="line"/>
			<point x="269" y="575" type="line"/>
			<point x="148" y="571"/>
			<point x="57" y="457"/>
			<point x="57" y="283" type="curve" smooth="yes"/>
			<point x="57" y="176"/>
			<point x="94" y="83"/>
			<point x="177" y="54" type="curve"/>
		</contour>
		<contour>
			<point x="185" y="100" type="line"/>
			<point x="135" y="125"/>
			<point x="106" y="186"/>
			<point x="106" y="286" type="curve" smooth="yes"/>
			<point x="106" y="438"/>
			<point x="172" y="529"/>
			<point x="262" y="536" type="curve"/>
		</contour>
	</outline>
</glyph>
<glyph name="currency" format="2">
	<unicode hex="00A4"/>
	<advance width="509"/>
	<outline>
		<contour>
			<point x="84" y="318" type="curve" smooth="yes"/>
			<point x="84" y="282"/>
			<point x="95" y="245"/>
			<point x="118" y="215" type="curve"/>
			<point x="53" y="135" type="line"/>
			<point x="73" y="115" type="line"/>
			<point x="155" y="179" type="line"/>
			<point x="180" y="161"/>
			<point x="212" y="150"/>
			<point x="251" y="150" type="curve" smooth="yes"/>
			<point x="291" y="150"/>
			<point x="325" y="161"/>
			<point x="352" y="180" type="curve"/>
			<point x="436" y="114" type="line"/>
			<point x="456" y="134" type="line"/>
			<point x="389" y="216" type="line"/>
			<point x="413" y="248"/>
			<point x="426" y="289"/>
			<point x="426" y="330" type="curve" smooth="yes"/>
			<point x="426" y="368"/>
			<point x="415" y="405"/>
			<point x="394" y="435" type="curve"/>
			<point x="457" y="513" type="line"/>
			<point x="437" y="534" type="line"/>
			<point x="358" y="471" type="line"/>
			<point x="332" y="490"/>
			<point x="300" y="501"/>
			<point x="262" y="501" type="curve" smooth="yes"/>
			<point x="218" y="501"/>
			<point x="181" y="488"/>
			<point x="152" y="466" type="curve"/>
			<point x="72" y="529" type="line"/>
			<point x="52" y="509" type="line"/>
			<point x="117" y="429" type="line"/>
			<point x="95" y="398"/>
			<point x="84" y="359"/>
		</contour>
		<contour>
			<point x="130" y="326" type="curve" smooth="yes"/>
			<point x="130" y="409"/>
			<point x="182" y="460"/>
			<point x="254" y="460" type="curve" smooth="yes"/>
			<point x="340" y="460"/>
			<point x="379" y="405"/>
			<point x="379" y="324" type="curve" smooth="yes"/>
			<point x="379" y="253"/>
			<point x="330" y="191"/>
			<point x="260" y="191" type="curve" smooth="yes"/>
			<point x="172" y="191"/>
			<point x="130" y="253"/>
		</contour>
	</outline>
</glyph>
<glyph name="yen" format="2">
	<unicode hex="00A5"/>
	<advance width="647"/>
	<outline>
		<contour>
			<point x="213" y="0" type="line"/>
			<point x="443" y="0" type="line"/>
			<point x="446" y="33" type="line"/>
			<point x="349" y="45" type="line"/>
			<point x="355" y="212" type="line"/>
			<point x="560" y="212" type="line"/>
			<point x="563" y="247" type="line"/>
			<point x="357" y="247" type="line"/>
			<point x="357" y="256" type="line"/>
			<point x="405" y="340" type="line"/>
			<point x="560" y="340" type="line"/>
			<point x="563" y="377" type="line"/>
			<point x="426" y="377" type="line"/>
			<point x="586" y="656" type="line"/>
			<point x="665" y="668" type="line"/>
			<point x="670" y="700" type="line"/>
			<point x="450" y="700" type="line"/>
			<point x="446" y="668" type="line"/>
			<point x="538" y="656" type="line"/>
			<point x="338" y="299" type="line"/>
			<point x="334" y="299" type="line"/>
			<point x="149" y="656" type="line"/>
			<point x="234" y="668" type="line"/>
			<point x="239" y="700" type="line"/>
			<point x="17" y="700" type="line"/>
			<point x="13" y="668" type="line"/>
			<point x="97" y="656" type="line"/>
			<point x="244" y="377" type="line"/>
			<point x="99" y="377" type="line"/>
			<point x="94" y="342" type="line"/>
			<point x="263" y="342" type="line"/>
			<point x="310" y="252" type="line"/>
			<point x="310" y="247" type="line"/>
			<point x="96" y="247" type="line"/>
			<point x="91" y="212" type="line"/>
			<point x="308" y="212" type="line"/>
			<point x="302" y="46" type="line"/>
			<point x="217" y="32" type="line"/>
		</contour>
	</outline>
</glyph>
<glyph name="section" format="2">
	<unicode hex="00A7"/>
	<advance width="582"/>
	<outline>
		<contour>
			<point x="508" y="196" type="curve" smooth="yes"/>
			<point x="508" y="352"/>
			<point x="208" y="414"/>
			<point x="208" y="559" type="curve" smooth="yes"/>
			<point x="208" y="621"/>
			<point x="257" y="673"/>
			<point x="326" y="673" type="curve" smooth="yes"/>
			<point x="404" y="673"/>
			<point x="429" y="639"/>
			<point x="411" y="605" type="curve" smooth="yes"/>
			<point x="398" y="580" type="line"/>
			<point x="409" y="567"/>
			<point x="424" y="557"/>
			<point x="447" y="557" type="curve" smooth="yes"/>
			<point x="474" y="557"/>
			<point x="490" y="574"/>
			<point x="490" y="606" type="curve" smooth="yes"/>
			<point x="490" y="661"/>
			<point x="421" y="715"/>
			<point x="332" y="715" type="curve" smooth="yes"/>
			<point x="226" y="715"/>
			<point x="159" y="639"/>
			<point x="159" y="560" type="curve" smooth="yes"/>
			<point x="159" y="362"/>
			<point x="492" y="335"/>
			<point x="469" y="153" type="curve"/>
			<point x="497" y="146" type="line"/>
			<point x="505" y="160"/>
			<point x="508" y="179"/>
		</contour>
		<contour>
			<point x="107" y="362" type="curve"/>
			<point x="107" y="206"/>
			<point x="407" y="144"/>
			<point x="407" y="-1" type="curve" smooth="yes"/>
			<point x="407" y="-63"/>
			<point x="358" y="-115"/>
			<point x="289" y="-115" type="curve" smooth="yes"/>
			<point x="206" y="-115"/>
			<point x="181" y="-81"/>
			<point x="199" y="-47" type="curve" smooth="yes"/>
			<point x="212" y="-22" type="line"/>
			<point x="201" y="-9"/>
			<point x="186" y="1"/>
			<point x="163" y="1" type="curve" smooth="yes"/>
			<point x="136" y="1"/>
			<point x="120" y="-15"/>
			<point x="120" y="-48" type="curve" smooth="yes"/>
			<point x="120" y="-103"/>
			<point x="189" y="-157"/>
			<point x="283" y="-157" type="curve" smooth="yes"/>
			<point x="389" y="-157"/>
			<point x="456" y="-81"/>
			<point x="456" y="-2" type="curve" smooth="yes"/>
			<point x="456" y="196"/>
			<point x="123" y="223"/>
			<point x="146" y="405" type="curve"/>
			<point x="118" y="412" type="line"/>
			<point x="109" y="397"/>
			<point x="107" y="379"/>
		</contour>
	</outline>
</glyph>
<glyph name="dieresis" format="2">
	<unicode hex="00A8"/>
	<advance width="500"/>
	<outline>
		<contour>
			<point x="142" y="681" type="curve" smooth="yes"/>
			<point x="142" y="656"/>
			<point x="159" y="637"/>
			<point x="183" y="637" type="curve" smooth="yes"/>
			<point x="211" y="637"/>
			<point x="226" y="661"/>
			<point x="226" y="685" type="curve" smooth="yes"/>
			<point x="226" y="711"/>
			<point x="212" y="729"/>
			<point x="184" y="729" type="curve" smooth="yes"/>
			<point x="159" y="729"/>
			<point x="142" y="707"/>
		</contour>
		<contour>
			<point x="320" y="681" type="curve" smooth="yes"/>
			<point x="320" y="656"/>
			<point x="337" y="637"/>
			<point x="361" y="637" type="curve" smooth="yes"/>
			<point x="389" y="637"/>
			<point x="404" y="661"/>
			<point x="404" y="685" type="curve" smooth="yes"/>
			<point x="404" y="711"/>
			<point x="390" y="729"/>
			<point x="362" y="729" type="curve" smooth="yes"/>
			<point x="337" y="729"/>
			<point x="320" y="707"/>
		</contour>
	</outline>
	<anchor name="_top" x="268" y="550"/>
</glyph>
<glyph name="copyright" format="2">
	<unicode hex="00A9"/>
	<advance width="767"/>
	<outline>
		<contour>
			<point x="383" y="-12" type="curve" smooth="yes"/>
			<point x="558" y="-12"/>
			<point x="708" y="114"/>
			<point x="708" y="319" type="curve" smooth="yes"/>
			<point x="708" y="497"/>
			<point x="596" y="635"/>
			<point x="385" y="635" type="curve" smooth="yes"/>
			<point x="210" y="635"/>
			<point x="60" y="509"/>
			<point x="60" y="304" type="curve" smooth="yes"/>
			<point x="60" y="126"/>
			<point x="172" y="-12"/>
		</contour>
		<contour>
			<point x="380" y="105" type="curve" smooth="yes"/>
			<point x="455" y="105"/>
			<point x="503" y="144"/>
			<point x="532" y="182" type="curve"/>
			<point x="510" y="203" type="line"/>
			<point x="477" y="160"/>
			<point x="433" y="140"/>
			<point x="385" y="140" type="curve" smooth="yes"/>
			<point x="305" y="140"/>
			<point x="253" y="203"/>
			<point x="253" y="303" type="curve" smooth="yes"/>
			<point x="253" y="417"/>
			<point x="308" y="479"/>
			<point x="397" y="479" type="curve" smooth="yes"/>
			<point x="459" y="479"/>
			<point x="485" y="448"/>
			<point x="469" y="417" type="curve" smooth="yes"/>
			<point x="459" y="398" type="line"/>
			<point x="467" y="389"/>
			<point x="479" y="381"/>
			<point x="494" y="381" type="curve" smooth="yes"/>
			<point x="519" y="381"/>
			<point x="534" y="395"/>
			<point x="534" y="416" type="curve" smooth="yes"/>
			<point x="534" y="471"/>
			<point x="474" y="516"/>
			<point x="398" y="516" type="curve" smooth="yes"/>
			<point x="292" y="516"/>
			<point x="202" y="441"/>
			<point x="202" y="298" type="curve" smooth="yes"/>
			<point x="202" y="202"/>
			<point x="266" y="105"/>
		</contour>
		<contour>
			<point x="384" y="28" type="curve" smooth="yes"/>
			<point x="223" y="28"/>
			<point x="103" y="128"/>
			<point x="103" y="305" type="curve" smooth="yes"/>
			<point x="103" y="483"/>
			<point x="222" y="595"/>
			<point x="386" y="595" type="curve" smooth="yes"/>
			<point x="546" y="595"/>
			<point x="666" y="495"/>
			<point x="666" y="318" type="curve" smooth="yes"/>
			<point x="666" y="140"/>
			<point x="547" y="28"/>
		</contour>
	</outline>
</glyph>
<glyph name="softhyphen" format="2">
	<unicode hex="00AD"/>
	<advance width="332"/>
	<outline>
		<contour>
			<point x="44" y="329" type="line"/>
			<point x="42" y="259" type="line"/>
			<point x="288" y="259" type="line"/>
			<point x="290" y="329" type="line"/>
		</contour>
	</outline>
</glyph>
<glyph name="registered" format="2">
	<unicode hex="00AE"/>
	<advance width="445"/>
	<outline>
		<contour>
			<point x="237" y="408" type="curve" smooth="yes"/>
			<point x="341" y="408"/>
			<point x="412" y="479"/>
			<point x="412" y="581" type="curve" smooth="yes"/>
			<point x="412" y="682"/>
			<point x="342" y="747"/>
			<point x="238" y="747" type="curve" smooth="yes"/>
			<point x="130" y="747"/>
			<point x="63" y="669"/>
			<point x="63" y="574" type="curve" smooth="yes"/>
			<point x="63" y="464"/>
			<point x="137" y="408"/>
		</contour>
		<contour>
			<point x="317" y="465" type="curve" smooth="yes"/>
			<point x="293" y="465"/>
			<point x="284" y="478"/>
			<point x="259" y="536" type="curve" smooth="yes"/>
			<point x="247" y="565"/>
			<point x="238" y="574"/>
			<point x="221" y="577" type="curve"/>
			<point x="222" y="591" type="line"/>
			<point x="229" y="592" type="line" smooth="yes"/>
			<point x="265" y="597"/>
			<point x="286" y="616"/>
			<point x="286" y="646" type="curve" smooth="yes"/>
			<point x="286" y="676"/>
			<point x="266" y="686"/>
			<point x="223" y="686" type="curve" smooth="yes"/>
			<point x="205" y="686" type="line"/>
			<point x="196" y="486" type="line"/>
			<point x="230" y="481" type="line"/>
			<point x="228" y="469" type="line"/>
			<point x="140" y="469" type="line"/>
			<point x="141" y="481" type="line"/>
			<point x="171" y="485" type="line"/>
			<point x="179" y="686" type="line"/>
			<point x="150" y="690" type="line"/>
			<point x="153" y="703" type="line"/>
			<point x="226" y="703" type="line" smooth="yes"/>
			<point x="286" y="703"/>
			<point x="314" y="685"/>
			<point x="314" y="646" type="curve" smooth="yes"/>
			<point x="314" y="608"/>
			<point x="293" y="590"/>
			<point x="244" y="584" type="curve"/>
			<point x="244" y="582" type="line"/>
			<point x="266" y="572"/>
			<point x="274" y="562"/>
			<point x="287" y="533" type="curve" smooth="yes"/>
			<point x="306" y="491"/>
			<point x="314" y="481"/>
			<point x="325" y="481" type="curve" smooth="yes"/>
			<point x="331" y="481"/>
			<point x="336" y="482"/>
			<point x="341" y="485" type="curve"/>
			<point x="346" y="477" type="line"/>
			<point x="340" y="469"/>
			<point x="328" y="465"/>
		</contour>
	</outline>
</glyph>
<glyph name="degree" format="2">
	<unicode hex="00B0"/>
	<advance width="290"/>
	<outline>
		<contour>
			<point x="163" y="553" type="curve" smooth="yes"/>
			<point x="241" y="553"/>
			<point x="284" y="608"/>
			<point x="284" y="675" type="curve" smooth="yes"/>
			<point x="284" y="737"/>
			<point x="243" y="782"/>
			<point x="170" y="782" type="curve" smooth="yes"/>
			<point x="90" y="782"/>
			<point x="49" y="725"/>
			<point x="49" y="663" type="curve" smooth="yes"/>
			<point x="49" y="601"/>
			<point x="84" y="553"/>
		</contour>
		<contour>
			<point x="166" y="589" type="curve" smooth="yes"/>
			<point x="114" y="589"/>
			<point x="91" y="620"/>
			<point x="91" y="662" type="curve" smooth="yes"/>
			<point x="91" y="710"/>
			<point x="118" y="746"/>
			<point x="167" y="746" type="curve" smooth="yes"/>
			<point x="213" y="746"/>
			<point x="242" y="717"/>
			<point x="242" y="673" type="curve" smooth="yes"/>
			<point x="242" y="627"/>
			<point x="214" y="589"/>
		</contour>
	</outline>
</glyph>
<glyph name="threesuperior" format="2">
	<unicode hex="00B3"/>
	<advance width="363"/>
	<outline>
		<contour>
			<point x="326" y="738" type="curve" smooth="yes"/>
			<point x="326" y="795"/>
			<point x="286" y="839"/>
			<point x="191" y="839" type="curve" smooth="yes"/>
			<point x="113" y="839"/>
			<point x="56" y="798"/>
			<point x="56" y="746" type="curve" smooth="yes"/>
			<point x="56" y="717"/>
			<point x="78" y="706"/>
			<point x="96" y="706" type="curve" smooth="yes"/>
			<point x="113" y="706"/>
			<point x="128" y="714"/>
			<point x="138" y="727" type="curve"/>
			<point x="123" y="746" type="line" smooth="yes"/>
			<point x="100" y="775"/>
			<point x="123" y="801"/>
			<point x="186" y="801" type="curve" smooth="yes"/>
			<point x="253" y="801"/>
			<point x="282" y="779"/>
			<point x="282" y="739" type="curve" smooth="yes"/>
			<point x="282" y="671"/>
			<point x="231" y="633"/>
			<point x="142" y="624" type="curve"/>
			<point x="147" y="589" type="line"/>
			<point x="159" y="592"/>
			<point x="171" y="593"/>
			<point x="189" y="593" type="curve" smooth="yes"/>
			<point x="258" y="593"/>
			<point x="291" y="566"/>
			<point x="291" y="517" type="curve" smooth="yes"/>
			<point x="291" y="439"/>
			<point x="233" y="402"/>
			<point x="160" y="402" type="curve" smooth="yes"/>
			<point x="119" y="402"/>
			<point x="101" y="414"/>
			<point x="112" y="441" type="curve" smooth="yes"/>
			<point x="122" y="465" type="line"/>
			<point x="110" y="476"/>
			<point x="95" y="481"/>
			<point x="81" y="481" type="curve" smooth="yes"/>
			<point x="60" y="481"/>
			<point x="40" y="466"/>
			<point x="40" y="435" type="curve" smooth="yes"/>
			<point x="40" y="401"/>
			<point x="69" y="362"/>
			<point x="158" y="362" type="curve" smooth="yes"/>
			<point x="264" y="362"/>
			<point x="342" y="421"/>
			<point x="342" y="517" type="curve" smooth="yes"/>
			<point x="342" y="573"/>
			<point x="309" y="614"/>
			<point x="235" y="619" type="curve"/>
			<point x="235" y="622" type="line"/>
			<point x="299" y="644"/>
			<point x="326" y="691"/>
		</contour>
	</outline>
</glyph>
<glyph name="paragraph" format="2">
	<unicode hex="00B6"/>
	<advance width="524"/>
	<outline>
		<contour>
			<point x="311" y="-95" type="curve" smooth="yes"/>
			<point x="301" y="-161"/>
			<point x="274" y="-168"/>
			<point x="237" y="-154" type="curve" smooth="yes"/>
			<point x="208" y="-143" type="line"/>
			<point x="195" y="-154"/>
			<point x="187" y="-168"/>
			<point x="187" y="-185" type="curve" smooth="yes"/>
			<point x="187" y="-208"/>
			<point x="201" y="-229"/>
			<point x="235" y="-229" type="curve" smooth="yes"/>
			<point x="263" y="-229"/>
			<point x="300" y="-207"/>
			<point x="323" y="-167" type="curve" smooth="yes"/>
			<point x="351" y="-119"/>
			<point x="367" y="-35"/>
			<point x="373" y="122" type="curve" smooth="yes"/>
			<point x="394" y="655" type="line"/>
			<point x="481" y="668" type="line"/>
			<point x="484" y="700" type="line"/>
			<point x="349" y="700" type="line"/>
			<point x="322" y="23" type="line" smooth="yes"/>
			<point x="320" y="-29"/>
			<point x="316" y="-60"/>
		</contour>
		<contour>
			<point x="251" y="272" type="line"/>
			<point x="276" y="700" type="line"/>
			<point x="264" y="700" type="line" smooth="yes"/>
			<point x="145" y="700"/>
			<point x="69" y="610"/>
			<point x="69" y="464" type="curve" smooth="yes"/>
			<point x="69" y="339"/>
			<point x="125" y="272"/>
			<point x="235" y="272" type="curve" smooth="yes"/>
		</contour>
	</outline>
</glyph>
<glyph name="periodcentered" format="2">
	<unicode hex="00B7"/>
	<advance width="218"/>
	<outline>
		<contour>
			<point x="62" y="307" type="curve" smooth="yes"/>
			<point x="62" y="278"/>
			<point x="81" y="260"/>
			<point x="105" y="260" type="curve" smooth="yes"/>
			<point x="133" y="260"/>
			<point x="150" y="284"/>
			<point x="150" y="310" type="curve" smooth="yes"/>
			<point x="150" y="339"/>
			<point x="134" y="357"/>
			<point x="106" y="357" type="curve" smooth="yes"/>
			<point x="80" y="357"/>
			<point x="62" y="335"/>
		</contour>
	</outline>
</glyph>
<glyph name="onesuperior" format="2">
	<unicode hex="00B9"/>
	<advance width="277"/>
	<outline>
		<contour>
			<point x="182" y="419" type="line"/>
			<point x="201" y="830" type="line"/>
			<point x="186" y="836" type="line"/>
			<point x="69" y="820" type="line"/>
			<point x="63" y="789" type="line"/>
			<point x="151" y="789" type="line"/>
			<point x="134" y="419" type="line"/>
			<point x="52" y="406" type="line"/>
			<point x="49" y="374" type="line"/>
			<point x="258" y="374" type="line"/>
			<point x="260" y="406" type="line"/>
		</contour>
	</outline>
</glyph>
<glyph name="Eth" format="2">
	<unicode hex="00D0"/>
	<advance width="702"/>
	<outline>
		<contour>
			<point x="335" y="700" type="curve" smooth="yes"/>
			<point x="79" y="700" type="line"/>
			<point x="75" y="668" type="line"/>
			<point x="163" y="655" type="line"/>
			<point x="152" y="379" type="line"/>
			<point x="45" y="379" type="line"/>
			<point x="42" y="340" type="line"/>
			<point x="151" y="340" type="line"/>
			<point x="139" y="46" type="line"/>
			<point x="54" y="32" type="line"/>
			<point x="50" y="0" type="line"/>
			<point x="239" y="0" type="line" smooth="yes"/>
			<point x="505" y="0"/>
			<point x="654" y="149"/>
			<point x="654" y="392" type="curve" smooth="yes"/>
			<point x="654" y="589"/>
			<point x="532" y="700"/>
		</contour>
		<contour>
			<point x="227" y="39" type="curve" smooth="yes"/>
			<point x="186" y="39" type="line"/>
			<point x="198" y="340" type="line"/>
			<point x="419" y="340" type="line"/>
			<point x="422" y="379" type="line"/>
			<point x="199" y="379" type="line"/>
			<point x="210" y="661" type="line"/>
			<point x="326" y="661" type="line" smooth="yes"/>
			<point x="502" y="661"/>
			<point x="603" y="558"/>
			<point x="603" y="383" type="curve" smooth="yes"/>
			<point x="603" y="160"/>
			<point x="473" y="39"/>
		</contour>
	</outline>
	<anchor name="bottom" x="334" y="-30"/>
	<anchor name="top" x="339" y="730"/>
</glyph>
<glyph name="ae" format="2">
	<unicode hex="00E6"/>
	<advance width="765"/>
	<outline>
		<contour>
			<point x="591" y="516" type="curve" smooth="yes"/>
			<point x="549" y="516"/>
			<point x="504" y="495"/>
			<point x="469" y="467" type="curve"/>
			<point x="477" y="507" type="line"/>
			<point x="460" y="515" type="line"/>
			<point x="402" y="492" type="line"/>
			<point x="378" y="504"/>
			<point x="330" y="515"/>
			<point x="283" y="515" type="curve" smooth="yes"/>
			<point x="150" y="515"/>
			<point x="55" y="390"/>
			<point x="55" y="201" type="curve" smooth="yes"/>
			<point x="55" y="77"/>
			<point x="101" y="-14"/>
			<point x="202" y="-14" type="curve" smooth="yes"/>
			<point x="295" y="-14"/>
			<point x="336" y="61"/>
			<point x="370" y="173" type="curve"/>
			<point x="380" y="69"/>
			<point x="439" y="-14"/>
			<point x="546" y="-14" type="curve" smooth="yes"/>
			<point x="612" y="-14"/>
			<point x="670" y="13"/>
			<point x="721" y="70" type="curve"/>
			<point x="696" y="96" type="line"/>
			<point x="648" y="49"/>
			<point x="600" y="28"/>
			<point x="558" y="28" type="curve" smooth="yes"/>
			<point x="475" y="28"/>
			<point x="422" y="91"/>
			<point x="416" y="202" type="curve"/>
			<point x="545" y="233" type="line" smooth="yes"/>
			<point x="628" y="253"/>
			<point x="714" y="282"/>
			<point x="714" y="393" type="curve" smooth="yes"/>
			<point x="714" y="470"/>
			<point x="669" y="516"/>
		</contour>
		<contour>
			<point x="205" y="32" type="curve" smooth="yes"/>
			<point x="131" y="32"/>
			<point x="104" y="101"/>
			<point x="104" y="205" type="curve" smooth="yes"/>
			<point x="104" y="355"/>
			<point x="171" y="474"/>
			<point x="292" y="474" type="curve" smooth="yes"/>
			<point x="328" y="474"/>
			<point x="379" y="460"/>
			<point x="404" y="447" type="curve"/>
			<point x="369" y="317" type="line" smooth="yes"/>
			<point x="307" y="87"/>
			<point x="282" y="32"/>
		</contour>
		<contour>
			<point x="665" y="400" type="curve" smooth="yes"/>
			<point x="665" y="331"/>
			<point x="634" y="296"/>
			<point x="540" y="273" type="curve" smooth="yes"/>
			<point x="415" y="243" type="line"/>
			<point x="422" y="392"/>
			<point x="499" y="478"/>
			<point x="587" y="478" type="curve" smooth="yes"/>
			<point x="628" y="478"/>
			<point x="665" y="456"/>
		</contour>
	</outline>
	<anchor name="top" x="454" y="550"/>
</glyph>
<glyph name="ccedilla" format="2">
	<unicode hex="00E7"/>
	<advance width="461"/>
	<outline>
		<contour>
			<point x="219" y="-229" type="curve" smooth="yes"/>
			<point x="281" y="-229"/>
			<point x="326" y="-189"/>
			<point x="326" y="-137" type="curve" smooth="yes"/>
			<point x="326" y="-81"/>
			<point x="280" y="-60"/>
			<point x="229" y="-64" type="curve"/>
			<point x="247" y="-14" type="line"/>
			<point x="313" y="-9"/>
			<point x="364" y="27"/>
			<point x="415" y="81" type="curve"/>
			<point x="391" y="109" type="line"/>
			<point x="338" y="50"/>
			<point x="289" y="29"/>
			<point x="242" y="29" type="curve" smooth="yes"/>
			<point x="156" y="29"/>
			<point x="104" y="93"/>
			<point x="104" y="228" type="curve" smooth="yes"/>
			<point x="104" y="387"/>
			<point x="176" y="479"/>
			<point x="273" y="479" type="curve" smooth="yes"/>
			<point x="336" y="479"/>
			<point x="368" y="450"/>
			<point x="341" y="412" type="curve" smooth="yes"/>
			<point x="332" y="399" type="line"/>
			<point x="340" y="383"/>
			<point x="354" y="373"/>
			<point x="374" y="373" type="curve" smooth="yes"/>
			<point x="399" y="373"/>
			<point x="415" y="389"/>
			<point x="415" y="420" type="curve" smooth="yes"/>
			<point x="415" y="472"/>
			<point x="366" y="517"/>
			<point x="273" y="517" type="curve" smooth="yes"/>
			<point x="149" y="517"/>
			<point x="55" y="402"/>
			<point x="55" y="225" type="curve" smooth="yes"/>
			<point x="55" y="102"/>
			<point x="104" y="-2"/>
			<point x="213" y="-13" type="curve"/>
			<point x="190" y="-83" type="line"/>
			<point x="200" y="-95" type="line"/>
			<point x="246" y="-89"/>
			<point x="277" y="-100"/>
			<point x="277" y="-138" type="curve" smooth="yes"/>
			<point x="277" y="-177"/>
			<point x="246" y="-196"/>
			<point x="212" y="-196" type="curve" smooth="yes"/>
			<point x="188" y="-196"/>
			<point x="172" y="-191"/>
			<point x="157" y="-184" type="curve"/>
			<point x="147" y="-211" type="line"/>
			<point x="165" y="-221"/>
			<point x="187" y="-229"/>
		</contour>
	</outline>
</glyph>
<glyph name="eth" format="2">
	<unicode hex="00F0"/>
	<advance width="534"/>
	<outline>
		<contour>
			<point x="257" y="-14" type="curve" smooth="yes"/>
			<point x="409" y="-14"/>
			<point x="471" y="134"/>
			<point x="471" y="330" type="curve" smooth="yes"/>
			<point x="471" y="448"/>
			<point x="448" y="585"/>
			<point x="357" y="684" type="curve"/>
			<point x="448" y="738" type="line"/>
			<point x="430" y="772" type="line"/>
			<point x="324" y="710" type="line"/>
			<point x="282" y="738"/>
			<point x="235" y="754"/>
			<point x="164" y="765" type="curve"/>
			<point x="154" y="727" type="line"/>
			<point x="202" y="717"/>
			<point x="250" y="703"/>
			<point x="283" y="681" type="curve"/>
			<point x="191" y="632" type="line"/>
			<point x="208" y="596" type="line"/>
			<point x="319" y="656" type="line"/>
			<point x="362" y="605"/>
			<point x="402" y="525"/>
			<point x="414" y="440" type="curve"/>
			<point x="410" y="438" type="line"/>
			<point x="373" y="495"/>
			<point x="318" y="515"/>
			<point x="267" y="515" type="curve" smooth="yes"/>
			<point x="115" y="515"/>
			<point x="56" y="385"/>
			<point x="56" y="235" type="curve" smooth="yes"/>
			<point x="56" y="84"/>
			<point x="122" y="-14"/>
		</contour>
		<contour>
			<point x="256" y="26" type="curve" smooth="yes"/>
			<point x="169" y="26"/>
			<point x="105" y="96"/>
			<point x="105" y="231" type="curve" smooth="yes"/>
			<point x="105" y="382"/>
			<point x="159" y="476"/>
			<point x="266" y="476" type="curve" smooth="yes"/>
			<point x="354" y="476"/>
			<point x="415" y="412"/>
			<point x="415" y="275" type="curve" smooth="yes"/>
			<point x="415" y="134"/>
			<point x="363" y="26"/>
		</contour>
	</outline>
</glyph>
<glyph name="divide" format="2">
	<unicode hex="00F7"/>
	<advance width="582"/>
	<outline>
		<contour>
			<point x="77" y="286" type="line"/>
			<point x="505" y="286" type="line"/>
			<point x="508" y="326" type="line"/>
			<point x="80" y="326" type="line"/>
		</contour>
		<contour>
			<point x="277" y="105" type="curve" smooth="yes"/>
			<point x="312" y="105"/>
			<point x="335" y="128"/>
			<point x="336" y="158" type="curve" smooth="yes"/>
			<point x="337" y="189"/>
			<point x="313" y="211"/>
			<point x="282" y="211" type="curve" smooth="yes"/>
			<point x="248" y="211"/>
			<point x="225" y="188"/>
			<point x="223" y="157" type="curve" smooth="yes"/>
			<point x="221" y="127"/>
			<point x="247" y="105"/>
		</contour>
		<contour>
			<point x="299" y="398" type="curve" smooth="yes"/>
			<point x="334" y="398"/>
			<point x="357" y="421"/>
			<point x="359" y="452" type="curve" smooth="yes"/>
			<point x="361" y="482"/>
			<point x="335" y="504"/>
			<point x="304" y="504" type="curve" smooth="yes"/>
			<point x="270" y="504"/>
			<point x="247" y="481"/>
			<point x="246" y="451" type="curve" smooth="yes"/>
			<point x="245" y="420"/>
			<point x="269" y="398"/>
		</contour>
	</outline>
</glyph>
<glyph name="aogonek" format="2">
	<unicode hex="0105"/>
	<advance width="556"/>
	<outline>
		<contour>
			<point x="202" y="-14" type="curve" smooth="yes"/>
			<point x="286" y="-14"/>
			<point x="339" y="53"/>
			<point x="372" y="185" type="curve" smooth="yes"/>
			<point x="408" y="331" type="line"/>
			<point x="413" y="330" type="line"/>
			<point x="392" y="71" type="line" smooth="yes"/>
			<point x="388" y="12"/>
			<point x="405" y="-12"/>
			<point x="454" y="-12" type="curve"/>
			<point x="406" y="-57"/>
			<point x="363" y="-99"/>
			<point x="363" y="-152" type="curve" smooth="yes"/>
			<point x="363" y="-196"/>
			<point x="392" y="-220"/>
			<point x="435" y="-220" type="curve" smooth="yes"/>
			<point x="472" y="-220"/>
			<point x="508" y="-203"/>
			<point x="538" y="-163" type="curve"/>
			<point x="517" y="-140" type="line"/>
			<point x="493" y="-163"/>
			<point x="475" y="-177"/>
			<point x="446" y="-177" type="curve" smooth="yes"/>
			<point x="419" y="-177"/>
			<point x="410" y="-160"/>
			<point x="410" y="-138" type="curve" smooth="yes"/>
			<point x="410" y="-87"/>
			<point x="476" y="-30"/>
			<point x="548" y="28" type="curve"/>
			<point x="530" y="55" type="line"/>
			<point x="507" y="39"/>
			<point x="487" y="29"/>
			<point x="464" y="29" type="curve" smooth="yes"/>
			<point x="444" y="29"/>
			<point x="438" y="39"/>
			<point x="439" y="74" type="curve" smooth="yes"/>
			<point x="452" y="506" type="line"/>
			<point x="436" y="513" type="line"/>
			<point x="403" y="493" type="line"/>
			<point x="362" y="508"/>
			<point x="325" y="516"/>
			<point x="280" y="516" type="curve" smooth="yes"/>
			<point x="161" y="516"/>
			<point x="55" y="401"/>
			<point x="55" y="201" type="curve" smooth="yes"/>
			<point x="55" y="81"/>
			<point x="97" y="-14"/>
		</contour>
		<contour>
			<point x="205" y="32" type="curve" smooth="yes"/>
			<point x="142" y="32"/>
			<point x="104" y="84"/>
			<point x="104" y="207" type="curve" smooth="yes"/>
			<point x="104" y="371"/>
			<point x="185" y="474"/>
			<point x="285" y="474" type="curve" smooth="yes"/>
			<point x="329" y="474"/>
			<point x="377" y="460"/>
			<point x="404" y="446" type="curve"/>
			<point x="370" y="320" type="line" smooth="yes"/>
			<point x="303" y="73"/>
			<point x="277" y="32"/>
		</contour>
	</outline>
</glyph>
<glyph name="Eogonek" format="2">
	<unicode hex="0118"/>
	<advance width="569"/>
	<outline>
		<contour>
			<point x="50" y="0" type="line"/>
			<point x="449" y="0" type="line"/>
			<point x="382" y="-42"/>
			<point x="328" y="-80"/>
			<point x="328" y="-152" type="curve" smooth="yes"/>
			<point x="328" y="-196"/>
			<point x="357" y="-220"/>
			<point x="400" y="-220" type="curve" smooth="yes"/>
			<point x="437" y="-220"/>
			<point x="473" y="-203"/>
			<point x="503" y="-163" type="curve"/>
			<point x="482" y="-140" type="line"/>
			<point x="458" y="-163"/>
			<point x="440" y="-177"/>
			<point x="411" y="-177" type="curve" smooth="yes"/>
			<point x="384" y="-177"/>
			<point x="375" y="-160"/>
			<point x="375" y="-138" type="curve" smooth="yes"/>
			<point x="375" y="-80"/>
			<point x="443" y="-34"/>
			<point x="507" y="0" type="curve"/>
			<point x="529" y="157" type="line"/>
			<point x="493" y="157" type="line"/>
			<point x="481" y="114" type="line" smooth="yes"/>
			<point x="461" y="42"/>
			<point x="438" y="39"/>
			<point x="382" y="39" type="curve" smooth="yes"/>
			<point x="186" y="39" type="line"/>
			<point x="198" y="340" type="line"/>
			<point x="465" y="340" type="line"/>
			<point x="469" y="380" type="line"/>
			<point x="199" y="380" type="line"/>
			<point x="210" y="661" type="line"/>
			<point x="384" y="661" type="line" smooth="yes"/>
			<point x="438" y="661"/>
			<point x="462" y="655"/>
			<point x="479" y="591" type="curve" smooth="yes"/>
			<point x="492" y="542" type="line"/>
			<point x="527" y="547" type="line"/>
			<point x="513" y="700" type="line"/>
			<point x="79" y="700" type="line"/>
			<point x="75" y="668" type="line"/>
			<point x="163" y="655" type="line"/>
			<point x="139" y="46" type="line"/>
			<point x="54" y="32" type="line"/>
		</contour>
	</outline>
</glyph>
<glyph name="eogonek" format="2">
	<unicode hex="0119"/>
	<advance width="454"/>
	<outline>
		<contour>
			<point x="55" y="225" type="curve" smooth="yes"/>
			<point x="55" y="94"/>
			<point x="109" y="-14"/>
			<point x="236" y="-14" type="curve" smooth="yes"/>
			<point x="255" y="-14"/>
			<point x="273" y="-12"/>
			<point x="289" y="-7" type="curve"/>
			<point x="246" y="-47"/>
			<point x="196" y="-86"/>
			<point x="196" y="-152" type="curve" smooth="yes"/>
			<point x="196" y="-196"/>
			<point x="228" y="-220"/>
			<point x="271" y="-220" type="curve" smooth="yes"/>
			<point x="308" y="-220"/>
			<point x="341" y="-203"/>
			<point x="371" y="-163" type="curve"/>
			<point x="350" y="-140" type="line"/>
			<point x="326" y="-163"/>
			<point x="310" y="-177"/>
			<point x="281" y="-177" type="curve" smooth="yes"/>
			<point x="254" y="-177"/>
			<point x="243" y="-160"/>
			<point x="243" y="-138" type="curve" smooth="yes"/>
			<point x="243" y="-91"/>
			<point x="277" y="-49"/>
			<point x="350" y="16" type="curve" smooth="yes"/>
			<point x="371" y="35"/>
			<point x="391" y="49"/>
			<point x="410" y="69" type="curve"/>
			<point x="385" y="96" type="line"/>
			<point x="331" y="45"/>
			<point x="292" y="29"/>
			<point x="243" y="29" type="curve" smooth="yes"/>
			<point x="146" y="29"/>
			<point x="109" y="117"/>
			<point x="105" y="202" type="curve"/>
			<point x="240" y="234" type="line" smooth="yes"/>
			<point x="314" y="252"/>
			<point x="403" y="286"/>
			<point x="403" y="393" type="curve" smooth="yes"/>
			<point x="403" y="462"/>
			<point x="364" y="517"/>
			<point x="277" y="517" type="curve" smooth="yes"/>
			<point x="144" y="517"/>
			<point x="55" y="384"/>
		</contour>
		<contour>
			<point x="104" y="243" type="line"/>
			<point x="109" y="378"/>
			<point x="175" y="478"/>
			<point x="276" y="478" type="curve" smooth="yes"/>
			<point x="340" y="478"/>
			<point x="354" y="433"/>
			<point x="354" y="389" type="curve" smooth="yes"/>
			<point x="354" y="327"/>
			<point x="312" y="293"/>
			<point x="245" y="277" type="curve" smooth="yes"/>
		</contour>
	</outline>
</glyph>
<glyph name="iogonek" format="2">
	<unicode hex="012F"/>
	<advance width="282"/>
	<outline>
		<contour>
			<point x="101" y="66" type="line" smooth="yes"/>
			<point x="96" y="11"/>
			<point x="116" y="-14"/>
			<point x="165" y="-13" type="curve"/>
			<point x="127" y="-43"/>
			<point x="78" y="-91"/>
			<point x="78" y="-152" type="curve" smooth="yes"/>
			<point x="78" y="-196"/>
			<point x="107" y="-220"/>
			<point x="150" y="-220" type="curve" smooth="yes"/>
			<point x="187" y="-220"/>
			<point x="223" y="-203"/>
			<point x="253" y="-163" type="curve"/>
			<point x="232" y="-140" type="line"/>
			<point x="208" y="-163"/>
			<point x="190" y="-177"/>
			<point x="161" y="-177" type="curve" smooth="yes"/>
			<point x="134" y="-177"/>
			<point x="125" y="-160"/>
			<point x="125" y="-138" type="curve" smooth="yes"/>
			<point x="125" y="-87"/>
			<point x="172" y="-41"/>
			<point x="217" y="-4" type="curve" smooth="yes"/>
			<point x="235" y="10"/>
			<point x="249" y="21"/>
			<point x="260" y="30" type="curve"/>
			<point x="241" y="58" type="line"/>
			<point x="213" y="38"/>
			<point x="193" y="30"/>
			<point x="173" y="30" type="curve" smooth="yes"/>
			<point x="153" y="30"/>
			<point x="147" y="42"/>
			<point x="150" y="75" type="curve" smooth="yes"/>
			<point x="178" y="421" type="line" smooth="yes"/>
			<point x="183" y="477"/>
			<point x="178" y="517"/>
			<point x="123" y="517" type="curve" smooth="yes"/>
			<point x="96" y="517"/>
			<point x="47" y="502"/>
			<point x="22" y="488" type="curve"/>
			<point x="34" y="454" type="line"/>
			<point x="62" y="466"/>
			<point x="85" y="473"/>
			<point x="104" y="473" type="curve" smooth="yes"/>
			<point x="125" y="473"/>
			<point x="131" y="457"/>
			<point x="129" y="429" type="curve" smooth="yes"/>
		</contour>
		<contour>
			<point x="108" y="683" type="curve" smooth="yes"/>
			<point x="108" y="656"/>
			<point x="125" y="637"/>
			<point x="149" y="637" type="curve" smooth="yes"/>
			<point x="177" y="637"/>
			<point x="192" y="661"/>
			<point x="192" y="687" type="curve" smooth="yes"/>
			<point x="192" y="716"/>
			<point x="178" y="734"/>
			<point x="150" y="734" type="curve" smooth="yes"/>
			<point x="125" y="734"/>
			<point x="108" y="712"/>
		</contour>
	</outline>
</glyph>
<glyph name="idotless" format="2">
	<unicode hex="0131"/>
	<advance width="290"/>
	<outline>
		<contour>
			<point x="133" y="429" type="curve" smooth="yes"/>
			<point x="105" y="66" type="line" smooth="yes"/>
			<point x="102" y="30"/>
			<point x="109" y="-14"/>
			<point x="160" y="-14" type="curve" smooth="yes"/>
			<point x="199" y="-14"/>
			<point x="239" y="8"/>
			<point x="264" y="30" type="curve"/>
			<point x="245" y="58" type="line"/>
			<point x="217" y="38"/>
			<point x="197" y="30"/>
			<point x="177" y="30" type="curve" smooth="yes"/>
			<point x="157" y="30"/>
			<point x="151" y="42"/>
			<point x="154" y="75" type="curve" smooth="yes"/>
			<point x="182" y="421" type="line" smooth="yes"/>
			<point x="187" y="477"/>
			<point x="182" y="517"/>
			<point x="127" y="517" type="curve" smooth="yes"/>
			<point x="100" y="517"/>
			<point x="51" y="502"/>
			<point x="26" y="488" type="curve"/>
			<point x="38" y="454" type="line"/>
			<point x="66" y="466"/>
			<point x="89" y="473"/>
			<point x="108" y="473" type="curve" smooth="yes"/>
			<point x="129" y="473"/>
			<point x="135" y="457"/>
		</contour>
	</outline>
	<anchor name="bottom" x="160" y="-30"/>
	<anchor name="top" x="117" y="550"/>
</glyph>
<glyph name="kgreenlandic" format="2">
	<unicode hex="0138"/>
	<advance width="531"/>
	<outline>
		<contour>
			<point x="102" y="0" type="line"/>
			<point x="150" y="0" type="line"/>
			<point x="160" y="230" type="line"/>
			<point x="185" y="237"/>
			<point x="211" y="245"/>
			<point x="238" y="255" type="curve"/>
			<point x="346" y="65" type="line" smooth="yes"/>
			<point x="378" y="8"/>
			<point x="401" y="-14"/>
			<point x="441" y="-14" type="curve" smooth="yes"/>
			<point x="484" y="-14"/>
			<point x="514" y="8"/>
			<point x="533" y="26" type="curve"/>
			<point x="515" y="53" type="line"/>
			<point x="492" y="37"/>
			<point x="476" y="30"/>
			<point x="457" y="30" type="curve" smooth="yes"/>
			<point x="426" y="30"/>
			<point x="407" y="55"/>
			<point x="388" y="89" type="curve" smooth="yes"/>
			<point x="283" y="276" type="line"/>
			<point x="293" y="280"/>
			<point x="325" y="296"/>
			<point x="359" y="317" type="curve" smooth="yes"/>
			<point x="423" y="356"/>
			<point x="453" y="410"/>
			<point x="453" y="459" type="curve" smooth="yes"/>
			<point x="453" y="497"/>
			<point x="432" y="516"/>
			<point x="402" y="516" type="curve" smooth="yes"/>
			<point x="378" y="516"/>
			<point x="362" y="499"/>
			<point x="356" y="470" type="curve"/>
			<point x="376" y="459" type="line" smooth="yes"/>
			<point x="415" y="438"/>
			<point x="402" y="390"/>
			<point x="338" y="347" type="curve" smooth="yes"/>
			<point x="291" y="315"/>
			<point x="221" y="287"/>
			<point x="162" y="272" type="curve"/>
			<point x="169" y="415" type="line" smooth="yes"/>
			<point x="172" y="483"/>
			<point x="163" y="517"/>
			<point x="112" y="517" type="curve" smooth="yes"/>
			<point x="84" y="517"/>
			<point x="33" y="500"/>
			<point x="12" y="488" type="curve"/>
			<point x="24" y="455" type="line"/>
			<point x="55" y="467"/>
			<point x="77" y="474"/>
			<point x="92" y="474" type="curve" smooth="yes"/>
			<point x="115" y="474"/>
			<point x="121" y="458"/>
			<point x="120" y="431" type="curve" smooth="yes"/>
		</contour>
	</outline>
</glyph>
<glyph name="Eng" format="2">
	<unicode hex="014A"/>
	<advance width="721"/>
	<outline>
		<contour>
			<point x="50" y="0" type="line"/>
			<point x="283" y="0" type="line"/>
			<point x="287" y="33" type="line"/>
			<point x="186" y="46" type="line"/>
			<point x="209" y="643" type="line"/>
			<point x="544" y="-9" type="line"/>
			<point x="531" y="-81"/>
			<point x="496" y="-140"/>
			<point x="437" y="-194" type="curve"/>
			<point x="450" y="-224" type="line"/>
			<point x="546" y="-149"/>
			<point x="591" y="-82"/>
			<point x="595" y="11" type="curve" smooth="yes"/>
			<point x="622" y="655" type="line"/>
			<point x="707" y="668" type="line"/>
			<point x="710" y="700" type="line"/>
			<point x="487" y="700" type="line"/>
			<point x="483" y="668" type="line"/>
			<point x="574" y="655" type="line"/>
			<point x="553" y="72" type="line"/>
			<point x="234" y="700" type="line"/>
			<point x="79" y="700" type="line"/>
			<point x="75" y="668" type="line"/>
			<point x="162" y="655" type="line"/>
			<point x="138" y="46" type="line"/>
			<point x="54" y="32" type="line"/>
		</contour>
	</outline>
</glyph>
<glyph name="scedilla" format="2">
	<unicode hex="015F"/>
	<advance width="411"/>
	<outline>
		<contour>
			<point x="175" y="-229" type="curve" smooth="yes"/>
			<point x="237" y="-229"/>
			<point x="282" y="-189"/>
			<point x="282" y="-137" type="curve" smooth="yes"/>
			<point x="282" y="-81"/>
			<point x="236" y="-60"/>
			<point x="185" y="-64" type="curve"/>
			<point x="203" y="-14" type="line"/>
			<point x="305" y="-8"/>
			<point x="360" y="61"/>
			<point x="360" y="144" type="curve" smooth="yes"/>
			<point x="360" y="227"/>
			<point x="289" y="257"/>
			<point x="221" y="285" type="curve" smooth="yes"/>
			<point x="155" y="312"/>
			<point x="120" y="335"/>
			<point x="120" y="387" type="curve" smooth="yes"/>
			<point x="120" y="434"/>
			<point x="147" y="481"/>
			<point x="234" y="481" type="curve" smooth="yes"/>
			<point x="284" y="481"/>
			<point x="302" y="461"/>
			<point x="297" y="436" type="curve" smooth="yes"/>
			<point x="290" y="403" type="line"/>
			<point x="299" y="396"/>
			<point x="311" y="392"/>
			<point x="325" y="392" type="curve" smooth="yes"/>
			<point x="349" y="392"/>
			<point x="364" y="404"/>
			<point x="364" y="430" type="curve" smooth="yes"/>
			<point x="364" y="475"/>
			<point x="315" y="517"/>
			<point x="238" y="517" type="curve" smooth="yes"/>
			<point x="114" y="517"/>
			<point x="75" y="442"/>
			<point x="75" y="381" type="curve" smooth="yes"/>
			<point x="75" y="303"/>
			<point x="138" y="273"/>
			<point x="200" y="247" type="curve" smooth="yes"/>
			<point x="275" y="216"/>
			<point x="316" y="198"/>
			<point x="316" y="140" type="curve" smooth="yes"/>
			<point x="316" y="60"/>
			<point x="262" y="22"/>
			<point x="198" y="22" type="curve" smooth="yes"/>
			<point x="130" y="22"/>
			<point x="111" y="39"/>
			<point x="113" y="73" type="curve" smooth="yes"/>
			<point x="115" y="108" type="line"/>
			<point x="106" y="113"/>
			<point x="93" y="117"/>
			<point x="81" y="117" type="curve" smooth="yes"/>
			<point x="58" y="117"/>
			<point x="40" y="106"/>
			<point x="40" y="78" type="curve" smooth="yes"/>
			<point x="40" y="29"/>
			<point x="93" y="-8"/>
			<point x="169" y="-13" type="curve"/>
			<point x="146" y="-83" type="line"/>
			<point x="156" y="-95" type="line"/>
			<point x="202" y="-89"/>
			<point x="233" y="-100"/>
			<point x="233" y="-138" type="curve" smooth="yes"/>
			<point x="233" y="-177"/>
			<point x="202" y="-196"/>
			<point x="168" y="-196" type="curve" smooth="yes"/>
			<point x="144" y="-196"/>
			<point x="128" y="-191"/>
			<point x="113" y="-184" type="curve"/>
			<point x="103" y="-211" type="line"/>
			<point x="121" y="-221"/>
			<point x="143" y="-229"/>
		</contour>
	</outline>
</glyph>
<glyph name="tcedilla" format="2">
	<unicode hex="0163"/>
	<advance width="385"/>
	<outline>
		<contour>
			<point x="200" y="-229" type="curve" smooth="yes"/>
			<point x="262" y="-229"/>
			<point x="307" y="-189"/>
			<point x="307" y="-137" type="curve" smooth="yes"/>
			<point x="307" y="-81"/>
			<point x="261" y="-60"/>
			<point x="210" y="-64" type="curve"/>
			<point x="228" y="-14" type="line"/>
			<point x="284" y="-12"/>
			<point x="337" y="22"/>
			<point x="369" y="65" type="curve"/>
			<point x="344" y="92" type="line"/>
			<point x="311" y="54"/>
			<point x="270" y="29"/>
			<point x="229" y="29" type="curve" smooth="yes"/>
			<point x="174" y="29"/>
			<point x="152" y="58"/>
			<point x="155" y="129" type="curve" smooth="yes"/>
			<point x="171" y="461" type="line"/>
			<point x="343" y="461" type="line"/>
			<point x="346" y="503" type="line"/>
			<point x="173" y="503" type="line"/>
			<point x="184" y="674" type="line"/>
			<point x="157" y="674" type="line"/>
			<point x="121" y="503" type="line"/>
			<point x="43" y="495" type="line"/>
			<point x="37" y="461" type="line"/>
			<point x="119" y="461" type="line"/>
			<point x="104" y="133" type="line" smooth="yes"/>
			<point x="100" y="47"/>
			<point x="126" y="-2"/>
			<point x="195" y="-12" type="curve"/>
			<point x="171" y="-83" type="line"/>
			<point x="181" y="-95" type="line"/>
			<point x="227" y="-89"/>
			<point x="258" y="-100"/>
			<point x="258" y="-138" type="curve" smooth="yes"/>
			<point x="258" y="-177"/>
			<point x="227" y="-196"/>
			<point x="193" y="-196" type="curve" smooth="yes"/>
			<point x="169" y="-196"/>
			<point x="153" y="-191"/>
			<point x="138" y="-184" type="curve"/>
			<point x="128" y="-211" type="line"/>
			<point x="146" y="-221"/>
			<point x="168" y="-229"/>
		</contour>
	</outline>
</glyph>
<glyph name="Tbar" format="2">
	<unicode hex="0166"/>
	<advance width="604"/>
	<outline>
		<contour>
			<point x="183" y="0" type="line"/>
			<point x="413" y="0" type="line"/>
			<point x="416" y="33" type="line"/>
			<point x="319" y="45" type="line"/>
			<point x="330" y="334" type="line"/>
			<point x="495" y="334" type="line"/>
			<point x="498" y="373" type="line"/>
			<point x="332" y="373" type="line"/>
			<point x="343" y="661" type="line"/>
			<point x="466" y="661" type="line" smooth="yes"/>
			<point x="524" y="661"/>
			<point x="541" y="651"/>
			<point x="555" y="592" type="curve" smooth="yes"/>
			<point x="567" y="543" type="line"/>
			<point x="602" y="547" type="line"/>
			<point x="588" y="700" type="line"/>
			<point x="56" y="700" type="line"/>
			<point x="35" y="547" type="line"/>
			<point x="70" y="543" type="line"/>
			<point x="85" y="592" type="line" smooth="yes"/>
			<point x="105" y="658"/>
			<point x="120" y="661"/>
			<point x="179" y="661" type="curve" smooth="yes"/>
			<point x="296" y="661" type="line"/>
			<point x="285" y="373" type="line"/>
			<point x="121" y="373" type="line"/>
			<point x="117" y="334" type="line"/>
			<point x="283" y="334" type="line"/>
			<point x="272" y="46" type="line"/>
			<point x="187" y="32" type="line"/>
		</contour>
	</outline>
</glyph>
<glyph name="tbar" format="2">
	<unicode hex="0167"/>
	<advance width="385"/>
	<outline>
		<contour>
			<point x="223" y="-14" type="curve" smooth="yes"/>
			<point x="281" y="-14"/>
			<point x="336" y="21"/>
			<point x="369" y="65" type="curve"/>
			<point x="344" y="92" type="line"/>
			<point x="311" y="54"/>
			<point x="270" y="29"/>
			<point x="229" y="29" type="curve" smooth="yes"/>
			<point x="174" y="29"/>
			<point x="152" y="58"/>
			<point x="155" y="129" type="curve" smooth="yes"/>
			<point x="162" y="267" type="line"/>
			<point x="322" y="267" type="line"/>
			<point x="324" y="306" type="line"/>
			<point x="164" y="306" type="line"/>
			<point x="171" y="461" type="line"/>
			<point x="343" y="461" type="line"/>
			<point x="346" y="503" type="line"/>
			<point x="173" y="503" type="line"/>
			<point x="184" y="674" type="line"/>
			<point x="157" y="674" type="line"/>
			<point x="121" y="503" type="line"/>
			<point x="43" y="495" type="line"/>
			<point x="37" y="461" type="line"/>
			<point x="119" y="461" type="line"/>
			<point x="112" y="306" type="line"/>
			<point x="30" y="306" type="line"/>
			<point x="26" y="267" type="line"/>
			<point x="110" y="267" type="line"/>
			<point x="104" y="133" type="line" smooth="yes"/>
			<point x="100" y="36"/>
			<point x="133" y="-14"/>
		</contour>
	</outline>
</glyph>
<glyph name="Uogonek" format="2">
	<unicode hex="0172"/>
	<advance width="714"/>
	<outline>
		<contour>
			<point x="556" y="-220" type="curve" smooth="yes"/>
			<point x="593" y="-220"/>
			<point x="629" y="-203"/>
			<point x="659" y="-163" type="curve"/>
			<point x="638" y="-140" type="line"/>
			<point x="614" y="-163"/>
			<point x="596" y="-177"/>
			<point x="567" y="-177" type="curve" smooth="yes"/>
			<point x="540" y="-177"/>
			<point x="531" y="-160"/>
			<point x="531" y="-138" type="curve" smooth="yes"/>
			<point x="531" y="-92"/>
			<point x="565" y="-56"/>
			<point x="624" y="0" type="curve"/>
			<point x="662" y="0" type="line"/>
			<point x="665" y="34" type="line"/>
			<point x="580" y="46" type="line"/>
			<point x="605" y="656" type="line"/>
			<point x="681" y="662" type="line"/>
			<point x="687" y="700" type="line"/>
			<point x="486" y="700" type="line"/>
			<point x="482" y="668" type="line"/>
			<point x="560" y="655" type="line"/>
			<point x="554" y="552" type="line" smooth="yes"/>
			<point x="535" y="229"/>
			<point x="441" y="31"/>
			<point x="293" y="31" type="curve" smooth="yes"/>
			<point x="205" y="31"/>
			<point x="167" y="94"/>
			<point x="173" y="230" type="curve" smooth="yes"/>
			<point x="192" y="655" type="line"/>
			<point x="278" y="668" type="line"/>
			<point x="281" y="700" type="line"/>
			<point x="70" y="700" type="line"/>
			<point x="66" y="668" type="line"/>
			<point x="143" y="655" type="line"/>
			<point x="126" y="214" type="line" smooth="yes"/>
			<point x="120" y="61"/>
			<point x="183" y="-14"/>
			<point x="288" y="-14" type="curve" smooth="yes"/>
			<point x="418" y="-14"/>
			<point x="519" y="105"/>
			<point x="557" y="348" type="curve"/>
			<point x="564" y="348" type="line"/>
			<point x="526" y="12" type="line"/>
			<point x="533" y="0" type="line"/>
			<point x="587" y="0" type="line"/>
			<point x="549" y="-28"/>
			<point x="484" y="-80"/>
			<point x="484" y="-152" type="curve" smooth="yes"/>
			<point x="484" y="-196"/>
			<point x="513" y="-220"/>
		</contour>
	</outline>
</glyph>
<glyph name="uogonek" format="2">
	<unicode hex="0173"/>
	<advance width="575"/>
	<outline>
		<contour>
			<point x="11" y="473" type="curve"/>
			<point x="30" y="445" type="line"/>
			<point x="58" y="465"/>
			<point x="78" y="473"/>
			<point x="98" y="473" type="curve" smooth="yes"/>
			<point x="124" y="473"/>
			<point x="125" y="461"/>
			<point x="123" y="436" type="curve" smooth="yes"/>
			<point x="95" y="139" type="line" smooth="yes"/>
			<point x="86" y="45"/>
			<point x="103" y="-14"/>
			<point x="187" y="-14" type="curve" smooth="yes"/>
			<point x="259" y="-14"/>
			<point x="297" y="29"/>
			<point x="337" y="143" type="curve" smooth="yes"/>
			<point x="424" y="390" type="line"/>
			<point x="430" y="389" type="line"/>
			<point x="406" y="74" type="line" smooth="yes"/>
			<point x="402" y="15"/>
			<point x="418" y="-13"/>
			<point x="467" y="-14" type="curve"/>
			<point x="416" y="-58"/>
			<point x="382" y="-97"/>
			<point x="382" y="-152" type="curve" smooth="yes"/>
			<point x="382" y="-192"/>
			<point x="411" y="-220"/>
			<point x="454" y="-220" type="curve" smooth="yes"/>
			<point x="491" y="-220"/>
			<point x="527" y="-203"/>
			<point x="557" y="-163" type="curve"/>
			<point x="536" y="-140" type="line"/>
			<point x="512" y="-163"/>
			<point x="494" y="-177"/>
			<point x="465" y="-177" type="curve" smooth="yes"/>
			<point x="440" y="-177"/>
			<point x="429" y="-160"/>
			<point x="429" y="-138" type="curve" smooth="yes"/>
			<point x="429" y="-77"/>
			<point x="512" y="-15"/>
			<point x="563" y="15" type="curve"/>
			<point x="551" y="48" type="line"/>
			<point x="520" y="35"/>
			<point x="502" y="29"/>
			<point x="483" y="29" type="curve" smooth="yes"/>
			<point x="460" y="29"/>
			<point x="455" y="45"/>
			<point x="456" y="72" type="curve" smooth="yes"/>
			<point x="473" y="503" type="line"/>
			<point x="433" y="503" type="line"/>
			<point x="303" y="167" type="line" smooth="yes"/>
			<point x="257" y="49"/>
			<point x="240" y="29"/>
			<point x="192" y="29" type="curve" smooth="yes"/>
			<point x="150" y="29"/>
			<point x="136" y="56"/>
			<point x="143" y="134" type="curve" smooth="yes"/>
			<point x="172" y="442" type="line" smooth="yes"/>
			<point x="177" y="494"/>
			<point x="155" y="517"/>
			<point x="115" y="517" type="curve" smooth="yes"/>
			<point x="77" y="517"/>
			<point x="34" y="494"/>
		</contour>
	</outline>
</glyph>
<glyph name="florin" format="2">
	<unicode hex="0192"/>
	<advance width="526"/>
	<outline>
		<contour>
			<point x="57" y="-154" type="curve" smooth="yes"/>
			<point x="21" y="-154"/>
			<point x="8" y="-138"/>
			<point x="19" y="-110" type="curve" smooth="yes"/>
			<point x="25" y="-94" type="line"/>
			<point x="14" y="-81"/>
			<point x="-2" y="-74"/>
			<point x="-21" y="-74" type="curve" smooth="yes"/>
			<point x="-43" y="-74"/>
			<point x="-58" y="-93"/>
			<point x="-58" y="-118" type="curve" smooth="yes"/>
			<point x="-58" y="-158"/>
			<point x="-17" y="-193"/>
			<point x="55" y="-193" type="curve" smooth="yes"/>
			<point x="149" y="-193"/>
			<point x="207" y="-131"/>
			<point x="229" y="43" type="curve" smooth="yes"/>
			<point x="274" y="398" type="line"/>
			<point x="424" y="398" type="line"/>
			<point x="429" y="435" type="line"/>
			<point x="277" y="435" type="line"/>
			<point x="289" y="515" type="line" smooth="yes"/>
			<point x="305" y="624"/>
			<point x="340" y="675"/>
			<point x="413" y="675" type="curve" smooth="yes"/>
			<point x="450" y="675"/>
			<point x="463" y="659"/>
			<point x="452" y="631" type="curve" smooth="yes"/>
			<point x="446" y="615" type="line"/>
			<point x="457" y="602"/>
			<point x="473" y="595"/>
			<point x="492" y="595" type="curve" smooth="yes"/>
			<point x="514" y="595"/>
			<point x="529" y="614"/>
			<point x="529" y="639" type="curve" smooth="yes"/>
			<point x="529" y="679"/>
			<point x="488" y="714"/>
			<point x="416" y="714" type="curve" smooth="yes"/>
			<point x="297" y="714"/>
			<point x="250" y="629"/>
			<point x="233" y="484" type="curve" smooth="yes"/>
			<point x="227" y="435" type="line"/>
			<point x="144" y="435" type="line"/>
			<point x="139" y="398" type="line"/>
			<point x="224" y="398" type="line"/>
			<point x="173" y="-1" type="line" smooth="yes"/>
			<point x="159" y="-110"/>
			<point x="116" y="-154"/>
		</contour>
	</outline>
</glyph>
<glyph name="Ohorn" format="2">
	<unicode hex="01A0"/>
	<advance width="753"/>
	<outline>
		<contour>
			<point x="344" y="-14" type="curve" smooth="yes"/>
			<point x="532" y="-14"/>
			<point x="644" y="144"/>
			<point x="644" y="378" type="curve" smooth="yes"/>
			<point x="644" y="420"/>
			<point x="640" y="458"/>
			<point x="632" y="493" type="curve"/>
			<point x="726" y="535"/>
			<point x="768" y="616"/>
			<point x="768" y="693" type="curve" smooth="yes"/>
			<point x="768" y="728"/>
			<point x="747" y="758"/>
			<point x="713" y="758" type="curve" smooth="yes"/>
			<point x="677" y="758"/>
			<point x="658" y="733"/>
			<point x="658" y="706" type="curve" smooth="yes"/>
			<point x="658" y="694"/>
			<point x="661" y="683"/>
			<point x="667" y="675" type="curve"/>
			<point x="696" y="667" type="line" smooth="yes"/>
			<point x="709" y="663"/>
			<point x="713" y="660"/>
			<point x="713" y="647" type="curve" smooth="yes"/>
			<point x="713" y="593"/>
			<point x="676" y="553"/>
			<point x="623" y="525" type="curve"/>
			<point x="584" y="644"/>
			<point x="496" y="715"/>
			<point x="373" y="715" type="curve" smooth="yes"/>
			<point x="182" y="715"/>
			<point x="65" y="561"/>
			<point x="65" y="331" type="curve" smooth="yes"/>
			<point x="65" y="120"/>
			<point x="170" y="-14"/>
		</contour>
		<contour>
			<point x="353" y="31" type="curve" smooth="yes"/>
			<point x="200" y="31"/>
			<point x="114" y="146"/>
			<point x="116" y="346" type="curve" smooth="yes"/>
			<point x="118" y="547"/>
			<point x="217" y="670"/>
			<point x="366" y="670" type="curve" smooth="yes"/>
			<point x="514" y="670"/>
			<point x="595" y="559"/>
			<point x="593" y="367" type="curve" smooth="yes"/>
			<point x="591" y="155"/>
			<point x="501" y="31"/>
		</contour>
	</outline>
</glyph>
<glyph name="oogonek" format="2">
	<unicode hex="01EB"/>
	<advance width="519"/>
	<outline>
		<contour>
			<point x="262" y="-220" type="curve" smooth="yes"/>
			<point x="299" y="-220"/>
			<point x="335" y="-203"/>
			<point x="365" y="-163" type="curve"/>
			<point x="344" y="-140" type="line"/>
			<point x="320" y="-163"/>
			<point x="302" y="-177"/>
			<point x="273" y="-177" type="curve" smooth="yes"/>
			<point x="246" y="-177"/>
			<point x="237" y="-160"/>
			<point x="237" y="-138" type="curve" smooth="yes"/>
			<point x="237" y="-91"/>
			<point x="274" y="-53"/>
			<point x="336" y="6" type="curve"/>
			<point x="426" y="49"/>
			<point x="464" y="157"/>
			<point x="464" y="274" type="curve" smooth="yes"/>
			<point x="464" y="429"/>
			<point x="383" y="517"/>
			<point x="277" y="517" type="curve" smooth="yes"/>
			<point x="117" y="517"/>
			<point x="56" y="390"/>
			<point x="56" y="235" type="curve" smooth="yes"/>
			<point x="56" y="84"/>
			<point x="123" y="-14"/>
			<point x="241" y="-14" type="curve" smooth="yes"/>
			<point x="254" y="-14"/>
			<point x="266" y="-13"/>
			<point x="278" y="-11" type="curve"/>
			<point x="240" y="-41"/>
			<point x="190" y="-89"/>
			<point x="190" y="-152" type="curve" smooth="yes"/>
			<point x="190" y="-196"/>
			<point x="219" y="-220"/>
		</contour>
		<contour>
			<point x="247" y="25" type="curve" smooth="yes"/>
			<point x="153" y="25"/>
			<point x="105" y="106"/>
			<point x="105" y="229" type="curve" smooth="yes"/>
			<point x="105" y="365"/>
			<point x="141" y="479"/>
			<point x="266" y="479" type="curve" smooth="yes"/>
			<point x="375" y="479"/>
			<point x="415" y="394"/>
			<point x="415" y="275" type="curve" smooth="yes"/>
			<point x="415" y="145"/>
			<point x="374" y="25"/>
		</contour>
	</outline>
</glyph>
<glyph name="jdotless" format="2">
	<unicode hex="0237"/>
	<advance width="269"/>
	<outline>
		<contour>
			<point x="160" y="122" type="curve" smooth="yes"/>
			<point x="178" y="409" type="line"/>
			<point x="183" y="485"/>
			<point x="175" y="517"/>
			<point x="122" y="517" type="curve" smooth="yes"/>
			<point x="95" y="517"/>
			<point x="46" y="502"/>
			<point x="21" y="488" type="curve"/>
			<point x="33" y="454" type="line"/>
			<point x="61" y="466"/>
			<point x="84" y="473"/>
			<point x="103" y="473" type="curve" smooth="yes"/>
			<point x="124" y="473"/>
			<point x="130" y="458"/>
			<point x="128" y="421" type="curve" smooth="yes"/>
			<point x="106" y="19" type="line" smooth="yes"/>
			<point x="103" y="-30"/>
			<point x="101" y="-62"/>
			<point x="97" y="-90" type="curve" smooth="yes"/>
			<point x="87" y="-167"/>
			<point x="51" y="-175"/>
			<point x="23" y="-160" type="curve" smooth="yes"/>
			<point x="-7" y="-144" type="line"/>
			<point x="-19" y="-157"/>
			<point x="-28" y="-171"/>
			<point x="-28" y="-189" type="curve" smooth="yes"/>
			<point x="-28" y="-212"/>
			<point x="-12" y="-229"/>
			<point x="20" y="-229" type="curve" smooth="yes"/>
			<point x="53" y="-229"/>
			<point x="77" y="-214"/>
			<point x="101" y="-178" type="curve" smooth="yes"/>
			<point x="131" y="-134"/>
			<point x="150" y="-44"/>
		</contour>
	</outline>
	<anchor name="top" x="117" y="550"/>
</glyph>
<glyph name="schwa" format="2">
	<unicode hex="0259"/>
	<advance width="453"/>
	<outline>
		<contour>
			<point x="177" y="-14" type="curve" smooth="yes"/>
			<point x="310" y="-14"/>
			<point x="399" y="119"/>
			<point x="399" y="278" type="curve" smooth="yes"/>
			<point x="399" y="409"/>
			<point x="345" y="517"/>
			<point x="218" y="517" type="curve" smooth="yes"/>
			<point x="142" y="517"/>
			<point x="88" y="477"/>
			<point x="44" y="434" type="curve"/>
			<point x="69" y="407" type="line"/>
			<point x="123" y="456"/>
			<point x="162" y="474"/>
			<point x="211" y="474" type="curve" smooth="yes"/>
			<point x="308" y="474"/>
			<point x="345" y="388"/>
			<point x="349" y="303" type="curve"/>
			<point x="214" y="271" type="line" smooth="yes"/>
			<point x="134" y="252"/>
			<point x="45" y="219"/>
			<point x="45" y="112" type="curve" smooth="yes"/>
			<point x="45" y="43"/>
			<point x="84" y="-14"/>
		</contour>
		<contour>
			<point x="178" y="27" type="curve" smooth="yes"/>
			<point x="108" y="27"/>
			<point x="94" y="72"/>
			<point x="94" y="116" type="curve" smooth="yes"/>
			<point x="94" y="178"/>
			<point x="136" y="210"/>
			<point x="209" y="228" type="curve" smooth="yes"/>
			<point x="350" y="262" type="line"/>
			<point x="345" y="127"/>
			<point x="279" y="27"/>
		</contour>
	</outline>
</glyph>
<glyph name="commaturnedmod" format="2">
	<unicode hex="02BB"/>
	<outline>
		<contour>
			<point x="40" y="784" type="line"/>
			<point x="-13" y="738"/>
			<point x="-36" y="682"/>
			<point x="-36" y="641" type="curve" smooth="yes"/>
			<point x="-36" y="601"/>
			<point x="-18" y="581"/>
			<point x="12" y="581" type="curve" smooth="yes"/>
			<point x="51" y="581"/>
			<point x="67" y="617"/>
			<point x="51" y="653" type="curve"/>
			<point x="26" y="662" type="line" smooth="yes"/>
			<point x="15" y="666"/>
			<point x="12" y="671"/>
			<point x="12" y="680" type="curve" smooth="yes"/>
			<point x="12" y="698"/>
			<point x="33" y="738"/>
			<point x="58" y="763" type="curve"/>
		</contour>
	</outline>
	<anchor name="_top" x="10" y="550"/>
</glyph>
<glyph name="ringhalfright" format="2">
	<unicode hex="02BE"/>
	<advance width="500"/>
	<outline>
		<contour>
			<point x="244" y="781" type="curve" smooth="yes"/>
			<point x="241" y="781" type="line"/>
			<point x="240" y="744" type="line"/>
			<point x="242" y="744" type="line" smooth="yes"/>
			<point x="289" y="744"/>
			<point x="303" y="716"/>
			<point x="303" y="685" type="curve" smooth="yes"/>
			<point x="303" y="653"/>
			<point x="286" y="624"/>
			<point x="238" y="624" type="curve" smooth="yes"/>
			<point x="236" y="624" type="line"/>
			<point x="235" y="588" type="line"/>
			<point x="237" y="588" type="line"/>
			<point x="311" y="588"/>
			<point x="347" y="636"/>
			<point x="347" y="687" type="curve" smooth="yes"/>
			<point x="347" y="743"/>
			<point x="317" y="781"/>
		</contour>
	</outline>
	<anchor name="_top" x="268" y="550"/>
</glyph>
<glyph name="ringhalfleft" format="2">
	<unicode hex="02BF"/>
	<advance width="500"/>
	<outline>
		<contour>
			<point x="307" y="588" type="curve" smooth="yes"/>
			<point x="310" y="588" type="line"/>
			<point x="311" y="625" type="line"/>
			<point x="309" y="625" type="line" smooth="yes"/>
			<point x="262" y="625"/>
			<point x="248" y="653"/>
			<point x="248" y="684" type="curve" smooth="yes"/>
			<point x="248" y="716"/>
			<point x="265" y="745"/>
			<point x="313" y="745" type="curve" smooth="yes"/>
			<point x="315" y="745" type="line"/>
			<point x="316" y="781" type="line"/>
			<point x="314" y="781" type="line"/>
			<point x="240" y="781"/>
			<point x="204" y="733"/>
			<point x="204" y="682" type="curve" smooth="yes"/>
			<point x="204" y="626"/>
			<point x="234" y="588"/>
		</contour>
	</outline>
	<anchor name="_top" x="268" y="550"/>
</glyph>
<glyph name="circumflex" format="2">
	<unicode hex="02C6"/>
	<advance width="500"/>
	<outline>
		<contour>
			<point x="418" y="604" type="line"/>
			<point x="300" y="753" type="line"/>
			<point x="292" y="756"/>
			<point x="284" y="759"/>
			<point x="275" y="759" type="curve" smooth="yes"/>
			<point x="259" y="759"/>
			<point x="249" y="750"/>
			<point x="240" y="738" type="curve" smooth="yes"/>
			<point x="134" y="604" type="line"/>
			<point x="151" y="586" type="line"/>
			<point x="274" y="697" type="line"/>
			<point x="401" y="586" type="line"/>
		</contour>
	</outline>
	<anchor name="_top" x="268" y="550"/>
</glyph>
<glyph name="breve" format="2">
	<unicode hex="02D8"/>
	<advance width="500"/>
	<outline>
		<contour>
			<point x="269" y="596" type="curve" smooth="yes"/>
			<point x="359" y="596"/>
			<point x="404" y="679"/>
			<point x="412" y="751" type="curve"/>
			<point x="383" y="755" type="line"/>
			<point x="368" y="694"/>
			<point x="333" y="644"/>
			<point x="271" y="644" type="curve" smooth="yes"/>
			<point x="208" y="644"/>
			<point x="185" y="683"/>
			<point x="171" y="755" type="curve"/>
			<point x="140" y="750" type="line"/>
			<point x="149" y="661"/>
			<point x="181" y="596"/>
		</contour>
	</outline>
	<anchor name="_top" x="268" y="550"/>
</glyph>
<glyph name="dotaccent" format="2">
	<unicode hex="02D9"/>
	<advance width="500"/>
	<outline>
		<contour>
			<point x="229" y="683" type="curve" smooth="yes"/>
			<point x="229" y="656"/>
			<point x="246" y="637"/>
			<point x="270" y="637" type="curve" smooth="yes"/>
			<point x="298" y="637"/>
			<point x="313" y="661"/>
			<point x="313" y="687" type="curve" smooth="yes"/>
			<point x="313" y="716"/>
			<point x="299" y="734"/>
			<point x="271" y="734" type="curve" smooth="yes"/>
			<point x="246" y="734"/>
			<point x="229" y="712"/>
		</contour>
	</outline>
	<anchor name="_top" x="268" y="550"/>
</glyph>
<glyph name="ring" format="2">
	<unicode hex="02DA"/>
	<advance width="500"/>
	<outline>
		<contour>
			<point x="269" y="591" type="curve" smooth="yes"/>
			<point x="329" y="591"/>
			<point x="368" y="629"/>
			<point x="368" y="691" type="curve" smooth="yes"/>
			<point x="368" y="747"/>
			<point x="337" y="779"/>
			<point x="278" y="779" type="curve" smooth="yes"/>
			<point x="217" y="779"/>
			<point x="179" y="739"/>
			<point x="179" y="682" type="curve" smooth="yes"/>
			<point x="179" y="627"/>
			<point x="204" y="591"/>
		</contour>
		<contour>
			<point x="272" y="626" type="curve" smooth="yes"/>
			<point x="230" y="626"/>
			<point x="221" y="649"/>
			<point x="221" y="683" type="curve" smooth="yes"/>
			<point x="221" y="719"/>
			<point x="240" y="745"/>
			<point x="275" y="745" type="curve" smooth="yes"/>
			<point x="312" y="745"/>
			<point x="325" y="725"/>
			<point x="325" y="687" type="curve" smooth="yes"/>
			<point x="325" y="651"/>
			<point x="309" y="626"/>
		</contour>
	</outline>
	<anchor name="_top" x="268" y="550"/>
</glyph>
<glyph name="ogonek" format="2">
	<unicode hex="02DB"/>
	<advance width="500"/>
	<outline>
		<contour>
			<point x="318" y="9" type="curve"/>
			<point x="284" y="9" type="line"/>
			<point x="250" y="-16"/>
			<point x="169" y="-72"/>
			<point x="169" y="-152" type="curve" smooth="yes"/>
			<point x="169" y="-196"/>
			<point x="198" y="-220"/>
			<point x="241" y="-220" type="curve" smooth="yes"/>
			<point x="278" y="-220"/>
			<point x="314" y="-203"/>
			<point x="344" y="-163" type="curve"/>
			<point x="323" y="-140" type="line"/>
			<point x="299" y="-163"/>
			<point x="281" y="-177"/>
			<point x="252" y="-177" type="curve" smooth="yes"/>
			<point x="225" y="-177"/>
			<point x="216" y="-160"/>
			<point x="216" y="-138" type="curve" smooth="yes"/>
			<point x="216" y="-90"/>
			<point x="254" y="-52"/>
		</contour>
	</outline>
	<anchor name="_bottom" x="248" y="-30"/>
</glyph>
<glyph name="tilde" format="2">
	<unicode hex="02DC"/>
	<advance width="500"/>
	<outline>
		<contour>
			<point x="344" y="622" type="curve" smooth="yes"/>
			<point x="380" y="622"/>
			<point x="401" y="633"/>
			<point x="427" y="693" type="curve"/>
			<point x="402" y="707" type="line"/>
			<point x="383" y="676"/>
			<point x="371" y="669"/>
			<point x="355" y="669" type="curve" smooth="yes"/>
			<point x="335" y="669"/>
			<point x="312" y="680"/>
			<point x="277" y="695" type="curve" smooth="yes"/>
			<point x="234" y="714"/>
			<point x="217" y="720"/>
			<point x="197" y="720" type="curve" smooth="yes"/>
			<point x="163" y="720"/>
			<point x="142" y="712"/>
			<point x="116" y="650" type="curve"/>
			<point x="139" y="636" type="line"/>
			<point x="158" y="667"/>
			<point x="169" y="673"/>
			<point x="187" y="673" type="curve" smooth="yes"/>
			<point x="200" y="673"/>
			<point x="211" y="670"/>
			<point x="263" y="647" type="curve" smooth="yes"/>
			<point x="302" y="630"/>
			<point x="315" y="622"/>
		</contour>
	</outline>
	<anchor name="_top" x="268" y="550"/>
</glyph>
<glyph name="hungarumlaut" format="2">
	<unicode hex="02DD"/>
	<advance width="500"/>
	<outline>
		<contour>
			<point x="398" y="715" type="curve" smooth="yes"/>
			<point x="311" y="602" type="line"/>
			<point x="327" y="586" type="line"/>
			<point x="478" y="708" type="line"/>
			<point x="483" y="735"/>
			<point x="470" y="753"/>
			<point x="451" y="753" type="curve" smooth="yes"/>
			<point x="434" y="753"/>
			<point x="421" y="744"/>
		</contour>
		<contour>
			<point x="244" y="718" type="curve" smooth="yes"/>
			<point x="167" y="602" type="line"/>
			<point x="183" y="586" type="line"/>
			<point x="324" y="711" type="line"/>
			<point x="329" y="738"/>
			<point x="316" y="756"/>
			<point x="297" y="756" type="curve" smooth="yes"/>
			<point x="280" y="756"/>
			<point x="264" y="748"/>
		</contour>
	</outline>
	<anchor name="_top" x="268" y="550"/>
</glyph>
<glyph name="hookabovecomb" format="2">
	<unicode hex="0309"/>
	<outline>
		<contour>
			<point x="19" y="757" type="curve" smooth="yes"/>
			<point x="50" y="757"/>
			<point x="71" y="747"/>
			<point x="71" y="726" type="curve" smooth="yes"/>
			<point x="71" y="682"/>
			<point x="-7" y="673"/>
			<point x="-10" y="616" type="curve" smooth="yes"/>
			<point x="-12" y="580" type="line"/>
			<point x="31" y="580" type="line"/>
			<point x="32" y="605" type="line" smooth="yes"/>
			<point x="34" y="648"/>
			<point x="120" y="662"/>
			<point x="120" y="725" type="curve" smooth="yes"/>
			<point x="120" y="777"/>
			<point x="66" y="794"/>
			<point x="25" y="794" type="curve" smooth="yes"/>
			<point x="-38" y="794"/>
			<point x="-81" y="760"/>
			<point x="-81" y="720" type="curve" smooth="yes"/>
			<point x="-81" y="702"/>
			<point x="-71" y="687"/>
			<point x="-52" y="687" type="curve" smooth="yes"/>
			<point x="-27" y="687"/>
			<point x="-16" y="701"/>
			<point x="-18" y="722" type="curve"/>
			<point x="-27" y="731" type="line" smooth="yes"/>
			<point x="-29" y="733"/>
			<point x="-29" y="734"/>
			<point x="-29" y="736" type="curve" smooth="yes"/>
			<point x="-29" y="745"/>
			<point x="-16" y="757"/>
		</contour>
	</outline>
	<anchor name="_top" x="10" y="550"/>
</glyph>
<glyph name="dblgravecomb" format="2">
	<unicode hex="030F"/>
	<outline>
		<contour>
			<point x="-29" y="690" type="curve" smooth="yes"/>
			<point x="86" y="584" type="line"/>
			<point x="106" y="602" type="line"/>
			<point x="-4" y="751" type="line"/>
			<point x="-31" y="759"/>
			<point x="-49" y="748"/>
			<point x="-49" y="728" type="curve" smooth="yes"/>
			<point x="-49" y="712"/>
			<point x="-44" y="704"/>
		</contour>
		<contour>
			<point x="-171" y="682" type="curve" smooth="yes"/>
			<point x="-55" y="584" type="line"/>
			<point x="-38" y="602" type="line"/>
			<point x="-152" y="750" type="line"/>
			<point x="-174" y="755"/>
			<point x="-198" y="747"/>
			<point x="-198" y="724" type="curve" smooth="yes"/>
			<point x="-198" y="710"/>
			<point x="-190" y="698"/>
		</contour>
	</outline>
	<anchor name="_top" x="11" y="550"/>
</glyph>
<glyph name="commaaccentcomb" format="2">
	<unicode hex="0326"/>
	<outline>
		<contour>
			<point x="-38" y="-262" type="line"/>
			<point x="15" y="-216"/>
			<point x="38" y="-160"/>
			<point x="38" y="-119" type="curve" smooth="yes"/>
			<point x="38" y="-79"/>
			<point x="20" y="-59"/>
			<point x="-10" y="-59" type="curve" smooth="yes"/>
			<point x="-49" y="-59"/>
			<point x="-65" y="-95"/>
			<point x="-49" y="-131" type="curve"/>
			<point x="-24" y="-140" type="line" smooth="yes"/>
			<point x="-13" y="-144"/>
			<point x="-10" y="-149"/>
			<point x="-10" y="-158" type="curve" smooth="yes"/>
			<point x="-10" y="-176"/>
			<point x="-31" y="-216"/>
			<point x="-56" y="-241" type="curve"/>
		</contour>
	</outline>
	<anchor name="_bottom" x="-10" y="-30"/>
</glyph>
<glyph name="ypogegrammeni" format="2">
	<unicode hex="037A"/>
	<advance width="235"/>
	<outline>
		<contour>
			<point x="101" y="-228" type="curve" smooth="yes"/>
			<point x="129" y="-228"/>
			<point x="160" y="-219"/>
			<point x="183" y="-199" type="curve"/>
			<point x="173" y="-175" type="line"/>
			<point x="155" y="-184"/>
			<point x="131" y="-188"/>
			<point x="118" y="-188" type="curve" smooth="yes"/>
			<point x="76" y="-188"/>
			<point x="70" y="-154"/>
			<point x="72" y="-117" type="curve" smooth="yes"/>
			<point x="73" y="-99"/>
			<point x="75" y="-82"/>
			<point x="79" y="-52" type="curve"/>
			<point x="72" y="-44" type="line"/>
			<point x="32" y="-49" type="line"/>
			<point x="27" y="-127" type="line" smooth="yes"/>
			<point x="24" y="-194"/>
			<point x="51" y="-228"/>
		</contour>
	</outline>
	<anchor name="_bottom" x="57" y="-30"/>
</glyph>
<glyph name="Delta" format="2">
	<unicode hex="0394"/>
	<advance width="550"/>
	<outline>
		<contour>
			<point x="32" y="0" type="line"/>
			<point x="528" y="0" type="line"/>
			<point x="532" y="32" type="line"/>
			<point x="324" y="701" type="line"/>
			<point x="278" y="699" type="line"/>
			<point x="27" y="32" type="line"/>
		</contour>
		<contour>
			<point x="83" y="60" type="line"/>
			<point x="296" y="636" type="line"/>
			<point x="297" y="636" type="line"/>
			<point x="471" y="60" type="line"/>
		</contour>
	</outline>
</glyph>
<glyph name="Lambda" format="2">
	<unicode hex="039B"/>
	<advance width="648"/>
	<outline>
		<contour>
			<point x="16" y="0" type="line"/>
			<point x="233" y="0" type="line"/>
			<point x="237" y="32" type="line"/>
			<point x="145" y="44" type="line"/>
			<point x="344" y="636" type="line"/>
			<point x="345" y="636" type="line"/>
			<point x="504" y="44" type="line"/>
			<point x="419" y="32" type="line"/>
			<point x="414" y="0" type="line"/>
			<point x="636" y="0" type="line"/>
			<point x="640" y="32" type="line"/>
			<point x="556" y="44" type="line"/>
			<point x="372" y="701" type="line"/>
			<point x="326" y="699" type="line"/>
			<point x="100" y="44" type="line"/>
			<point x="21" y="32" type="line"/>
		</contour>
	</outline>
</glyph>
<glyph name="Xi" format="2">
	<unicode hex="039E"/>
	<advance width="587"/>
	<outline>
		<contour>
			<point x="29" y="0" type="line"/>
			<point x="525" y="0" type="line"/>
			<point x="547" y="157" type="line"/>
			<point x="511" y="157" type="line"/>
			<point x="501" y="120" type="line" smooth="yes"/>
			<point x="488" y="71"/>
			<point x="468" y="59"/>
			<point x="408" y="59" type="curve" smooth="yes"/>
			<point x="153" y="59" type="line" smooth="yes"/>
			<point x="93" y="59"/>
			<point x="79" y="73"/>
			<point x="74" y="120" type="curve" smooth="yes"/>
			<point x="70" y="157" type="line"/>
			<point x="34" y="157" type="line"/>
		</contour>
		<contour>
			<point x="125" y="330" type="line"/>
			<point x="472" y="330" type="line"/>
			<point x="474" y="380" type="line"/>
			<point x="127" y="380" type="line"/>
		</contour>
		<contour>
			<point x="104" y="542" type="line"/>
			<point x="120" y="582" type="line" smooth="yes"/>
			<point x="139" y="631"/>
			<point x="161" y="640"/>
			<point x="209" y="640" type="curve" smooth="yes"/>
			<point x="404" y="641" type="line" smooth="yes"/>
			<point x="467" y="641"/>
			<point x="486" y="637"/>
			<point x="500" y="582" type="curve" smooth="yes"/>
			<point x="510" y="542" type="line"/>
			<point x="545" y="547" type="line"/>
			<point x="530" y="700" type="line"/>
			<point x="109" y="700" type="line"/>
			<point x="70" y="547" type="line"/>
		</contour>
	</outline>
</glyph>
<glyph name="Sigma" format="2">
	<unicode hex="03A3"/>
	<advance width="598"/>
	<outline>
		<contour>
			<point x="62" y="0" type="line"/>
			<point x="531" y="0" type="line"/>
			<point x="555" y="167" type="line"/>
			<point x="519" y="167" type="line"/>
			<point x="512" y="142" type="line" smooth="yes"/>
			<point x="492" y="69"/>
			<point x="482" y="49"/>
			<point x="418" y="49" type="curve" smooth="yes"/>
			<point x="116" y="49" type="line"/>
			<point x="118" y="35" type="line"/>
			<point x="338" y="344" type="line"/>
			<point x="338" y="350" type="line"/>
			<point x="160" y="661" type="line"/>
			<point x="426" y="661" type="line" smooth="yes"/>
			<point x="486" y="661"/>
			<point x="500" y="648"/>
			<point x="521" y="569" type="curve" smooth="yes"/>
			<point x="528" y="542" type="line"/>
			<point x="563" y="547" type="line"/>
			<point x="549" y="700" type="line"/>
			<point x="95" y="700" type="line"/>
			<point x="89" y="666" type="line"/>
			<point x="284" y="334" type="line"/>
			<point x="62" y="21" type="line"/>
		</contour>
	</outline>
</glyph>
<glyph name="Phi" format="2">
	<unicode hex="03A6"/>
	<advance width="768"/>
	<outline>
		<contour>
			<point x="267" y="-20" type="line"/>
			<point x="497" y="-20" type="line"/>
			<point x="500" y="13" type="line"/>
			<point x="403" y="25" type="line"/>
			<point x="405" y="91" type="line"/>
			<point x="617" y="91"/>
			<point x="719" y="208"/>
			<point x="719" y="364" type="curve" smooth="yes"/>
			<point x="719" y="491"/>
			<point x="635" y="612"/>
			<point x="427" y="622" type="curve"/>
			<point x="429" y="685" type="line"/>
			<point x="516" y="698" type="line"/>
			<point x="519" y="730" type="line"/>
			<point x="298" y="730" type="line"/>
			<point x="294" y="698" type="line"/>
			<point x="382" y="685" type="line"/>
			<point x="380" y="623" type="line"/>
			<point x="157" y="621"/>
			<point x="66" y="496"/>
			<point x="66" y="353" type="curve" smooth="yes"/>
			<point x="66" y="229"/>
			<point x="142" y="103"/>
			<point x="359" y="93" type="curve"/>
			<point x="356" y="26" type="line"/>
			<point x="271" y="12" type="line"/>
		</contour>
		<contour>
			<point x="360" y="135" type="line"/>
			<point x="174" y="148"/>
			<point x="117" y="248"/>
			<point x="117" y="357" type="curve" smooth="yes"/>
			<point x="117" y="514"/>
			<point x="224" y="582"/>
			<point x="378" y="581" type="curve"/>
		</contour>
		<contour>
			<point x="407" y="133" type="curve"/>
			<point x="425" y="580" type="line"/>
			<point x="608" y="567"/>
			<point x="668" y="468"/>
			<point x="668" y="362" type="curve" smooth="yes"/>
			<point x="668" y="200"/>
			<point x="565" y="133"/>
		</contour>
	</outline>
</glyph>
<glyph name="Omega" format="2">
	<unicode hex="03A9"/>
	<advance width="671"/>
	<outline>
		<contour>
			<point x="37" y="0" type="line"/>
			<point x="268" y="0" type="line"/>
			<point x="275" y="145" type="line"/>
			<point x="156" y="174"/>
			<point x="101" y="270"/>
			<point x="101" y="397" type="curve" smooth="yes"/>
			<point x="101" y="595"/>
			<point x="231" y="670"/>
			<point x="350" y="670" type="curve" smooth="yes"/>
			<point x="499" y="670"/>
			<point x="578" y="585"/>
			<point x="578" y="429" type="curve" smooth="yes"/>
			<point x="578" y="276"/>
			<point x="496" y="172"/>
			<point x="388" y="146" type="curve"/>
			<point x="382" y="0" type="line"/>
			<point x="622" y="0" type="line"/>
			<point x="644" y="157" type="line"/>
			<point x="608" y="157" type="line"/>
			<point x="603" y="138" type="line" smooth="yes"/>
			<point x="588" y="80"/>
			<point x="571" y="64"/>
			<point x="513" y="64" type="curve" smooth="yes"/>
			<point x="431" y="64" type="line"/>
			<point x="434" y="117" type="line"/>
			<point x="557" y="164"/>
			<point x="628" y="285"/>
			<point x="628" y="430" type="curve" smooth="yes"/>
			<point x="628" y="599"/>
			<point x="529" y="715"/>
			<point x="364" y="715" type="curve" smooth="yes"/>
			<point x="199" y="715"/>
			<point x="50" y="624"/>
			<point x="50" y="388" type="curve" smooth="yes"/>
			<point x="50" y="272"/>
			<point x="98" y="164"/>
			<point x="226" y="112" type="curve"/>
			<point x="224" y="64" type="line"/>
			<point x="141" y="64" type="line" smooth="yes"/>
			<point x="90" y="64"/>
			<point x="73" y="80"/>
			<point x="61" y="138" type="curve" smooth="yes"/>
			<point x="57" y="157" type="line"/>
			<point x="21" y="157" type="line"/>
		</contour>
	</outline>
	<anchor name="bottom" x="333" y="-45"/>
	<anchor name="side" x="690" y="217"/>
	<anchor name="topleft" x="30" y="700"/>
</glyph>
<glyph name="alpha" format="2">
	<unicode hex="03B1"/>
	<advance width="612"/>
	<outline>
		<contour>
			<point x="226" y="-14" type="curve" smooth="yes"/>
			<point x="316" y="-14"/>
			<point x="363" y="56"/>
			<point x="402" y="149" type="curve"/>
			<point x="403" y="149" type="line"/>
			<point x="414" y="39"/>
			<point x="423" y="-14"/>
			<point x="483" y="-14" type="curve" smooth="yes"/>
			<point x="520" y="-14"/>
			<point x="553" y="7"/>
			<point x="580" y="28" type="curve"/>
			<point x="562" y="55" type="line"/>
			<point x="534" y="36"/>
			<point x="517" y="29"/>
			<point x="496" y="29" type="curve" smooth="yes"/>
			<point x="461" y="29"/>
			<point x="459" y="61"/>
			<point x="441" y="186" type="curve" smooth="yes"/>
			<point x="436" y="221" type="line"/>
			<point x="471" y="293"/>
			<point x="513" y="397"/>
			<point x="554" y="506" type="curve"/>
			<point x="550" y="510" type="line"/>
			<point x="494" y="504" type="line"/>
			<point x="477" y="451"/>
			<point x="461" y="392"/>
			<point x="433" y="309" type="curve"/>
			<point x="432" y="309" type="line"/>
			<point x="417" y="473"/>
			<point x="342" y="516"/>
			<point x="263" y="516" type="curve" smooth="yes"/>
			<point x="131" y="516"/>
			<point x="62" y="389"/>
			<point x="62" y="231" type="curve" smooth="yes"/>
			<point x="62" y="104"/>
			<point x="108" y="-14"/>
		</contour>
		<contour>
			<point x="229" y="25" type="curve" smooth="yes"/>
			<point x="165" y="25"/>
			<point x="111" y="79"/>
			<point x="111" y="237" type="curve" smooth="yes"/>
			<point x="111" y="366"/>
			<point x="152" y="479"/>
			<point x="260" y="479" type="curve" smooth="yes"/>
			<point x="336" y="479"/>
			<point x="389" y="406"/>
			<point x="394" y="261" type="curve" smooth="yes"/>
			<point x="396" y="220" type="line"/>
			<point x="339" y="83"/>
			<point x="293" y="25"/>
		</contour>
	</outline>
	<anchor name="bottom" x="233" y="-30"/>
	<anchor name="top" x="272" y="550"/>
</glyph>
<glyph name="beta" format="2">
	<unicode hex="03B2"/>
	<advance width="524"/>
	<outline>
		<contour>
			<point x="250" y="-14" type="curve" smooth="yes"/>
			<point x="394" y="-14"/>
			<point x="438" y="102"/>
			<point x="438" y="202" type="curve" smooth="yes"/>
			<point x="438" y="283"/>
			<point x="401" y="362"/>
			<point x="334" y="391" type="curve"/>
			<point x="403" y="438"/>
			<point x="482" y="524"/>
			<point x="482" y="636" type="curve" smooth="yes"/>
			<point x="482" y="725"/>
			<point x="438" y="782"/>
			<point x="333" y="782" type="curve" smooth="yes"/>
			<point x="130" y="782"/>
			<point x="53" y="522"/>
			<point x="53" y="309" type="curve" smooth="yes"/>
			<point x="53" y="154"/>
			<point x="82" y="-14"/>
		</contour>
		<contour>
			<point x="254" y="28" type="curve" smooth="yes"/>
			<point x="135" y="28"/>
			<point x="102" y="145"/>
			<point x="102" y="324" type="curve"/>
			<point x="164" y="327"/>
			<point x="243" y="345"/>
			<point x="301" y="372" type="curve"/>
			<point x="347" y="352"/>
			<point x="389" y="264"/>
			<point x="389" y="195" type="curve" smooth="yes"/>
			<point x="389" y="109"/>
			<point x="346" y="28"/>
		</contour>
		<contour>
			<point x="102" y="360" type="curve"/>
			<point x="109" y="525"/>
			<point x="181" y="744"/>
			<point x="332" y="744" type="curve" smooth="yes"/>
			<point x="408" y="744"/>
			<point x="433" y="691"/>
			<point x="433" y="629" type="curve" smooth="yes"/>
			<point x="433" y="534"/>
			<point x="360" y="384"/>
		</contour>
	</outline>
</glyph>
<glyph name="gamma" format="2">
	<unicode hex="03B3"/>
	<advance width="506"/>
	<outline>
		<contour>
			<point x="182" y="-186" type="curve" smooth="yes"/>
			<point x="190" y="-186"/>
			<point x="198" y="-186"/>
			<point x="216" y="-178" type="curve"/>
			<point x="219" y="-163"/>
			<point x="223" y="-144"/>
			<point x="223" y="-106" type="curve" smooth="yes"/>
			<point x="223" y="-87"/>
			<point x="221" y="-35"/>
			<point x="220" y="-2" type="curve"/>
			<point x="359" y="113"/>
			<point x="447" y="284"/>
			<point x="447" y="416" type="curve" smooth="yes"/>
			<point x="447" y="492"/>
			<point x="418" y="517"/>
			<point x="382" y="517" type="curve" smooth="yes"/>
			<point x="351" y="517"/>
			<point x="334" y="494"/>
			<point x="330" y="453" type="curve"/>
			<point x="356" y="445" type="line" smooth="yes"/>
			<point x="388" y="435"/>
			<point x="399" y="423"/>
			<point x="399" y="389" type="curve" smooth="yes"/>
			<point x="399" y="249"/>
			<point x="259" y="74"/>
			<point x="222" y="46" type="curve"/>
			<point x="218" y="150"/>
			<point x="213" y="223"/>
			<point x="209" y="283" type="curve" smooth="yes"/>
			<point x="197" y="464"/>
			<point x="182" y="517"/>
			<point x="116" y="517" type="curve" smooth="yes"/>
			<point x="85" y="517"/>
			<point x="36" y="497"/>
			<point x="13" y="473" type="curve"/>
			<point x="32" y="445" type="line"/>
			<point x="54" y="463"/>
			<point x="83" y="473"/>
			<point x="99" y="473" type="curve" smooth="yes"/>
			<point x="137" y="473"/>
			<point x="148" y="416"/>
			<point x="159" y="279" type="curve" smooth="yes"/>
			<point x="166" y="193"/>
			<point x="174" y="80"/>
			<point x="178" y="-4" type="curve"/>
			<point x="164" y="-34"/>
			<point x="155" y="-87"/>
			<point x="155" y="-117" type="curve" smooth="yes"/>
			<point x="155" y="-160"/>
			<point x="165" y="-186"/>
		</contour>
	</outline>
</glyph>
<glyph name="delta" format="2">
	<unicode hex="03B4"/>
	<advance width="503"/>
	<outline>
		<contour>
			<point x="237" y="-14" type="curve" smooth="yes"/>
			<point x="356" y="-14"/>
			<point x="442" y="98"/>
			<point x="442" y="233" type="curve" smooth="yes"/>
			<point x="442" y="359"/>
			<point x="385" y="414"/>
			<point x="303" y="488" type="curve" smooth="yes"/>
			<point x="201" y="580"/>
			<point x="190" y="611"/>
			<point x="190" y="653" type="curve" smooth="yes"/>
			<point x="190" y="701"/>
			<point x="226" y="746"/>
			<point x="303" y="746" type="curve" smooth="yes"/>
			<point x="352" y="746"/>
			<point x="392" y="736"/>
			<point x="392" y="688" type="curve" smooth="yes"/>
			<point x="392" y="671"/>
			<point x="384" y="658"/>
			<point x="370" y="638" type="curve"/>
			<point x="378" y="623"/>
			<point x="391" y="612"/>
			<point x="416" y="612" type="curve" smooth="yes"/>
			<point x="447" y="612"/>
			<point x="467" y="633"/>
			<point x="467" y="667" type="curve" smooth="yes"/>
			<point x="467" y="748"/>
			<point x="394" y="782"/>
			<point x="309" y="782" type="curve" smooth="yes"/>
			<point x="211" y="782"/>
			<point x="145" y="725"/>
			<point x="145" y="648" type="curve" smooth="yes"/>
			<point x="145" y="604"/>
			<point x="158" y="557"/>
			<point x="256" y="471" type="curve"/>
			<point x="128" y="429"/>
			<point x="44" y="334"/>
			<point x="44" y="190" type="curve" smooth="yes"/>
			<point x="44" y="80"/>
			<point x="117" y="-14"/>
		</contour>
		<contour>
			<point x="234" y="25" type="curve" smooth="yes"/>
			<point x="151" y="25"/>
			<point x="93" y="87"/>
			<point x="93" y="192" type="curve" smooth="yes"/>
			<point x="93" y="355"/>
			<point x="217" y="427"/>
			<point x="285" y="446" type="curve"/>
			<point x="348" y="390"/>
			<point x="393" y="331"/>
			<point x="393" y="228" type="curve" smooth="yes"/>
			<point x="393" y="124"/>
			<point x="338" y="25"/>
		</contour>
	</outline>
</glyph>
<glyph name="zeta" format="2">
	<unicode hex="03B6"/>
	<advance width="421"/>
	<outline>
		<contour>
			<point x="298" y="-233" type="line"/>
			<point x="343" y="-196"/>
			<point x="374" y="-139"/>
			<point x="374" y="-94" type="curve" smooth="yes"/>
			<point x="374" y="-16"/>
			<point x="323" y="14"/>
			<point x="228" y="50" type="curve" smooth="yes"/>
			<point x="146" y="81"/>
			<point x="100" y="116"/>
			<point x="100" y="208" type="curve" smooth="yes"/>
			<point x="100" y="339"/>
			<point x="207" y="524"/>
			<point x="307" y="615" type="curve"/>
			<point x="397" y="619"/>
			<point x="437" y="657"/>
			<point x="437" y="700" type="curve" smooth="yes"/>
			<point x="437" y="729"/>
			<point x="423" y="746"/>
			<point x="403" y="750" type="curve"/>
			<point x="380" y="740"/>
			<point x="337" y="701"/>
			<point x="287" y="645" type="curve"/>
			<point x="212" y="652"/>
			<point x="187" y="681"/>
			<point x="187" y="728" type="curve" smooth="yes"/>
			<point x="187" y="744"/>
			<point x="190" y="757"/>
			<point x="196" y="769" type="curve"/>
			<point x="189" y="775"/>
			<point x="168" y="782"/>
			<point x="152" y="782" type="curve" smooth="yes"/>
			<point x="112" y="782"/>
			<point x="90" y="757"/>
			<point x="90" y="720" type="curve" smooth="yes"/>
			<point x="90" y="641"/>
			<point x="178" y="624"/>
			<point x="257" y="619" type="curve"/>
			<point x="117" y="453"/>
			<point x="55" y="310"/>
			<point x="55" y="208" type="curve" smooth="yes"/>
			<point x="55" y="125"/>
			<point x="80" y="56"/>
			<point x="210" y="11" type="curve" smooth="yes"/>
			<point x="303" y="-21"/>
			<point x="330" y="-47"/>
			<point x="330" y="-92" type="curve" smooth="yes"/>
			<point x="330" y="-134"/>
			<point x="316" y="-167"/>
			<point x="273" y="-212" type="curve"/>
		</contour>
	</outline>
</glyph>
<glyph name="eta" format="2">
	<unicode hex="03B7"/>
	<advance width="532"/>
	<outline>
		<contour>
			<point x="427" y="-230" type="line"/>
			<point x="434" y="-225" type="line"/>
			<point x="462" y="-69"/>
			<point x="495" y="151"/>
			<point x="495" y="384" type="curve" smooth="yes"/>
			<point x="495" y="468"/>
			<point x="471" y="517"/>
			<point x="396" y="517" type="curve" smooth="yes"/>
			<point x="294" y="517"/>
			<point x="241" y="414"/>
			<point x="188" y="247" type="curve"/>
			<point x="187" y="247" type="line"/>
			<point x="194" y="324"/>
			<point x="194" y="390"/>
			<point x="194" y="431" type="curve" smooth="yes"/>
			<point x="194" y="485"/>
			<point x="175" y="517"/>
			<point x="127" y="517" type="curve" smooth="yes"/>
			<point x="97" y="517"/>
			<point x="55" y="499"/>
			<point x="28" y="473" type="curve"/>
			<point x="47" y="445" type="line"/>
			<point x="75" y="466"/>
			<point x="97" y="473"/>
			<point x="117" y="473" type="curve" smooth="yes"/>
			<point x="144" y="473"/>
			<point x="156" y="461"/>
			<point x="157" y="395" type="curve" smooth="yes"/>
			<point x="159" y="287"/>
			<point x="159" y="263"/>
			<point x="159" y="186" type="curve"/>
			<point x="142" y="141"/>
			<point x="117" y="79"/>
			<point x="117" y="-8" type="curve"/>
			<point x="124" y="-12"/>
			<point x="133" y="-14"/>
			<point x="143" y="-14" type="curve" smooth="yes"/>
			<point x="191" y="-14"/>
			<point x="193" y="28"/>
			<point x="187" y="149" type="curve"/>
			<point x="190" y="188"/>
			<point x="278" y="474"/>
			<point x="388" y="474" type="curve" smooth="yes"/>
			<point x="421" y="474"/>
			<point x="448" y="454"/>
			<point x="448" y="383" type="curve" smooth="yes"/>
			<point x="448" y="230"/>
			<point x="414" y="-43"/>
			<point x="374" y="-221" type="curve"/>
		</contour>
	</outline>
	<anchor name="bottom" x="144" y="-30"/>
	<anchor name="top" x="279" y="551"/>
</glyph>
<glyph name="theta" format="2">
	<unicode hex="03B8"/>
	<advance width="603"/>
	<outline>
		<contour>
			<point x="293" y="-14" type="curve" smooth="yes"/>
			<point x="425" y="-14"/>
			<point x="545" y="119"/>
			<point x="545" y="471" type="curve" smooth="yes"/>
			<point x="545" y="667"/>
			<point x="481" y="782"/>
			<point x="336" y="782" type="curve" smooth="yes"/>
			<point x="223" y="782"/>
			<point x="168" y="690"/>
			<point x="168" y="597" type="curve" smooth="yes"/>
			<point x="168" y="473"/>
			<point x="257" y="358"/>
			<point x="494" y="338" type="curve"/>
			<point x="482" y="137"/>
			<point x="398" y="25"/>
			<point x="298" y="25" type="curve" smooth="yes"/>
			<point x="235" y="25"/>
			<point x="203" y="59"/>
			<point x="203" y="115" type="curve" smooth="yes"/>
			<point x="203" y="177"/>
			<point x="225" y="241"/>
			<point x="225" y="277" type="curve" smooth="yes"/>
			<point x="225" y="307"/>
			<point x="207" y="339"/>
			<point x="166" y="339" type="curve" smooth="yes"/>
			<point x="133" y="339"/>
			<point x="97" y="326"/>
			<point x="68" y="310" type="curve"/>
			<point x="81" y="277" type="line"/>
			<point x="115" y="290"/>
			<point x="129" y="295"/>
			<point x="145" y="295" type="curve" smooth="yes"/>
			<point x="159" y="295"/>
			<point x="178" y="290"/>
			<point x="175" y="260" type="curve" smooth="yes"/>
			<point x="173" y="237"/>
			<point x="154" y="161"/>
			<point x="154" y="116" type="curve" smooth="yes"/>
			<point x="154" y="41"/>
			<point x="200" y="-14"/>
		</contour>
		<contour>
			<point x="495" y="374" type="curve"/>
			<point x="260" y="403"/>
			<point x="217" y="514"/>
			<point x="217" y="599" type="curve" smooth="yes"/>
			<point x="217" y="671"/>
			<point x="247" y="744"/>
			<point x="339" y="744" type="curve" smooth="yes"/>
			<point x="429" y="744"/>
			<point x="496" y="696"/>
			<point x="496" y="458" type="curve" smooth="yes"/>
			<point x="496" y="430"/>
			<point x="496" y="406"/>
		</contour>
	</outline>
</glyph>
<glyph name="kappa" format="2">
	<unicode hex="03BA"/>
	<advance width="575"/>
	<outline>
		<contour>
			<point x="423" y="-14" type="curve" smooth="yes"/>
			<point x="461" y="-14"/>
			<point x="495" y="3"/>
			<point x="528" y="28" type="curve"/>
			<point x="510" y="55" type="line"/>
			<point x="495" y="44"/>
			<point x="472" y="26"/>
			<point x="434" y="26" type="curve" smooth="yes"/>
			<point x="357" y="26"/>
			<point x="335" y="79"/>
			<point x="335" y="152" type="curve" smooth="yes"/>
			<point x="335" y="241"/>
			<point x="370" y="351"/>
			<point x="425" y="428" type="curve"/>
			<point x="458" y="445"/>
			<point x="494" y="455"/>
			<point x="532" y="457" type="curve"/>
			<point x="537" y="466" type="line"/>
			<point x="523" y="512" type="line"/>
			<point x="385" y="498"/>
			<point x="252" y="373"/>
			<point x="166" y="191" type="curve"/>
			<point x="164" y="192" type="line"/>
			<point x="191" y="324"/>
			<point x="210" y="421"/>
			<point x="210" y="449" type="curve" smooth="yes"/>
			<point x="210" y="493"/>
			<point x="187" y="516"/>
			<point x="151" y="516" type="curve" smooth="yes"/>
			<point x="118" y="516"/>
			<point x="81" y="503"/>
			<point x="53" y="487" type="curve"/>
			<point x="66" y="454" type="line"/>
			<point x="84" y="462"/>
			<point x="114" y="472"/>
			<point x="135" y="472" type="curve" smooth="yes"/>
			<point x="147" y="472"/>
			<point x="161" y="462"/>
			<point x="161" y="443" type="curve" smooth="yes"/>
			<point x="161" y="384"/>
			<point x="108" y="132"/>
			<point x="80" y="0" type="curve"/>
			<point x="125" y="0" type="line"/>
			<point x="176" y="150"/>
			<point x="261" y="314"/>
			<point x="377" y="399" type="curve"/>
			<point x="319" y="313"/>
			<point x="297" y="214"/>
			<point x="297" y="138" type="curve" smooth="yes"/>
			<point x="297" y="25"/>
			<point x="360" y="-14"/>
		</contour>
	</outline>
</glyph>
<glyph name="lambda" format="2">
	<unicode hex="03BB"/>
	<advance width="506"/>
	<outline>
		<contour>
			<point x="356" y="-14" type="curve" smooth="yes"/>
			<point x="391" y="-14"/>
			<point x="422" y="5"/>
			<point x="451" y="28" type="curve"/>
			<point x="433" y="55" type="line"/>
			<point x="404" y="35"/>
			<point x="386" y="29"/>
			<point x="366" y="29" type="curve" smooth="yes"/>
			<point x="338" y="29"/>
			<point x="325" y="42"/>
			<point x="318" y="106" type="curve" smooth="yes"/>
			<point x="258" y="620" type="line" smooth="yes"/>
			<point x="245" y="733"/>
			<point x="204" y="782"/>
			<point x="124" y="782" type="curve" smooth="yes"/>
			<point x="27" y="782"/>
			<point x="6" y="736"/>
			<point x="6" y="705" type="curve" smooth="yes"/>
			<point x="6" y="675"/>
			<point x="24" y="658"/>
			<point x="49" y="658" type="curve" smooth="yes"/>
			<point x="74" y="658"/>
			<point x="85" y="667"/>
			<point x="93" y="676" type="curve"/>
			<point x="87" y="685" type="line" smooth="yes"/>
			<point x="83" y="691"/>
			<point x="79" y="700"/>
			<point x="79" y="713" type="curve" smooth="yes"/>
			<point x="79" y="738"/>
			<point x="90" y="754"/>
			<point x="124" y="754" type="curve" smooth="yes"/>
			<point x="180" y="754"/>
			<point x="202" y="706"/>
			<point x="214" y="613" type="curve" smooth="yes"/>
			<point x="229" y="493" type="line"/>
			<point x="-14" y="4" type="line"/>
			<point x="-10" y="0" type="line"/>
			<point x="41" y="0" type="line"/>
			<point x="237" y="415" type="line"/>
			<point x="239" y="415" type="line"/>
			<point x="275" y="98" type="line" smooth="yes"/>
			<point x="285" y="9"/>
			<point x="312" y="-14"/>
		</contour>
	</outline>
</glyph>
<glyph name="mu" format="2">
	<unicode hex="03BC"/>
	<advance width="523"/>
	<outline>
		<contour>
			<point x="59" y="-230" type="line"/>
			<point x="112" y="-221" type="line"/>
			<point x="101" y="-167"/>
			<point x="92" y="-79"/>
			<point x="92" y="21" type="curve"/>
			<point x="93" y="21" type="line"/>
			<point x="107" y="8"/>
			<point x="138" y="-14"/>
			<point x="180" y="-14" type="curve" smooth="yes"/>
			<point x="218" y="-14"/>
			<point x="292" y="16"/>
			<point x="322" y="84" type="curve"/>
			<point x="323" y="84" type="line"/>
			<point x="332" y="24"/>
			<point x="353" y="-14"/>
			<point x="412" y="-14" type="curve" smooth="yes"/>
			<point x="439" y="-14"/>
			<point x="461" y="-5"/>
			<point x="496" y="15" type="curve"/>
			<point x="484" y="48" type="line"/>
			<point x="458" y="35"/>
			<point x="444" y="29"/>
			<point x="419" y="29" type="curve" smooth="yes"/>
			<point x="370" y="29"/>
			<point x="369" y="79"/>
			<point x="369" y="149" type="curve" smooth="yes"/>
			<point x="369" y="199"/>
			<point x="392" y="424"/>
			<point x="405" y="511" type="curve"/>
			<point x="394" y="516" type="line"/>
			<point x="341" y="508" type="line"/>
			<point x="321" y="221" type="line" smooth="yes"/>
			<point x="311" y="83"/>
			<point x="265" y="29"/>
			<point x="178" y="29" type="curve" smooth="yes"/>
			<point x="144" y="29"/>
			<point x="109" y="43"/>
			<point x="92" y="55" type="curve"/>
			<point x="92" y="129"/>
			<point x="103" y="290"/>
			<point x="138" y="511" type="curve"/>
			<point x="127" y="516" type="line"/>
			<point x="74" y="508" type="line"/>
			<point x="53" y="307"/>
			<point x="42" y="79"/>
			<point x="42" y="-9" type="curve" smooth="yes"/>
			<point x="42" y="-124"/>
			<point x="44" y="-185"/>
			<point x="50" y="-225" type="curve"/>
		</contour>
	</outline>
</glyph>
<glyph name="sigmafinal" format="2">
	<unicode hex="03C2"/>
	<advance width="458"/>
	<outline>
		<contour>
			<point x="298" y="-233" type="line"/>
			<point x="343" y="-196"/>
			<point x="374" y="-139"/>
			<point x="374" y="-94" type="curve" smooth="yes"/>
			<point x="374" y="-16"/>
			<point x="323" y="14"/>
			<point x="228" y="50" type="curve" smooth="yes"/>
			<point x="115" y="93"/>
			<point x="101" y="147"/>
			<point x="101" y="236" type="curve" smooth="yes"/>
			<point x="101" y="387"/>
			<point x="185" y="479"/>
			<point x="282" y="479" type="curve" smooth="yes"/>
			<point x="330" y="479"/>
			<point x="360" y="462"/>
			<point x="360" y="437" type="curve" smooth="yes"/>
			<point x="360" y="430"/>
			<point x="357" y="421"/>
			<point x="351" y="412" type="curve" smooth="yes"/>
			<point x="342" y="399" type="line"/>
			<point x="350" y="383"/>
			<point x="364" y="373"/>
			<point x="383" y="373" type="curve" smooth="yes"/>
			<point x="408" y="373"/>
			<point x="424" y="389"/>
			<point x="424" y="420" type="curve" smooth="yes"/>
			<point x="424" y="472"/>
			<point x="375" y="517"/>
			<point x="287" y="517" type="curve" smooth="yes"/>
			<point x="158" y="517"/>
			<point x="55" y="402"/>
			<point x="55" y="225" type="curve" smooth="yes"/>
			<point x="55" y="126"/>
			<point x="83" y="55"/>
			<point x="210" y="11" type="curve" smooth="yes"/>
			<point x="303" y="-21"/>
			<point x="330" y="-47"/>
			<point x="330" y="-92" type="curve" smooth="yes"/>
			<point x="330" y="-134"/>
			<point x="316" y="-167"/>
			<point x="273" y="-212" type="curve"/>
		</contour>
	</outline>
</glyph>
<glyph name="phi" format="2">
	<unicode hex="03C6"/>
	<advance width="692"/>
	<outline>
		<contour>
			<point x="256" y="-230" type="line"/>
			<point x="289" y="-222" type="line"/>
			<point x="327" y="-14" type="line"/>
			<point x="562" y="7"/>
			<point x="639" y="172"/>
			<point x="639" y="321" type="curve" smooth="yes"/>
			<point x="639" y="435"/>
			<point x="585" y="516"/>
			<point x="482" y="516" type="curve" smooth="yes"/>
			<point x="408" y="516"/>
			<point x="363" y="469"/>
			<point x="347" y="371" type="curve" smooth="yes"/>
			<point x="289" y="24" type="line"/>
			<point x="159" y="36"/>
			<point x="103" y="90"/>
			<point x="103" y="232" type="curve" smooth="yes"/>
			<point x="103" y="368"/>
			<point x="174" y="445"/>
			<point x="267" y="484" type="curve"/>
			<point x="245" y="519" type="line"/>
			<point x="128" y="475"/>
			<point x="55" y="357"/>
			<point x="55" y="220" type="curve" smooth="yes"/>
			<point x="55" y="82"/>
			<point x="136" y="-3"/>
			<point x="283" y="-12" type="curve"/>
			<point x="247" y="-225" type="line"/>
		</contour>
		<contour>
			<point x="334" y="25" type="curve"/>
			<point x="394" y="357" type="line" smooth="yes"/>
			<point x="410" y="446"/>
			<point x="437" y="477"/>
			<point x="481" y="477" type="curve" smooth="yes"/>
			<point x="552" y="477"/>
			<point x="590" y="425"/>
			<point x="590" y="323" type="curve" smooth="yes"/>
			<point x="590" y="178"/>
			<point x="523" y="41"/>
		</contour>
	</outline>
</glyph>
<glyph name="kaiSymbol" format="2">
	<unicode hex="03D7"/>
	<advance width="569"/>
	<outline>
		<contour>
			<point x="317" y="-230" type="curve" smooth="yes"/>
			<point x="437" y="-230"/>
			<point x="509" y="-144"/>
			<point x="509" y="-44" type="curve" smooth="yes"/>
			<point x="509" y="36"/>
			<point x="474" y="80"/>
			<point x="407" y="162" type="curve" smooth="yes"/>
			<point x="360" y="219"/>
			<point x="351" y="265"/>
			<point x="351" y="302" type="curve" smooth="yes"/>
			<point x="351" y="339"/>
			<point x="369" y="377"/>
			<point x="391" y="408" type="curve"/>
			<point x="450" y="445"/>
			<point x="470" y="450"/>
			<point x="532" y="457" type="curve"/>
			<point x="537" y="466" type="line"/>
			<point x="523" y="512" type="line"/>
			<point x="385" y="498"/>
			<point x="252" y="373"/>
			<point x="166" y="191" type="curve"/>
			<point x="164" y="192" type="line"/>
			<point x="191" y="324"/>
			<point x="210" y="421"/>
			<point x="210" y="449" type="curve" smooth="yes"/>
			<point x="210" y="498"/>
			<point x="182" y="516"/>
			<point x="151" y="516" type="curve" smooth="yes"/>
			<point x="125" y="516"/>
			<point x="86" y="506"/>
			<point x="53" y="487" type="curve"/>
			<point x="66" y="454" type="line"/>
			<point x="84" y="462"/>
			<point x="114" y="472"/>
			<point x="135" y="472" type="curve" smooth="yes"/>
			<point x="147" y="472"/>
			<point x="161" y="462"/>
			<point x="161" y="443" type="curve" smooth="yes"/>
			<point x="161" y="384"/>
			<point x="108" y="132"/>
			<point x="80" y="0" type="curve"/>
			<point x="125" y="0" type="line"/>
			<point x="197" y="201"/>
			<point x="265" y="297"/>
			<point x="340" y="369" type="curve"/>
			<point x="313" y="308"/>
			<point x="308" y="270"/>
			<point x="308" y="245" type="curve" smooth="yes"/>
			<point x="308" y="209"/>
			<point x="317" y="181"/>
			<point x="371" y="116" type="curve" smooth="yes"/>
			<point x="430" y="44"/>
			<point x="450" y="-4"/>
			<point x="450" y="-52" type="curve" smooth="yes"/>
			<point x="450" y="-157"/>
			<point x="384" y="-206"/>
			<point x="250" y="-206" type="curve"/>
			<point x="247" y="-219" type="line"/>
			<point x="265" y="-226"/>
			<point x="283" y="-230"/>
		</contour>
	</outline>
</glyph>
<glyph name="koppaArchaic" format="2">
	<unicode hex="03D9"/>
	<advance width="519"/>
	<outline>
		<contour>
			<point x="218" y="-161" type="line"/>
			<point x="254" y="-155" type="line"/>
			<point x="256" y="-106"/>
			<point x="257" y="-63"/>
			<point x="261" y="-13" type="curve"/>
			<point x="406" y="-3"/>
			<point x="464" y="128"/>
			<point x="464" y="274" type="curve" smooth="yes"/>
			<point x="464" y="429"/>
			<point x="383" y="517"/>
			<point x="277" y="517" type="curve" smooth="yes"/>
			<point x="117" y="517"/>
			<point x="56" y="390"/>
			<point x="56" y="235" type="curve" smooth="yes"/>
			<point x="56" y="92"/>
			<point x="116" y="-3"/>
			<point x="222" y="-13" type="curve"/>
			<point x="218" y="-64"/>
			<point x="213" y="-113"/>
			<point x="208" y="-157" type="curve"/>
		</contour>
		<contour>
			<point x="263" y="26" type="curve"/>
			<point x="266" y="59"/>
			<point x="270" y="97"/>
			<point x="275" y="141" type="curve"/>
			<point x="264" y="146" type="line"/>
			<point x="230" y="137" type="line"/>
			<point x="229" y="100"/>
			<point x="227" y="63"/>
			<point x="224" y="27" type="curve"/>
			<point x="145" y="39"/>
			<point x="105" y="116"/>
			<point x="105" y="229" type="curve" smooth="yes"/>
			<point x="105" y="365"/>
			<point x="141" y="479"/>
			<point x="266" y="479" type="curve" smooth="yes"/>
			<point x="375" y="479"/>
			<point x="415" y="394"/>
			<point x="415" y="275" type="curve" smooth="yes"/>
			<point x="415" y="151"/>
			<point x="378" y="36"/>
		</contour>
	</outline>
</glyph>
<glyph name="Stigma" format="2">
	<unicode hex="03DA"/>
	<advance width="599"/>
	<outline>
		<contour>
			<point x="414" y="-210" type="line"/>
			<point x="470" y="-168"/>
			<point x="505" y="-116"/>
			<point x="505" y="-61" type="curve" smooth="yes"/>
			<point x="505" y="13"/>
			<point x="465" y="49"/>
			<point x="340" y="77" type="curve" smooth="yes"/>
			<point x="184" y="113"/>
			<point x="118" y="193"/>
			<point x="118" y="358" type="curve" smooth="yes"/>
			<point x="118" y="550"/>
			<point x="227" y="670"/>
			<point x="367" y="670" type="curve" smooth="yes"/>
			<point x="443" y="670"/>
			<point x="486" y="645"/>
			<point x="486" y="609" type="curve" smooth="yes"/>
			<point x="486" y="601"/>
			<point x="484" y="593"/>
			<point x="480" y="584" type="curve" smooth="yes"/>
			<point x="467" y="558" type="line"/>
			<point x="483" y="542"/>
			<point x="499" y="533"/>
			<point x="523" y="533" type="curve" smooth="yes"/>
			<point x="549" y="533"/>
			<point x="571" y="553"/>
			<point x="571" y="585" type="curve" smooth="yes"/>
			<point x="571" y="659"/>
			<point x="473" y="715"/>
			<point x="369" y="715" type="curve" smooth="yes"/>
			<point x="187" y="715"/>
			<point x="66" y="565"/>
			<point x="66" y="358" type="curve" smooth="yes"/>
			<point x="66" y="150"/>
			<point x="175" y="70"/>
			<point x="332" y="31" type="curve" smooth="yes"/>
			<point x="435" y="6"/>
			<point x="462" y="-17"/>
			<point x="462" y="-67" type="curve" smooth="yes"/>
			<point x="462" y="-111"/>
			<point x="431" y="-151"/>
			<point x="390" y="-184" type="curve"/>
		</contour>
	</outline>
</glyph>
<glyph name="stigma" format="2">
	<unicode hex="03DB"/>
	<advance width="457"/>
	<outline>
		<contour>
			<point x="298" y="-233" type="line"/>
			<point x="343" y="-196"/>
			<point x="374" y="-139"/>
			<point x="374" y="-94" type="curve" smooth="yes"/>
			<point x="374" y="-16"/>
			<point x="323" y="14"/>
			<point x="228" y="50" type="curve" smooth="yes"/>
			<point x="115" y="93"/>
			<point x="101" y="147"/>
			<point x="101" y="240" type="curve" smooth="yes"/>
			<point x="101" y="402"/>
			<point x="187" y="476"/>
			<point x="321" y="472" type="curve" smooth="yes"/>
			<point x="398" y="469"/>
			<point x="428" y="507"/>
			<point x="428" y="561" type="curve" smooth="yes"/>
			<point x="428" y="594"/>
			<point x="413" y="622"/>
			<point x="405" y="631" type="curve"/>
			<point x="380" y="620" type="line"/>
			<point x="385" y="605"/>
			<point x="390" y="589"/>
			<point x="390" y="567" type="curve" smooth="yes"/>
			<point x="390" y="530"/>
			<point x="372" y="515"/>
			<point x="318" y="515" type="curve" smooth="yes"/>
			<point x="177" y="515"/>
			<point x="56" y="430"/>
			<point x="56" y="238" type="curve" smooth="yes"/>
			<point x="55" y="126"/>
			<point x="83" y="55"/>
			<point x="210" y="11" type="curve" smooth="yes"/>
			<point x="303" y="-21"/>
			<point x="330" y="-47"/>
			<point x="330" y="-92" type="curve" smooth="yes"/>
			<point x="330" y="-134"/>
			<point x="316" y="-167"/>
			<point x="273" y="-212" type="curve"/>
		</contour>
	</outline>
</glyph>
<glyph name="digamma" format="2">
	<unicode hex="03DD"/>
	<advance width="326"/>
	<outline>
		<contour>
			<point x="76" y="0" type="line"/>
			<point x="124" y="0" type="line"/>
			<point x="141" y="460" type="line"/>
			<point x="304" y="460" type="line"/>
			<point x="307" y="503" type="line"/>
			<point x="140" y="503" type="line"/>
			<point x="145" y="602" type="line" smooth="yes"/>
			<point x="149" y="688"/>
			<point x="187" y="743"/>
			<point x="271" y="743" type="curve" smooth="yes"/>
			<point x="313" y="743"/>
			<point x="326" y="727"/>
			<point x="315" y="699" type="curve" smooth="yes"/>
			<point x="309" y="683" type="line"/>
			<point x="320" y="670"/>
			<point x="336" y="663"/>
			<point x="355" y="663" type="curve" smooth="yes"/>
			<point x="377" y="663"/>
			<point x="392" y="682"/>
			<point x="392" y="707" type="curve" smooth="yes"/>
			<point x="392" y="747"/>
			<point x="351" y="782"/>
			<point x="273" y="782" type="curve" smooth="yes"/>
			<point x="155" y="782"/>
			<point x="101" y="710"/>
			<point x="93" y="559" type="curve" smooth="yes"/>
			<point x="90" y="503" type="line"/>
			<point x="2" y="495" type="line"/>
			<point x="-4" y="460" type="line"/>
			<point x="89" y="460" type="line"/>
			<point x="72" y="4" type="line"/>
		</contour>
	</outline>
</glyph>
<glyph name="sampi" format="2">
	<unicode hex="03E1"/>
	<advance width="600"/>
	<outline>
		<contour>
			<point x="452" y="-247" type="line"/>
			<point x="502" y="-145"/>
			<point x="534" y="-25"/>
			<point x="534" y="84" type="curve" smooth="yes"/>
			<point x="534" y="287"/>
			<point x="433" y="460"/>
			<point x="201" y="507" type="curve"/>
			<point x="184" y="465" type="line"/>
			<point x="278" y="444"/>
			<point x="347" y="402"/>
			<point x="395" y="347" type="curve"/>
			<point x="119" y="236" type="line" smooth="yes"/>
			<point x="89" y="225"/>
			<point x="76" y="221"/>
			<point x="64" y="242" type="curve" smooth="yes"/>
			<point x="41" y="285" type="line"/>
			<point x="18" y="275" type="line"/>
			<point x="80" y="92" type="line"/>
			<point x="103" y="100" type="line"/>
			<point x="97" y="150" type="line" smooth="yes"/>
			<point x="95" y="169"/>
			<point x="101" y="178"/>
			<point x="129" y="189" type="curve" smooth="yes"/>
			<point x="424" y="307" type="line"/>
			<point x="457" y="254"/>
			<point x="475" y="193"/>
			<point x="481" y="128" type="curve"/>
			<point x="196" y="13" type="line"/>
			<point x="167" y="3"/>
			<point x="153" y="-2"/>
			<point x="141" y="19" type="curve" smooth="yes"/>
			<point x="118" y="62" type="line"/>
			<point x="95" y="52" type="line"/>
			<point x="157" y="-131" type="line"/>
			<point x="181" y="-123" type="line"/>
			<point x="174" y="-73" type="line" smooth="yes"/>
			<point x="172" y="-54"/>
			<point x="178" y="-45"/>
			<point x="206" y="-34" type="curve" smooth="yes"/>
			<point x="483" y="76" type="line"/>
			<point x="482" y="-27"/>
			<point x="450" y="-143"/>
			<point x="402" y="-238" type="curve"/>
		</contour>
	</outline>
</glyph>
<glyph name="E-cy" format="2">
	<unicode hex="0404"/>
	<advance width="612"/>
	<outline>
		<contour>
			<point x="482" y="584" type="curve" smooth="yes"/>
			<point x="469" y="558" type="line"/>
			<point x="485" y="542"/>
			<point x="501" y="533"/>
			<point x="525" y="533" type="curve" smooth="yes"/>
			<point x="551" y="533"/>
			<point x="573" y="553"/>
			<point x="573" y="585" type="curve" smooth="yes"/>
			<point x="573" y="659"/>
			<point x="475" y="715"/>
			<point x="371" y="715" type="curve" smooth="yes"/>
			<point x="189" y="715"/>
			<point x="67" y="565"/>
			<point x="67" y="326" type="curve" smooth="yes"/>
			<point x="67" y="109"/>
			<point x="175" y="-14"/>
			<point x="328" y="-14" type="curve" smooth="yes"/>
			<point x="421" y="-14"/>
			<point x="506" y="39"/>
			<point x="565" y="121" type="curve"/>
			<point x="537" y="149" type="line"/>
			<point x="470" y="66"/>
			<point x="406" y="31"/>
			<point x="332" y="31" type="curve" smooth="yes"/>
			<point x="202" y="31"/>
			<point x="118" y="144"/>
			<point x="118" y="336" type="curve"/>
			<point x="473" y="336" type="line"/>
			<point x="477" y="375" type="line"/>
			<point x="120" y="375" type="line"/>
			<point x="133" y="555"/>
			<point x="232" y="670"/>
			<point x="369" y="670" type="curve" smooth="yes"/>
			<point x="462" y="670"/>
			<point x="506" y="633"/>
		</contour>
	</outline>
	<anchor name="top" x="353" y="730"/>
</glyph>
<glyph name="Nje-cy" format="2">
	<unicode hex="040A"/>
	<advance width="968"/>
	<outline>
		<contour>
			<point x="544" y="341" type="line"/>
			<point x="532" y="46" type="line"/>
			<point x="448" y="32" type="line"/>
			<point x="444" y="0" type="line"/>
			<point x="670" y="0" type="line" smooth="yes"/>
			<point x="843" y="0"/>
			<point x="946" y="77"/>
			<point x="946" y="216" type="curve" smooth="yes"/>
			<point x="946" y="330"/>
			<point x="863" y="393"/>
			<point x="734" y="393" type="curve" smooth="yes"/>
			<point x="693" y="393"/>
			<point x="668" y="390"/>
			<point x="631" y="385" type="curve"/>
			<point x="629" y="346" type="line"/>
			<point x="660" y="351"/>
			<point x="689" y="354"/>
			<point x="727" y="354" type="curve" smooth="yes"/>
			<point x="834" y="354"/>
			<point x="894" y="306"/>
			<point x="894" y="217" type="curve" smooth="yes"/>
			<point x="894" y="91"/>
			<point x="812" y="39"/>
			<point x="673" y="39" type="curve" smooth="yes"/>
			<point x="579" y="39" type="line"/>
			<point x="603" y="655" type="line"/>
			<point x="690" y="668" type="line"/>
			<point x="693" y="700" type="line"/>
			<point x="473" y="700" type="line"/>
			<point x="469" y="668" type="line"/>
			<point x="557" y="655" type="line"/>
			<point x="546" y="380" type="line"/>
			<point x="205" y="380" type="line"/>
			<point x="217" y="655" type="line"/>
			<point x="303" y="668" type="line"/>
			<point x="306" y="700" type="line"/>
			<point x="85" y="700" type="line"/>
			<point x="81" y="668" type="line"/>
			<point x="168" y="655" type="line"/>
			<point x="144" y="46" type="line"/>
			<point x="60" y="32" type="line"/>
			<point x="56" y="0" type="line"/>
			<point x="285" y="0" type="line"/>
			<point x="289" y="33" type="line"/>
			<point x="193" y="46" type="line"/>
			<point x="204" y="341" type="line"/>
		</contour>
	</outline>
</glyph>
<glyph name="Tshe-cy" format="2">
	<unicode hex="040B"/>
	<advance width="821"/>
	<outline>
		<contour>
			<point x="316" y="357" type="curve"/>
			<point x="328" y="661" type="line"/>
			<point x="476" y="661" type="line" smooth="yes"/>
			<point x="530" y="661"/>
			<point x="550" y="655"/>
			<point x="565" y="592" type="curve" smooth="yes"/>
			<point x="577" y="543" type="line"/>
			<point x="612" y="547" type="line"/>
			<point x="598" y="700" type="line"/>
			<point x="61" y="700" type="line"/>
			<point x="40" y="547" type="line"/>
			<point x="75" y="543" type="line"/>
			<point x="90" y="592" type="line" smooth="yes"/>
			<point x="109" y="653"/>
			<point x="119" y="661"/>
			<point x="184" y="661" type="curve" smooth="yes"/>
			<point x="281" y="661" type="line"/>
			<point x="257" y="46" type="line"/>
			<point x="172" y="32" type="line"/>
			<point x="168" y="0" type="line"/>
			<point x="398" y="0" type="line"/>
			<point x="401" y="33" type="line"/>
			<point x="304" y="45" type="line"/>
			<point x="314" y="305" type="line"/>
			<point x="397" y="368"/>
			<point x="467" y="398"/>
			<point x="542" y="398" type="curve" smooth="yes"/>
			<point x="630" y="398"/>
			<point x="669" y="345"/>
			<point x="669" y="262" type="curve" smooth="yes"/>
			<point x="669" y="186"/>
			<point x="664" y="118"/>
			<point x="658" y="45" type="curve"/>
			<point x="572" y="32" type="line"/>
			<point x="569" y="0" type="line"/>
			<point x="790" y="0" type="line"/>
			<point x="794" y="32" type="line"/>
			<point x="707" y="45" type="line"/>
			<point x="712" y="123"/>
			<point x="716" y="200"/>
			<point x="716" y="272" type="curve" smooth="yes"/>
			<point x="716" y="377"/>
			<point x="654" y="440"/>
			<point x="548" y="440" type="curve" smooth="yes"/>
			<point x="462" y="440"/>
			<point x="387" y="407"/>
		</contour>
	</outline>
</glyph>
<glyph name="Dzhe-cy" format="2">
	<unicode hex="040F"/>
	<advance width="726"/>
	<outline>
		<contour>
			<point x="349" y="-153" type="line"/>
			<point x="380" y="-153" type="line"/>
			<point x="403" y="0" type="line"/>
			<point x="679" y="0" type="line"/>
			<point x="683" y="33" type="line"/>
			<point x="587" y="46" type="line"/>
			<point x="612" y="655" type="line"/>
			<point x="697" y="668" type="line"/>
			<point x="700" y="700" type="line"/>
			<point x="480" y="700" type="line"/>
			<point x="476" y="668" type="line"/>
			<point x="563" y="655" type="line"/>
			<point x="538" y="39" type="line"/>
			<point x="193" y="39" type="line"/>
			<point x="217" y="655" type="line"/>
			<point x="303" y="668" type="line"/>
			<point x="306" y="700" type="line"/>
			<point x="85" y="700" type="line"/>
			<point x="81" y="668" type="line"/>
			<point x="168" y="655" type="line"/>
			<point x="144" y="46" type="line"/>
			<point x="60" y="32" type="line"/>
			<point x="56" y="0" type="line"/>
			<point x="342" y="0" type="line"/>
		</contour>
	</outline>
</glyph>
<glyph name="Ge-cy" format="2">
	<unicode hex="0413"/>
	<advance width="524"/>
	<outline>
		<contour>
			<point x="60" y="32" type="line"/>
			<point x="56" y="0" type="line"/>
			<point x="317" y="0" type="line"/>
			<point x="320" y="33" type="line"/>
			<point x="192" y="45" type="line"/>
			<point x="216" y="661" type="line"/>
			<point x="371" y="661" type="line" smooth="yes"/>
			<point x="425" y="661"/>
			<point x="449" y="655"/>
			<point x="466" y="591" type="curve" smooth="yes"/>
			<point x="479" y="542" type="line"/>
			<point x="514" y="547" type="line"/>
			<point x="500" y="700" type="line"/>
			<point x="85" y="700" type="line"/>
			<point x="81" y="668" type="line"/>
			<point x="169" y="655" type="line"/>
			<point x="145" y="46" type="line"/>
		</contour>
	</outline>
	<anchor name="top" x="322" y="730"/>
</glyph>
<glyph name="Ii-cy" format="2">
	<unicode hex="0418"/>
	<advance width="736"/>
	<outline>
		<contour>
			<point x="556" y="513" type="line"/>
			<point x="538" y="46" type="line"/>
			<point x="454" y="33" type="line"/>
			<point x="450" y="0" type="line"/>
			<point x="679" y="0" type="line"/>
			<point x="683" y="33" type="line"/>
			<point x="587" y="46" type="line"/>
			<point x="612" y="655" type="line"/>
			<point x="697" y="668" type="line"/>
			<point x="700" y="700" type="line"/>
			<point x="480" y="700" type="line"/>
			<point x="476" y="668" type="line"/>
			<point x="563" y="655" type="line"/>
			<point x="559" y="569" type="line"/>
			<point x="193" y="183" type="line"/>
			<point x="212" y="655" type="line"/>
			<point x="298" y="668" type="line"/>
			<point x="301" y="700" type="line"/>
			<point x="80" y="700" type="line"/>
			<point x="76" y="668" type="line"/>
			<point x="163" y="655" type="line"/>
			<point x="139" y="46" type="line"/>
			<point x="55" y="32" type="line"/>
			<point x="51" y="0" type="line"/>
			<point x="280" y="0" type="line"/>
			<point x="284" y="33" type="line"/>
			<point x="188" y="46" type="line"/>
			<point x="191" y="125" type="line"/>
		</contour>
	</outline>
	<anchor name="top" x="395" y="730"/>
	<guideline x="882" y="124" angle="0"/>
	<guideline x="1256" y="569" angle="0"/>
</glyph>
<glyph name="Ef-cy" format="2">
	<unicode hex="0424"/>
	<advance width="725"/>
	<outline>
		<contour>
			<point x="251" y="0" type="line"/>
			<point x="481" y="0" type="line"/>
			<point x="484" y="33" type="line"/>
			<point x="387" y="45" type="line"/>
			<point x="392" y="156" type="line"/>
			<point x="412" y="150"/>
			<point x="439" y="144"/>
			<point x="466" y="144" type="curve" smooth="yes"/>
			<point x="626" y="144"/>
			<point x="703" y="260"/>
			<point x="703" y="397" type="curve" smooth="yes"/>
			<point x="703" y="536"/>
			<point x="617" y="611"/>
			<point x="497" y="611" type="curve" smooth="yes"/>
			<point x="461" y="611"/>
			<point x="432" y="605"/>
			<point x="409" y="598" type="curve"/>
			<point x="412" y="688" type="line"/>
			<point x="499" y="701" type="line"/>
			<point x="502" y="733" type="line"/>
			<point x="281" y="733" type="line"/>
			<point x="277" y="701" type="line"/>
			<point x="365" y="688" type="line"/>
			<point x="362" y="600" type="line"/>
			<point x="343" y="606"/>
			<point x="313" y="611"/>
			<point x="280" y="611" type="curve" smooth="yes"/>
			<point x="122" y="611"/>
			<point x="50" y="497"/>
			<point x="50" y="371" type="curve" smooth="yes"/>
			<point x="50" y="259"/>
			<point x="112" y="144"/>
			<point x="256" y="144" type="curve" smooth="yes"/>
			<point x="289" y="144"/>
			<point x="321" y="150"/>
			<point x="345" y="157" type="curve"/>
			<point x="340" y="46" type="line"/>
			<point x="255" y="32" type="line"/>
		</contour>
		<contour>
			<point x="259" y="186" type="curve" smooth="yes"/>
			<point x="154" y="186"/>
			<point x="101" y="272"/>
			<point x="101" y="371" type="curve" smooth="yes"/>
			<point x="101" y="463"/>
			<point x="143" y="569"/>
			<point x="287" y="569" type="curve" smooth="yes"/>
			<point x="318" y="569"/>
			<point x="340" y="565"/>
			<point x="360" y="559" type="curve"/>
			<point x="346" y="197" type="line"/>
			<point x="318" y="189"/>
			<point x="293" y="186"/>
		</contour>
		<contour>
			<point x="393" y="196" type="curve"/>
			<point x="407" y="557" type="line"/>
			<point x="436" y="565"/>
			<point x="464" y="569"/>
			<point x="495" y="569" type="curve" smooth="yes"/>
			<point x="596" y="569"/>
			<point x="652" y="504"/>
			<point x="652" y="398" type="curve" smooth="yes"/>
			<point x="652" y="294"/>
			<point x="610" y="186"/>
			<point x="465" y="186" type="curve" smooth="yes"/>
			<point x="435" y="186"/>
			<point x="413" y="190"/>
		</contour>
	</outline>
	<guideline x="280" y="619" angle="0"/>
</glyph>
<glyph name="Tse-cy" format="2">
	<unicode hex="0426"/>
	<advance width="730"/>
	<outline>
		<contour>
			<point x="193" y="39" type="line"/>
			<point x="217" y="655" type="line"/>
			<point x="303" y="668" type="line"/>
			<point x="306" y="700" type="line"/>
			<point x="85" y="700" type="line"/>
			<point x="81" y="668" type="line"/>
			<point x="168" y="655" type="line"/>
			<point x="144" y="46" type="line"/>
			<point x="60" y="32" type="line"/>
			<point x="56" y="0" type="line"/>
			<point x="584" y="0" type="line" smooth="yes"/>
			<point x="627" y="0"/>
			<point x="646" y="-10"/>
			<point x="633" y="-157" type="curve"/>
			<point x="669" y="-160" type="line"/>
			<point x="699" y="39" type="line"/>
			<point x="582" y="39" type="line"/>
			<point x="607" y="655" type="line"/>
			<point x="692" y="668" type="line"/>
			<point x="695" y="700" type="line"/>
			<point x="475" y="700" type="line"/>
			<point x="471" y="668" type="line"/>
			<point x="558" y="655" type="line"/>
			<point x="533" y="39" type="line"/>
		</contour>
	</outline>
	<guideline x="533" y="39" angle="0"/>
</glyph>
<glyph name="Sha-cy" format="2">
	<unicode hex="0428"/>
	<advance width="1056"/>
	<outline>
		<contour>
			<point x="56" y="0" type="line"/>
			<point x="1009" y="0" type="line"/>
			<point x="1013" y="33" type="line"/>
			<point x="917" y="46" type="line"/>
			<point x="942" y="655" type="line"/>
			<point x="1027" y="668" type="line"/>
			<point x="1030" y="700" type="line"/>
			<point x="810" y="700" type="line"/>
			<point x="806" y="668" type="line"/>
			<point x="893" y="655" type="line"/>
			<point x="868" y="39" type="line"/>
			<point x="555" y="39" type="line"/>
			<point x="580" y="655" type="line"/>
			<point x="665" y="668" type="line"/>
			<point x="668" y="700" type="line"/>
			<point x="448" y="700" type="line"/>
			<point x="444" y="668" type="line"/>
			<point x="531" y="655" type="line"/>
			<point x="506" y="39" type="line"/>
			<point x="193" y="39" type="line"/>
			<point x="217" y="655" type="line"/>
			<point x="303" y="668" type="line"/>
			<point x="306" y="700" type="line"/>
			<point x="85" y="700" type="line"/>
			<point x="81" y="668" type="line"/>
			<point x="168" y="655" type="line"/>
			<point x="144" y="46" type="line"/>
			<point x="60" y="32" type="line"/>
		</contour>
	</outline>
</glyph>
<glyph name="Softsign-cy" format="2">
	<unicode hex="042C"/>
	<advance width="580"/>
	<outline>
		<contour>
			<point x="169" y="655" type="line"/>
			<point x="144" y="46" type="line"/>
			<point x="60" y="32" type="line"/>
			<point x="56" y="0" type="line"/>
			<point x="282" y="0" type="line" smooth="yes"/>
			<point x="455" y="0"/>
			<point x="558" y="77"/>
			<point x="558" y="216" type="curve" smooth="yes"/>
			<point x="558" y="330"/>
			<point x="475" y="393"/>
			<point x="346" y="393" type="curve" smooth="yes"/>
			<point x="305" y="393"/>
			<point x="280" y="390"/>
			<point x="243" y="385" type="curve"/>
			<point x="241" y="346" type="line"/>
			<point x="272" y="351"/>
			<point x="301" y="354"/>
			<point x="339" y="354" type="curve" smooth="yes"/>
			<point x="446" y="354"/>
			<point x="506" y="306"/>
			<point x="506" y="217" type="curve" smooth="yes"/>
			<point x="506" y="91"/>
			<point x="424" y="39"/>
			<point x="285" y="39" type="curve" smooth="yes"/>
			<point x="191" y="39" type="line"/>
			<point x="215" y="655" type="line"/>
			<point x="302" y="668" type="line"/>
			<point x="305" y="700" type="line"/>
			<point x="85" y="700" type="line"/>
			<point x="81" y="668" type="line"/>
		</contour>
	</outline>
</glyph>
<glyph name="Iu-cy" format="2">
	<unicode hex="042E"/>
	<advance width="993"/>
	<outline>
		<contour>
			<point x="204" y="341" type="line"/>
			<point x="387" y="341" type="line"/>
			<point x="387" y="125"/>
			<point x="493" y="-14"/>
			<point x="656" y="-14" type="curve" smooth="yes"/>
			<point x="835" y="-14"/>
			<point x="946" y="144"/>
			<point x="946" y="378" type="curve" smooth="yes"/>
			<point x="946" y="579"/>
			<point x="853" y="715"/>
			<point x="685" y="715" type="curve" smooth="yes"/>
			<point x="505" y="715"/>
			<point x="404" y="575"/>
			<point x="389" y="380" type="curve"/>
			<point x="205" y="380" type="line"/>
			<point x="217" y="655" type="line"/>
			<point x="303" y="668" type="line"/>
			<point x="306" y="700" type="line"/>
			<point x="85" y="700" type="line"/>
			<point x="81" y="668" type="line"/>
			<point x="168" y="655" type="line"/>
			<point x="144" y="46" type="line"/>
			<point x="60" y="32" type="line"/>
			<point x="56" y="0" type="line"/>
			<point x="285" y="0" type="line"/>
			<point x="289" y="33" type="line"/>
			<point x="193" y="46" type="line"/>
		</contour>
		<contour>
			<point x="438" y="341" type="curve" smooth="yes"/>
			<point x="438" y="546"/>
			<point x="533" y="670"/>
			<point x="678" y="670" type="curve" smooth="yes"/>
			<point x="824" y="670"/>
			<point x="895" y="559"/>
			<point x="895" y="371" type="curve" smooth="yes"/>
			<point x="895" y="163"/>
			<point x="802" y="31"/>
			<point x="663" y="31" type="curve" smooth="yes"/>
			<point x="524" y="31"/>
			<point x="438" y="144"/>
		</contour>
	</outline>
	<anchor name="top" x="678" y="730"/>
</glyph>
<glyph name="be-cy" format="2">
	<unicode hex="0431"/>
	<advance width="504"/>
	<outline>
		<contour>
			<point x="239" y="-14" type="curve" smooth="yes"/>
			<point x="342" y="-14"/>
			<point x="456" y="81"/>
			<point x="456" y="305" type="curve" smooth="yes"/>
			<point x="456" y="426"/>
			<point x="418" y="517"/>
			<point x="311" y="517" type="curve" smooth="yes"/>
			<point x="193" y="517"/>
			<point x="135" y="408"/>
			<point x="111" y="323" type="curve" smooth="yes"/>
			<point x="94" y="262" type="line"/>
			<point x="89" y="263" type="line"/>
			<point x="89" y="382"/>
			<point x="112" y="541"/>
			<point x="185" y="604" type="curve" smooth="yes"/>
			<point x="222" y="636"/>
			<point x="263" y="645"/>
			<point x="382" y="657" type="curve" smooth="yes"/>
			<point x="440" y="663"/>
			<point x="460" y="689"/>
			<point x="471" y="768" type="curve"/>
			<point x="440" y="777" type="line"/>
			<point x="431" y="719"/>
			<point x="420" y="707"/>
			<point x="384" y="703" type="curve" smooth="yes"/>
			<point x="262" y="689"/>
			<point x="203" y="681"/>
			<point x="149" y="628" type="curve" smooth="yes"/>
			<point x="73" y="554"/>
			<point x="55" y="351"/>
			<point x="55" y="268" type="curve" smooth="yes"/>
			<point x="55" y="132"/>
			<point x="90" y="-14"/>
		</contour>
		<contour>
			<point x="297" y="479" type="curve" smooth="yes"/>
			<point x="383" y="479"/>
			<point x="407" y="395"/>
			<point x="407" y="300" type="curve" smooth="yes"/>
			<point x="407" y="136"/>
			<point x="333" y="25"/>
			<point x="239" y="25" type="curve" smooth="yes"/>
			<point x="152" y="25"/>
			<point x="112" y="106"/>
			<point x="114" y="189" type="curve"/>
			<point x="130" y="316"/>
			<point x="191" y="479"/>
		</contour>
	</outline>
</glyph>
<glyph name="ve-cy" format="2">
	<unicode hex="0432"/>
	<advance width="463"/>
	<outline>
		<contour>
			<point x="235" y="-14" type="curve"/>
			<point x="348" y="-14"/>
			<point x="419" y="81"/>
			<point x="419" y="174" type="curve" smooth="yes"/>
			<point x="419" y="244"/>
			<point x="369" y="284"/>
			<point x="280" y="278" type="curve"/>
			<point x="279" y="282" type="line"/>
			<point x="366" y="307"/>
			<point x="397" y="350"/>
			<point x="397" y="409" type="curve" smooth="yes"/>
			<point x="397" y="470"/>
			<point x="348" y="516"/>
			<point x="266" y="516" type="curve" smooth="yes"/>
			<point x="126" y="516"/>
			<point x="55" y="398"/>
			<point x="55" y="220" type="curve" smooth="yes"/>
			<point x="55" y="77"/>
			<point x="103" y="-14"/>
		</contour>
		<contour>
			<point x="237" y="27" type="curve"/>
			<point x="140" y="27"/>
			<point x="104" y="110"/>
			<point x="104" y="199" type="curve" smooth="yes"/>
			<point x="104" y="216"/>
			<point x="103" y="222"/>
			<point x="104" y="233" type="curve"/>
			<point x="132" y="242"/>
			<point x="195" y="249"/>
			<point x="247" y="249" type="curve" smooth="yes"/>
			<point x="311" y="249"/>
			<point x="368" y="240"/>
			<point x="368" y="167" type="curve" smooth="yes"/>
			<point x="368" y="87"/>
			<point x="311" y="27"/>
		</contour>
		<contour>
			<point x="105" y="276" type="line"/>
			<point x="119" y="409"/>
			<point x="175" y="475"/>
			<point x="262" y="475" type="curve" smooth="yes"/>
			<point x="318" y="475"/>
			<point x="348" y="448"/>
			<point x="348" y="407" type="curve" smooth="yes"/>
			<point x="348" y="362"/>
			<point x="326" y="312"/>
			<point x="202" y="292" type="curve" smooth="yes"/>
		</contour>
	</outline>
</glyph>
<glyph name="ge-cy" format="2">
	<unicode hex="0433"/>
	<advance width="396"/>
	<outline>
		<contour>
			<point x="50" y="444" type="curve"/>
			<point x="68" y="405" type="line"/>
			<point x="102" y="426"/>
			<point x="183" y="470"/>
			<point x="228" y="470" type="curve" smooth="yes"/>
			<point x="264" y="470"/>
			<point x="291" y="436"/>
			<point x="291" y="397" type="curve" smooth="yes"/>
			<point x="291" y="355"/>
			<point x="230" y="306"/>
			<point x="171" y="264" type="curve" smooth="yes"/>
			<point x="105" y="217"/>
			<point x="41" y="164"/>
			<point x="41" y="112" type="curve" smooth="yes"/>
			<point x="41" y="44"/>
			<point x="85" y="-14"/>
			<point x="145" y="-14" type="curve" smooth="yes"/>
			<point x="192" y="-14"/>
			<point x="263" y="12"/>
			<point x="335" y="52" type="curve"/>
			<point x="322" y="89" type="line"/>
			<point x="263" y="58"/>
			<point x="207" y="34"/>
			<point x="153" y="34" type="curve" smooth="yes"/>
			<point x="112" y="34"/>
			<point x="92" y="76"/>
			<point x="92" y="115" type="curve" smooth="yes"/>
			<point x="92" y="159"/>
			<point x="159" y="209"/>
			<point x="221" y="255" type="curve" smooth="yes"/>
			<point x="283" y="301"/>
			<point x="341" y="354"/>
			<point x="341" y="396" type="curve" smooth="yes"/>
			<point x="341" y="463"/>
			<point x="292" y="516"/>
			<point x="240" y="516" type="curve" smooth="yes"/>
			<point x="200" y="516"/>
			<point x="135" y="488"/>
		</contour>
	</outline>
	<anchor name="top" x="219" y="550"/>
</glyph>
<glyph name="ze-cy" format="2">
	<unicode hex="0437"/>
	<advance width="436"/>
	<outline>
		<contour>
			<point x="193" y="-14" type="curve" smooth="yes"/>
			<point x="335" y="-14"/>
			<point x="391" y="76"/>
			<point x="391" y="157" type="curve" smooth="yes"/>
			<point x="391" y="235"/>
			<point x="326" y="275"/>
			<point x="229" y="272" type="curve"/>
			<point x="229" y="277" type="line"/>
			<point x="313" y="286"/>
			<point x="373" y="348"/>
			<point x="373" y="415" type="curve" smooth="yes"/>
			<point x="373" y="470"/>
			<point x="332" y="517"/>
			<point x="251" y="517" type="curve" smooth="yes"/>
			<point x="181" y="517"/>
			<point x="114" y="491"/>
			<point x="66" y="407" type="curve"/>
			<point x="97" y="386" type="line"/>
			<point x="135" y="450"/>
			<point x="185" y="477"/>
			<point x="237" y="477" type="curve" smooth="yes"/>
			<point x="287" y="477"/>
			<point x="323" y="457"/>
			<point x="323" y="409" type="curve" smooth="yes"/>
			<point x="323" y="350"/>
			<point x="263" y="300"/>
			<point x="159" y="290" type="curve" smooth="yes"/>
			<point x="118" y="286" type="line"/>
			<point x="117" y="243" type="line"/>
			<point x="191" y="243" type="line" smooth="yes"/>
			<point x="285" y="243"/>
			<point x="341" y="218"/>
			<point x="341" y="148" type="curve" smooth="yes"/>
			<point x="341" y="80"/>
			<point x="290" y="24"/>
			<point x="200" y="24" type="curve" smooth="yes"/>
			<point x="144" y="24"/>
			<point x="115" y="39"/>
			<point x="117" y="70" type="curve" smooth="yes"/>
			<point x="119" y="108" type="line"/>
			<point x="109" y="113"/>
			<point x="99" y="117"/>
			<point x="83" y="117" type="curve" smooth="yes"/>
			<point x="60" y="117"/>
			<point x="44" y="102"/>
			<point x="44" y="76" type="curve" smooth="yes"/>
			<point x="44" y="23"/>
			<point x="112" y="-14"/>
		</contour>
	</outline>
	<guideline x="277" y="517" angle="0"/>
</glyph>
